<svg xmlns="http://www.w3.org/2000/svg" xmlns:xlink="http://www.w3.org/1999/xlink" width="1800" zoomAndPan="magnify" viewBox="0 0 1350 413.249996" height="551" preserveAspectRatio="xMidYMid meet" version="1.0"><defs><g/><clipPath id="7838b6c6db"><path d="M 1.222656 0 L 1348.777344 0 L 1348.777344 412.5 L 1.222656 412.5 Z M 1.222656 0 " clip-rule="nonzero"/></clipPath><clipPath id="fa64c23dd6"><path d="M 61.398438 49.46875 L 62 49.46875 L 62 383.644531 L 61.398438 383.644531 Z M 61.398438 49.46875 " clip-rule="nonzero"/></clipPath><clipPath id="06cf7ce792"><path d="M 314 49.46875 L 315 49.46875 L 315 383.644531 L 314 383.644531 Z M 314 49.46875 " clip-rule="nonzero"/></clipPath><clipPath id="5af1cf2d3b"><path d="M 567 49.46875 L 568 49.46875 L 568 383.644531 L 567 383.644531 Z M 567 49.46875 " clip-rule="nonzero"/></clipPath><clipPath id="f57a4ff5c2"><path d="M 820 49.46875 L 822 49.46875 L 822 383.644531 L 820 383.644531 Z M 820 49.46875 " clip-rule="nonzero"/></clipPath><clipPath id="6e8da8e186"><path d="M 1073 49.46875 L 1075 49.46875 L 1075 383.644531 L 1073 383.644531 Z M 1073 49.46875 " clip-rule="nonzero"/></clipPath><clipPath id="859236ac3a"><path d="M 1326 49.46875 L 1327.085938 49.46875 L 1327.085938 383.644531 L 1326 383.644531 Z M 1326 49.46875 " clip-rule="nonzero"/></clipPath><clipPath id="6ff786b6eb"><path d="M 57 390 L 65 390 L 65 399.734375 L 57 399.734375 Z M 57 390 " clip-rule="nonzero"/></clipPath><clipPath id="55fc183b18"><path d="M 307 390 L 314 390 L 314 399.734375 L 307 399.734375 Z M 307 390 " clip-rule="nonzero"/></clipPath><clipPath id="8650167af4"><path d="M 314 390 L 322 390 L 322 399.734375 L 314 399.734375 Z M 314 390 " clip-rule="nonzero"/></clipPath><clipPath id="dea6dfe5e0"><path d="M 559 390 L 576 390 L 576 399.734375 L 559 399.734375 Z M 559 390 " clip-rule="nonzero"/></clipPath><clipPath id="e844c82f69"><path d="M 812 390 L 829 390 L 829 399.734375 L 812 399.734375 Z M 812 390 " clip-rule="nonzero"/></clipPath><clipPath id="6b266d97c5"><path d="M 1065 390 L 1082 390 L 1082 399.734375 L 1065 399.734375 Z M 1065 390 " clip-rule="nonzero"/></clipPath><clipPath id="1674944d8e"><path d="M 1319 390 L 1335 390 L 1335 399.734375 L 1319 399.734375 Z M 1319 390 " clip-rule="nonzero"/></clipPath><clipPath id="63b0b86882"><path d="M 61.398438 49.46875 L 263.90625 49.46875 L 263.90625 126.585938 L 61.398438 126.585938 Z M 61.398438 49.46875 " clip-rule="nonzero"/></clipPath><clipPath id="adf035c5a8"><path d="M 263.90625 49.46875 L 466.417969 49.46875 L 466.417969 126.585938 L 263.90625 126.585938 Z M 263.90625 49.46875 " clip-rule="nonzero"/></clipPath><clipPath id="fa58084841"><path d="M 466.417969 49.46875 L 567.671875 49.46875 L 567.671875 126.585938 L 466.417969 126.585938 Z M 466.417969 49.46875 " clip-rule="nonzero"/></clipPath><clipPath id="4fae4ed4ce"><path d="M 61.398438 135.15625 L 365.164062 135.15625 L 365.164062 212.273438 L 61.398438 212.273438 Z M 61.398438 135.15625 " clip-rule="nonzero"/></clipPath><clipPath id="103f1eb650"><path d="M 365.164062 135.15625 L 618.300781 135.15625 L 618.300781 212.273438 L 365.164062 212.273438 Z M 365.164062 135.15625 " clip-rule="nonzero"/></clipPath><clipPath id="12fe13058e"><path d="M 618.300781 135.15625 L 820.8125 135.15625 L 820.8125 212.273438 L 618.300781 212.273438 Z M 618.300781 135.15625 " clip-rule="nonzero"/></clipPath><clipPath id="a19cfaa299"><path d="M 61.398438 220.839844 L 466.417969 220.839844 L 466.417969 297.957031 L 61.398438 297.957031 Z M 61.398438 220.839844 " clip-rule="nonzero"/></clipPath><clipPath id="5b005327f2"><path d="M 466.417969 220.839844 L 719.554688 220.839844 L 719.554688 297.957031 L 466.417969 297.957031 Z M 466.417969 220.839844 " clip-rule="nonzero"/></clipPath><clipPath id="c73b087afa"><path d="M 719.554688 220.839844 L 972.691406 220.839844 L 972.691406 297.957031 L 719.554688 297.957031 Z M 719.554688 220.839844 " clip-rule="nonzero"/></clipPath><clipPath id="fb623e9b32"><path d="M 61.398438 306.527344 L 567.671875 306.527344 L 567.671875 383.644531 L 61.398438 383.644531 Z M 61.398438 306.527344 " clip-rule="nonzero"/></clipPath><clipPath id="2c1b8457f8"><path d="M 567.671875 306.527344 L 1175.203125 306.527344 L 1175.203125 383.644531 L 567.671875 383.644531 Z M 567.671875 306.527344 " clip-rule="nonzero"/></clipPath><clipPath id="cb5fd97947"><path d="M 1175.203125 306.527344 L 1327.085938 306.527344 L 1327.085938 383.644531 L 1175.203125 383.644531 Z M 1175.203125 306.527344 " clip-rule="nonzero"/></clipPath><clipPath id="1dc5c99b46"><rect x="0" width="1348" y="0" height="413"/></clipPath></defs><g clip-path="url(#7838b6c6db)"><g transform="matrix(1, 0, 0, 1, 1, -0.000000000000048391)"><g clip-path="url(#1dc5c99b46)"><path fill="#6ce5e8" d="M 577.4375 25.707031 C 577.4375 26.140625 577.394531 26.570312 577.3125 26.996094 C 577.226562 27.421875 577.101562 27.832031 576.9375 28.234375 C 576.769531 28.632812 576.566406 29.015625 576.324219 29.375 C 576.085938 29.734375 575.8125 30.070312 575.503906 30.375 C 575.199219 30.679688 574.863281 30.953125 574.503906 31.195312 C 574.144531 31.4375 573.765625 31.640625 573.363281 31.804688 C 572.960938 31.972656 572.550781 32.097656 572.125 32.179688 C 571.699219 32.265625 571.269531 32.308594 570.835938 32.308594 C 570.402344 32.308594 569.972656 32.265625 569.550781 32.179688 C 569.125 32.097656 568.710938 31.972656 568.3125 31.804688 C 567.910156 31.640625 567.53125 31.4375 567.171875 31.195312 C 566.808594 30.953125 566.476562 30.679688 566.167969 30.375 C 565.863281 30.070312 565.589844 29.734375 565.347656 29.375 C 565.109375 29.015625 564.90625 28.632812 564.738281 28.234375 C 564.574219 27.832031 564.449219 27.421875 564.363281 26.996094 C 564.277344 26.570312 564.234375 26.140625 564.234375 25.707031 C 564.234375 25.273438 564.277344 24.84375 564.363281 24.417969 C 564.449219 23.996094 564.574219 23.582031 564.738281 23.179688 C 564.90625 22.78125 565.109375 22.398438 565.347656 22.039062 C 565.589844 21.679688 565.863281 21.347656 566.167969 21.039062 C 566.476562 20.734375 566.808594 20.460938 567.171875 20.21875 C 567.53125 19.976562 567.910156 19.773438 568.3125 19.609375 C 568.710938 19.441406 569.125 19.316406 569.550781 19.234375 C 569.972656 19.148438 570.402344 19.105469 570.835938 19.105469 C 571.269531 19.105469 571.699219 19.148438 572.125 19.234375 C 572.550781 19.316406 572.960938 19.441406 573.363281 19.609375 C 573.765625 19.773438 574.144531 19.976562 574.503906 20.21875 C 574.863281 20.460938 575.199219 20.734375 575.503906 21.039062 C 575.8125 21.347656 576.085938 21.679688 576.324219 22.039062 C 576.566406 22.398438 576.769531 22.78125 576.9375 23.179688 C 577.101562 23.582031 577.226562 23.996094 577.3125 24.417969 C 577.394531 24.84375 577.4375 25.273438 577.4375 25.707031 Z M 577.4375 25.707031 " fill-opacity="1" fill-rule="nonzero"/><g fill="#000000" fill-opacity="1"><g transform="translate(583.626559, 30.864278)"><g><path d="M 4.125 0.140625 C 3.53125 0.140625 2.992188 0.0625 2.515625 -0.09375 C 2.046875 -0.257812 1.65625 -0.472656 1.34375 -0.734375 C 1.03125 -1.003906 0.796875 -1.296875 0.640625 -1.609375 L 1.25 -2.34375 L 1.40625 -2.34375 C 1.988281 -1.351562 2.894531 -0.859375 4.125 -0.859375 C 4.832031 -0.859375 5.359375 -1.003906 5.703125 -1.296875 C 6.046875 -1.597656 6.21875 -2.015625 6.21875 -2.546875 C 6.21875 -2.859375 6.160156 -3.117188 6.046875 -3.328125 C 5.929688 -3.546875 5.742188 -3.726562 5.484375 -3.875 C 5.222656 -4.03125 4.867188 -4.164062 4.421875 -4.28125 L 3.3125 -4.546875 C 2.488281 -4.742188 1.882812 -5.054688 1.5 -5.484375 C 1.113281 -5.921875 0.921875 -6.472656 0.921875 -7.140625 C 0.921875 -7.609375 1.039062 -8.023438 1.28125 -8.390625 C 1.519531 -8.753906 1.867188 -9.039062 2.328125 -9.25 C 2.796875 -9.457031 3.351562 -9.5625 4 -9.5625 C 4.707031 -9.5625 5.304688 -9.460938 5.796875 -9.265625 C 6.285156 -9.066406 6.675781 -8.765625 6.96875 -8.359375 L 6.421875 -7.640625 L 6.265625 -7.640625 C 5.992188 -7.960938 5.671875 -8.203125 5.296875 -8.359375 C 4.929688 -8.515625 4.5 -8.59375 4 -8.59375 C 3.34375 -8.59375 2.847656 -8.460938 2.515625 -8.203125 C 2.179688 -7.953125 2.015625 -7.601562 2.015625 -7.15625 C 2.015625 -6.738281 2.132812 -6.398438 2.375 -6.140625 C 2.625 -5.890625 3.039062 -5.695312 3.625 -5.5625 L 4.75 -5.296875 C 5.664062 -5.078125 6.328125 -4.742188 6.734375 -4.296875 C 7.148438 -3.859375 7.359375 -3.289062 7.359375 -2.59375 C 7.359375 -2.0625 7.238281 -1.585938 7 -1.171875 C 6.757812 -0.765625 6.394531 -0.441406 5.90625 -0.203125 C 5.425781 0.0234375 4.832031 0.140625 4.125 0.140625 Z M 4.125 0.140625 "/></g></g><g transform="translate(591.703687, 30.864278)"><g><path d="M 6.78125 -3.3125 L 1.890625 -3.3125 C 1.921875 -2.445312 2.128906 -1.8125 2.515625 -1.40625 C 2.898438 -1.007812 3.425781 -0.8125 4.09375 -0.8125 C 4.601562 -0.8125 5.007812 -0.898438 5.3125 -1.078125 C 5.625 -1.253906 5.867188 -1.535156 6.046875 -1.921875 L 6.1875 -1.921875 L 6.859375 -1.515625 C 6.660156 -1.003906 6.332031 -0.597656 5.875 -0.296875 C 5.425781 -0.00390625 4.832031 0.140625 4.09375 0.140625 C 3.40625 0.140625 2.8125 0.00390625 2.3125 -0.265625 C 1.820312 -0.535156 1.441406 -0.945312 1.171875 -1.5 C 0.910156 -2.050781 0.78125 -2.734375 0.78125 -3.546875 C 0.78125 -4.359375 0.921875 -5.039062 1.203125 -5.59375 C 1.484375 -6.144531 1.867188 -6.554688 2.359375 -6.828125 C 2.847656 -7.109375 3.40625 -7.25 4.03125 -7.25 C 4.9375 -7.25 5.644531 -6.988281 6.15625 -6.46875 C 6.675781 -5.957031 6.9375 -5.195312 6.9375 -4.1875 C 6.9375 -3.789062 6.925781 -3.523438 6.90625 -3.390625 Z M 5.90625 -4.1875 C 5.882812 -4.945312 5.710938 -5.5 5.390625 -5.84375 C 5.078125 -6.1875 4.625 -6.359375 4.03125 -6.359375 C 3.40625 -6.359375 2.914062 -6.179688 2.5625 -5.828125 C 2.207031 -5.484375 1.992188 -4.9375 1.921875 -4.1875 Z M 5.90625 -4.1875 "/></g></g><g transform="translate(599.284454, 30.864278)"><g><path d="M 1.234375 0 L 1.234375 -7.109375 L 2.234375 -7.109375 L 2.234375 -6 L 2.375 -5.96875 C 2.707031 -6.769531 3.328125 -7.171875 4.234375 -7.171875 C 4.722656 -7.171875 5.085938 -7.082031 5.328125 -6.90625 L 5.0625 -6.015625 L 4.9375 -6 C 4.664062 -6.132812 4.375 -6.203125 4.0625 -6.203125 C 3.488281 -6.203125 3.046875 -5.988281 2.734375 -5.5625 C 2.429688 -5.132812 2.28125 -4.441406 2.28125 -3.484375 L 2.28125 0 Z M 1.234375 0 "/></g></g><g transform="translate(604.776642, 30.864278)"><g><path d="M 1.765625 -8.484375 C 1.546875 -8.484375 1.363281 -8.550781 1.21875 -8.6875 C 1.082031 -8.832031 1.015625 -9.007812 1.015625 -9.21875 C 1.015625 -9.4375 1.082031 -9.613281 1.21875 -9.75 C 1.363281 -9.894531 1.546875 -9.96875 1.765625 -9.96875 C 1.992188 -9.96875 2.175781 -9.894531 2.3125 -9.75 C 2.445312 -9.613281 2.515625 -9.4375 2.515625 -9.21875 C 2.515625 -9.007812 2.445312 -8.832031 2.3125 -8.6875 C 2.175781 -8.550781 1.992188 -8.484375 1.765625 -8.484375 Z M 1.234375 0 L 1.234375 -7.109375 L 2.28125 -7.109375 L 2.28125 0 Z M 1.234375 0 "/></g></g><g transform="translate(608.30273, 30.864278)"><g><path d="M 6.78125 -3.3125 L 1.890625 -3.3125 C 1.921875 -2.445312 2.128906 -1.8125 2.515625 -1.40625 C 2.898438 -1.007812 3.425781 -0.8125 4.09375 -0.8125 C 4.601562 -0.8125 5.007812 -0.898438 5.3125 -1.078125 C 5.625 -1.253906 5.867188 -1.535156 6.046875 -1.921875 L 6.1875 -1.921875 L 6.859375 -1.515625 C 6.660156 -1.003906 6.332031 -0.597656 5.875 -0.296875 C 5.425781 -0.00390625 4.832031 0.140625 4.09375 0.140625 C 3.40625 0.140625 2.8125 0.00390625 2.3125 -0.265625 C 1.820312 -0.535156 1.441406 -0.945312 1.171875 -1.5 C 0.910156 -2.050781 0.78125 -2.734375 0.78125 -3.546875 C 0.78125 -4.359375 0.921875 -5.039062 1.203125 -5.59375 C 1.484375 -6.144531 1.867188 -6.554688 2.359375 -6.828125 C 2.847656 -7.109375 3.40625 -7.25 4.03125 -7.25 C 4.9375 -7.25 5.644531 -6.988281 6.15625 -6.46875 C 6.675781 -5.957031 6.9375 -5.195312 6.9375 -4.1875 C 6.9375 -3.789062 6.925781 -3.523438 6.90625 -3.390625 Z M 5.90625 -4.1875 C 5.882812 -4.945312 5.710938 -5.5 5.390625 -5.84375 C 5.078125 -6.1875 4.625 -6.359375 4.03125 -6.359375 C 3.40625 -6.359375 2.914062 -6.179688 2.5625 -5.828125 C 2.207031 -5.484375 1.992188 -4.9375 1.921875 -4.1875 Z M 5.90625 -4.1875 "/></g></g><g transform="translate(615.883498, 30.864278)"><g><path d="M 3.25 0.140625 C 2.800781 0.140625 2.382812 0.0820312 2 -0.03125 C 1.625 -0.15625 1.300781 -0.320312 1.03125 -0.53125 C 0.769531 -0.738281 0.585938 -0.96875 0.484375 -1.21875 L 1.109375 -1.875 L 1.234375 -1.875 C 1.460938 -1.519531 1.738281 -1.253906 2.0625 -1.078125 C 2.394531 -0.898438 2.789062 -0.8125 3.25 -0.8125 C 3.769531 -0.8125 4.164062 -0.910156 4.4375 -1.109375 C 4.707031 -1.316406 4.84375 -1.601562 4.84375 -1.96875 C 4.84375 -2.25 4.757812 -2.476562 4.59375 -2.65625 C 4.4375 -2.84375 4.171875 -2.976562 3.796875 -3.0625 L 2.59375 -3.359375 C 1.957031 -3.515625 1.488281 -3.757812 1.1875 -4.09375 C 0.894531 -4.4375 0.75 -4.851562 0.75 -5.34375 C 0.75 -5.726562 0.847656 -6.0625 1.046875 -6.34375 C 1.242188 -6.632812 1.53125 -6.859375 1.90625 -7.015625 C 2.28125 -7.171875 2.722656 -7.25 3.234375 -7.25 C 3.878906 -7.25 4.390625 -7.15625 4.765625 -6.96875 C 5.148438 -6.789062 5.445312 -6.535156 5.65625 -6.203125 L 5.0625 -5.625 L 4.9375 -5.625 C 4.707031 -5.882812 4.457031 -6.070312 4.1875 -6.1875 C 3.914062 -6.3125 3.597656 -6.375 3.234375 -6.375 C 2.765625 -6.375 2.40625 -6.285156 2.15625 -6.109375 C 1.90625 -5.941406 1.78125 -5.703125 1.78125 -5.390625 C 1.78125 -5.097656 1.867188 -4.863281 2.046875 -4.6875 C 2.222656 -4.507812 2.53125 -4.367188 2.96875 -4.265625 L 4.140625 -3.984375 C 4.765625 -3.835938 5.210938 -3.59375 5.484375 -3.25 C 5.765625 -2.914062 5.90625 -2.492188 5.90625 -1.984375 C 5.90625 -1.566406 5.804688 -1.195312 5.609375 -0.875 C 5.410156 -0.5625 5.109375 -0.3125 4.703125 -0.125 C 4.304688 0.0507812 3.820312 0.140625 3.25 0.140625 Z M 3.25 0.140625 "/></g></g><g transform="translate(622.458653, 30.864278)"><g/></g><g transform="translate(625.694661, 30.864278)"><g><path d="M 0.671875 0 L 0.671875 -0.921875 L 3.25 -0.921875 L 3.25 -8.125 L 3.09375 -8.15625 C 2.675781 -7.957031 2.3125 -7.800781 2 -7.6875 C 1.6875 -7.582031 1.285156 -7.476562 0.796875 -7.375 L 0.796875 -8.390625 C 1.273438 -8.492188 1.753906 -8.632812 2.234375 -8.8125 C 2.710938 -8.988281 3.144531 -9.191406 3.53125 -9.421875 L 4.328125 -9.421875 L 4.328125 -0.921875 L 6.625 -0.921875 L 6.625 0 Z M 0.671875 0 "/></g></g></g><path fill="#41b8d5" d="M 670.113281 25.707031 C 670.113281 26.140625 670.070312 26.570312 669.988281 26.996094 C 669.902344 27.421875 669.777344 27.832031 669.609375 28.234375 C 669.445312 28.632812 669.242188 29.015625 669 29.375 C 668.761719 29.734375 668.488281 30.070312 668.179688 30.375 C 667.875 30.679688 667.539062 30.953125 667.179688 31.195312 C 666.820312 31.4375 666.4375 31.640625 666.039062 31.804688 C 665.636719 31.972656 665.226562 32.097656 664.800781 32.179688 C 664.375 32.265625 663.945312 32.308594 663.511719 32.308594 C 663.078125 32.308594 662.648438 32.265625 662.226562 32.179688 C 661.800781 32.097656 661.386719 31.972656 660.988281 31.804688 C 660.585938 31.640625 660.207031 31.4375 659.84375 31.195312 C 659.484375 30.953125 659.152344 30.679688 658.84375 30.375 C 658.539062 30.070312 658.265625 29.734375 658.023438 29.375 C 657.785156 29.015625 657.578125 28.632812 657.414062 28.234375 C 657.25 27.832031 657.121094 27.421875 657.039062 26.996094 C 656.953125 26.570312 656.910156 26.140625 656.910156 25.707031 C 656.910156 25.273438 656.953125 24.84375 657.039062 24.417969 C 657.121094 23.996094 657.25 23.582031 657.414062 23.179688 C 657.578125 22.78125 657.785156 22.398438 658.023438 22.039062 C 658.265625 21.679688 658.539062 21.347656 658.84375 21.039062 C 659.152344 20.734375 659.484375 20.460938 659.84375 20.21875 C 660.207031 19.976562 660.585938 19.773438 660.988281 19.609375 C 661.386719 19.441406 661.800781 19.316406 662.226562 19.234375 C 662.648438 19.148438 663.078125 19.105469 663.511719 19.105469 C 663.945312 19.105469 664.375 19.148438 664.800781 19.234375 C 665.226562 19.316406 665.636719 19.441406 666.039062 19.609375 C 666.4375 19.773438 666.820312 19.976562 667.179688 20.21875 C 667.539062 20.460938 667.875 20.734375 668.179688 21.039062 C 668.488281 21.347656 668.761719 21.679688 669 22.039062 C 669.242188 22.398438 669.445312 22.78125 669.609375 23.179688 C 669.777344 23.582031 669.902344 23.996094 669.988281 24.417969 C 670.070312 24.84375 670.113281 25.273438 670.113281 25.707031 Z M 670.113281 25.707031 " fill-opacity="1" fill-rule="nonzero"/><g fill="#000000" fill-opacity="1"><g transform="translate(676.301856, 30.864278)"><g><path d="M 4.125 0.140625 C 3.53125 0.140625 2.992188 0.0625 2.515625 -0.09375 C 2.046875 -0.257812 1.65625 -0.472656 1.34375 -0.734375 C 1.03125 -1.003906 0.796875 -1.296875 0.640625 -1.609375 L 1.25 -2.34375 L 1.40625 -2.34375 C 1.988281 -1.351562 2.894531 -0.859375 4.125 -0.859375 C 4.832031 -0.859375 5.359375 -1.003906 5.703125 -1.296875 C 6.046875 -1.597656 6.21875 -2.015625 6.21875 -2.546875 C 6.21875 -2.859375 6.160156 -3.117188 6.046875 -3.328125 C 5.929688 -3.546875 5.742188 -3.726562 5.484375 -3.875 C 5.222656 -4.03125 4.867188 -4.164062 4.421875 -4.28125 L 3.3125 -4.546875 C 2.488281 -4.742188 1.882812 -5.054688 1.5 -5.484375 C 1.113281 -5.921875 0.921875 -6.472656 0.921875 -7.140625 C 0.921875 -7.609375 1.039062 -8.023438 1.28125 -8.390625 C 1.519531 -8.753906 1.867188 -9.039062 2.328125 -9.25 C 2.796875 -9.457031 3.351562 -9.5625 4 -9.5625 C 4.707031 -9.5625 5.304688 -9.460938 5.796875 -9.265625 C 6.285156 -9.066406 6.675781 -8.765625 6.96875 -8.359375 L 6.421875 -7.640625 L 6.265625 -7.640625 C 5.992188 -7.960938 5.671875 -8.203125 5.296875 -8.359375 C 4.929688 -8.515625 4.5 -8.59375 4 -8.59375 C 3.34375 -8.59375 2.847656 -8.460938 2.515625 -8.203125 C 2.179688 -7.953125 2.015625 -7.601562 2.015625 -7.15625 C 2.015625 -6.738281 2.132812 -6.398438 2.375 -6.140625 C 2.625 -5.890625 3.039062 -5.695312 3.625 -5.5625 L 4.75 -5.296875 C 5.664062 -5.078125 6.328125 -4.742188 6.734375 -4.296875 C 7.148438 -3.859375 7.359375 -3.289062 7.359375 -2.59375 C 7.359375 -2.0625 7.238281 -1.585938 7 -1.171875 C 6.757812 -0.765625 6.394531 -0.441406 5.90625 -0.203125 C 5.425781 0.0234375 4.832031 0.140625 4.125 0.140625 Z M 4.125 0.140625 "/></g></g><g transform="translate(684.378983, 30.864278)"><g><path d="M 6.78125 -3.3125 L 1.890625 -3.3125 C 1.921875 -2.445312 2.128906 -1.8125 2.515625 -1.40625 C 2.898438 -1.007812 3.425781 -0.8125 4.09375 -0.8125 C 4.601562 -0.8125 5.007812 -0.898438 5.3125 -1.078125 C 5.625 -1.253906 5.867188 -1.535156 6.046875 -1.921875 L 6.1875 -1.921875 L 6.859375 -1.515625 C 6.660156 -1.003906 6.332031 -0.597656 5.875 -0.296875 C 5.425781 -0.00390625 4.832031 0.140625 4.09375 0.140625 C 3.40625 0.140625 2.8125 0.00390625 2.3125 -0.265625 C 1.820312 -0.535156 1.441406 -0.945312 1.171875 -1.5 C 0.910156 -2.050781 0.78125 -2.734375 0.78125 -3.546875 C 0.78125 -4.359375 0.921875 -5.039062 1.203125 -5.59375 C 1.484375 -6.144531 1.867188 -6.554688 2.359375 -6.828125 C 2.847656 -7.109375 3.40625 -7.25 4.03125 -7.25 C 4.9375 -7.25 5.644531 -6.988281 6.15625 -6.46875 C 6.675781 -5.957031 6.9375 -5.195312 6.9375 -4.1875 C 6.9375 -3.789062 6.925781 -3.523438 6.90625 -3.390625 Z M 5.90625 -4.1875 C 5.882812 -4.945312 5.710938 -5.5 5.390625 -5.84375 C 5.078125 -6.1875 4.625 -6.359375 4.03125 -6.359375 C 3.40625 -6.359375 2.914062 -6.179688 2.5625 -5.828125 C 2.207031 -5.484375 1.992188 -4.9375 1.921875 -4.1875 Z M 5.90625 -4.1875 "/></g></g><g transform="translate(691.95975, 30.864278)"><g><path d="M 1.234375 0 L 1.234375 -7.109375 L 2.234375 -7.109375 L 2.234375 -6 L 2.375 -5.96875 C 2.707031 -6.769531 3.328125 -7.171875 4.234375 -7.171875 C 4.722656 -7.171875 5.085938 -7.082031 5.328125 -6.90625 L 5.0625 -6.015625 L 4.9375 -6 C 4.664062 -6.132812 4.375 -6.203125 4.0625 -6.203125 C 3.488281 -6.203125 3.046875 -5.988281 2.734375 -5.5625 C 2.429688 -5.132812 2.28125 -4.441406 2.28125 -3.484375 L 2.28125 0 Z M 1.234375 0 "/></g></g><g transform="translate(697.451939, 30.864278)"><g><path d="M 1.765625 -8.484375 C 1.546875 -8.484375 1.363281 -8.550781 1.21875 -8.6875 C 1.082031 -8.832031 1.015625 -9.007812 1.015625 -9.21875 C 1.015625 -9.4375 1.082031 -9.613281 1.21875 -9.75 C 1.363281 -9.894531 1.546875 -9.96875 1.765625 -9.96875 C 1.992188 -9.96875 2.175781 -9.894531 2.3125 -9.75 C 2.445312 -9.613281 2.515625 -9.4375 2.515625 -9.21875 C 2.515625 -9.007812 2.445312 -8.832031 2.3125 -8.6875 C 2.175781 -8.550781 1.992188 -8.484375 1.765625 -8.484375 Z M 1.234375 0 L 1.234375 -7.109375 L 2.28125 -7.109375 L 2.28125 0 Z M 1.234375 0 "/></g></g><g transform="translate(700.978027, 30.864278)"><g><path d="M 6.78125 -3.3125 L 1.890625 -3.3125 C 1.921875 -2.445312 2.128906 -1.8125 2.515625 -1.40625 C 2.898438 -1.007812 3.425781 -0.8125 4.09375 -0.8125 C 4.601562 -0.8125 5.007812 -0.898438 5.3125 -1.078125 C 5.625 -1.253906 5.867188 -1.535156 6.046875 -1.921875 L 6.1875 -1.921875 L 6.859375 -1.515625 C 6.660156 -1.003906 6.332031 -0.597656 5.875 -0.296875 C 5.425781 -0.00390625 4.832031 0.140625 4.09375 0.140625 C 3.40625 0.140625 2.8125 0.00390625 2.3125 -0.265625 C 1.820312 -0.535156 1.441406 -0.945312 1.171875 -1.5 C 0.910156 -2.050781 0.78125 -2.734375 0.78125 -3.546875 C 0.78125 -4.359375 0.921875 -5.039062 1.203125 -5.59375 C 1.484375 -6.144531 1.867188 -6.554688 2.359375 -6.828125 C 2.847656 -7.109375 3.40625 -7.25 4.03125 -7.25 C 4.9375 -7.25 5.644531 -6.988281 6.15625 -6.46875 C 6.675781 -5.957031 6.9375 -5.195312 6.9375 -4.1875 C 6.9375 -3.789062 6.925781 -3.523438 6.90625 -3.390625 Z M 5.90625 -4.1875 C 5.882812 -4.945312 5.710938 -5.5 5.390625 -5.84375 C 5.078125 -6.1875 4.625 -6.359375 4.03125 -6.359375 C 3.40625 -6.359375 2.914062 -6.179688 2.5625 -5.828125 C 2.207031 -5.484375 1.992188 -4.9375 1.921875 -4.1875 Z M 5.90625 -4.1875 "/></g></g><g transform="translate(708.558794, 30.864278)"><g><path d="M 3.25 0.140625 C 2.800781 0.140625 2.382812 0.0820312 2 -0.03125 C 1.625 -0.15625 1.300781 -0.320312 1.03125 -0.53125 C 0.769531 -0.738281 0.585938 -0.96875 0.484375 -1.21875 L 1.109375 -1.875 L 1.234375 -1.875 C 1.460938 -1.519531 1.738281 -1.253906 2.0625 -1.078125 C 2.394531 -0.898438 2.789062 -0.8125 3.25 -0.8125 C 3.769531 -0.8125 4.164062 -0.910156 4.4375 -1.109375 C 4.707031 -1.316406 4.84375 -1.601562 4.84375 -1.96875 C 4.84375 -2.25 4.757812 -2.476562 4.59375 -2.65625 C 4.4375 -2.84375 4.171875 -2.976562 3.796875 -3.0625 L 2.59375 -3.359375 C 1.957031 -3.515625 1.488281 -3.757812 1.1875 -4.09375 C 0.894531 -4.4375 0.75 -4.851562 0.75 -5.34375 C 0.75 -5.726562 0.847656 -6.0625 1.046875 -6.34375 C 1.242188 -6.632812 1.53125 -6.859375 1.90625 -7.015625 C 2.28125 -7.171875 2.722656 -7.25 3.234375 -7.25 C 3.878906 -7.25 4.390625 -7.15625 4.765625 -6.96875 C 5.148438 -6.789062 5.445312 -6.535156 5.65625 -6.203125 L 5.0625 -5.625 L 4.9375 -5.625 C 4.707031 -5.882812 4.457031 -6.070312 4.1875 -6.1875 C 3.914062 -6.3125 3.597656 -6.375 3.234375 -6.375 C 2.765625 -6.375 2.40625 -6.285156 2.15625 -6.109375 C 1.90625 -5.941406 1.78125 -5.703125 1.78125 -5.390625 C 1.78125 -5.097656 1.867188 -4.863281 2.046875 -4.6875 C 2.222656 -4.507812 2.53125 -4.367188 2.96875 -4.265625 L 4.140625 -3.984375 C 4.765625 -3.835938 5.210938 -3.59375 5.484375 -3.25 C 5.765625 -2.914062 5.90625 -2.492188 5.90625 -1.984375 C 5.90625 -1.566406 5.804688 -1.195312 5.609375 -0.875 C 5.410156 -0.5625 5.109375 -0.3125 4.703125 -0.125 C 4.304688 0.0507812 3.820312 0.140625 3.25 0.140625 Z M 3.25 0.140625 "/></g></g><g transform="translate(715.13395, 30.864278)"><g/></g><g transform="translate(718.369957, 30.864278)"><g><path d="M 0.5625 -0.4375 C 0.5625 -0.957031 0.617188 -1.375 0.734375 -1.6875 C 0.847656 -2.007812 1.039062 -2.304688 1.3125 -2.578125 C 1.59375 -2.847656 2.035156 -3.207031 2.640625 -3.65625 L 3.671875 -4.40625 C 4.054688 -4.6875 4.367188 -4.941406 4.609375 -5.171875 C 4.847656 -5.410156 5.035156 -5.664062 5.171875 -5.9375 C 5.316406 -6.21875 5.390625 -6.53125 5.390625 -6.875 C 5.390625 -7.4375 5.238281 -7.859375 4.9375 -8.140625 C 4.644531 -8.421875 4.179688 -8.5625 3.546875 -8.5625 C 3.046875 -8.5625 2.601562 -8.445312 2.21875 -8.21875 C 1.832031 -7.988281 1.523438 -7.660156 1.296875 -7.234375 L 1.140625 -7.203125 L 0.484375 -7.90625 C 0.796875 -8.414062 1.210938 -8.816406 1.734375 -9.109375 C 2.253906 -9.410156 2.859375 -9.5625 3.546875 -9.5625 C 4.222656 -9.5625 4.78125 -9.445312 5.21875 -9.21875 C 5.664062 -8.988281 5.992188 -8.671875 6.203125 -8.265625 C 6.410156 -7.867188 6.515625 -7.40625 6.515625 -6.875 C 6.515625 -6.457031 6.425781 -6.066406 6.25 -5.703125 C 6.070312 -5.335938 5.820312 -4.992188 5.5 -4.671875 C 5.175781 -4.347656 4.773438 -4.007812 4.296875 -3.65625 L 3.25 -2.875 C 2.851562 -2.59375 2.550781 -2.347656 2.34375 -2.140625 C 2.132812 -1.941406 1.976562 -1.742188 1.875 -1.546875 C 1.78125 -1.359375 1.734375 -1.148438 1.734375 -0.921875 L 6.515625 -0.921875 L 6.515625 0 L 0.5625 0 Z M 0.5625 -0.4375 "/></g></g></g><path fill="#2d8bba" d="M 762.375 25.707031 C 762.375 26.140625 762.332031 26.570312 762.25 26.996094 C 762.164062 27.421875 762.039062 27.832031 761.875 28.234375 C 761.707031 28.632812 761.503906 29.015625 761.265625 29.375 C 761.023438 29.734375 760.75 30.070312 760.441406 30.375 C 760.136719 30.679688 759.804688 30.953125 759.441406 31.195312 C 759.082031 31.4375 758.703125 31.640625 758.300781 31.804688 C 757.902344 31.972656 757.488281 32.097656 757.0625 32.179688 C 756.636719 32.265625 756.207031 32.308594 755.773438 32.308594 C 755.34375 32.308594 754.914062 32.265625 754.488281 32.179688 C 754.0625 32.097656 753.648438 31.972656 753.25 31.804688 C 752.847656 31.640625 752.46875 31.4375 752.109375 31.195312 C 751.746094 30.953125 751.414062 30.679688 751.109375 30.375 C 750.800781 30.070312 750.527344 29.734375 750.285156 29.375 C 750.046875 29.015625 749.84375 28.632812 749.675781 28.234375 C 749.511719 27.832031 749.386719 27.421875 749.300781 26.996094 C 749.214844 26.570312 749.175781 26.140625 749.175781 25.707031 C 749.175781 25.273438 749.214844 24.84375 749.300781 24.417969 C 749.386719 23.996094 749.511719 23.582031 749.675781 23.179688 C 749.84375 22.78125 750.046875 22.398438 750.285156 22.039062 C 750.527344 21.679688 750.800781 21.347656 751.109375 21.039062 C 751.414062 20.734375 751.746094 20.460938 752.109375 20.21875 C 752.46875 19.976562 752.847656 19.773438 753.25 19.609375 C 753.648438 19.441406 754.0625 19.316406 754.488281 19.234375 C 754.914062 19.148438 755.34375 19.105469 755.773438 19.105469 C 756.207031 19.105469 756.636719 19.148438 757.0625 19.234375 C 757.488281 19.316406 757.902344 19.441406 758.300781 19.609375 C 758.703125 19.773438 759.082031 19.976562 759.441406 20.21875 C 759.804688 20.460938 760.136719 20.734375 760.441406 21.039062 C 760.75 21.347656 761.023438 21.679688 761.265625 22.039062 C 761.503906 22.398438 761.707031 22.78125 761.875 23.179688 C 762.039062 23.582031 762.164062 23.996094 762.25 24.417969 C 762.332031 24.84375 762.375 25.273438 762.375 25.707031 Z M 762.375 25.707031 " fill-opacity="1" fill-rule="nonzero"/><g fill="#000000" fill-opacity="1"><g transform="translate(768.564645, 30.864278)"><g><path d="M 4.125 0.140625 C 3.53125 0.140625 2.992188 0.0625 2.515625 -0.09375 C 2.046875 -0.257812 1.65625 -0.472656 1.34375 -0.734375 C 1.03125 -1.003906 0.796875 -1.296875 0.640625 -1.609375 L 1.25 -2.34375 L 1.40625 -2.34375 C 1.988281 -1.351562 2.894531 -0.859375 4.125 -0.859375 C 4.832031 -0.859375 5.359375 -1.003906 5.703125 -1.296875 C 6.046875 -1.597656 6.21875 -2.015625 6.21875 -2.546875 C 6.21875 -2.859375 6.160156 -3.117188 6.046875 -3.328125 C 5.929688 -3.546875 5.742188 -3.726562 5.484375 -3.875 C 5.222656 -4.03125 4.867188 -4.164062 4.421875 -4.28125 L 3.3125 -4.546875 C 2.488281 -4.742188 1.882812 -5.054688 1.5 -5.484375 C 1.113281 -5.921875 0.921875 -6.472656 0.921875 -7.140625 C 0.921875 -7.609375 1.039062 -8.023438 1.28125 -8.390625 C 1.519531 -8.753906 1.867188 -9.039062 2.328125 -9.25 C 2.796875 -9.457031 3.351562 -9.5625 4 -9.5625 C 4.707031 -9.5625 5.304688 -9.460938 5.796875 -9.265625 C 6.285156 -9.066406 6.675781 -8.765625 6.96875 -8.359375 L 6.421875 -7.640625 L 6.265625 -7.640625 C 5.992188 -7.960938 5.671875 -8.203125 5.296875 -8.359375 C 4.929688 -8.515625 4.5 -8.59375 4 -8.59375 C 3.34375 -8.59375 2.847656 -8.460938 2.515625 -8.203125 C 2.179688 -7.953125 2.015625 -7.601562 2.015625 -7.15625 C 2.015625 -6.738281 2.132812 -6.398438 2.375 -6.140625 C 2.625 -5.890625 3.039062 -5.695312 3.625 -5.5625 L 4.75 -5.296875 C 5.664062 -5.078125 6.328125 -4.742188 6.734375 -4.296875 C 7.148438 -3.859375 7.359375 -3.289062 7.359375 -2.59375 C 7.359375 -2.0625 7.238281 -1.585938 7 -1.171875 C 6.757812 -0.765625 6.394531 -0.441406 5.90625 -0.203125 C 5.425781 0.0234375 4.832031 0.140625 4.125 0.140625 Z M 4.125 0.140625 "/></g></g><g transform="translate(776.641772, 30.864278)"><g><path d="M 6.78125 -3.3125 L 1.890625 -3.3125 C 1.921875 -2.445312 2.128906 -1.8125 2.515625 -1.40625 C 2.898438 -1.007812 3.425781 -0.8125 4.09375 -0.8125 C 4.601562 -0.8125 5.007812 -0.898438 5.3125 -1.078125 C 5.625 -1.253906 5.867188 -1.535156 6.046875 -1.921875 L 6.1875 -1.921875 L 6.859375 -1.515625 C 6.660156 -1.003906 6.332031 -0.597656 5.875 -0.296875 C 5.425781 -0.00390625 4.832031 0.140625 4.09375 0.140625 C 3.40625 0.140625 2.8125 0.00390625 2.3125 -0.265625 C 1.820312 -0.535156 1.441406 -0.945312 1.171875 -1.5 C 0.910156 -2.050781 0.78125 -2.734375 0.78125 -3.546875 C 0.78125 -4.359375 0.921875 -5.039062 1.203125 -5.59375 C 1.484375 -6.144531 1.867188 -6.554688 2.359375 -6.828125 C 2.847656 -7.109375 3.40625 -7.25 4.03125 -7.25 C 4.9375 -7.25 5.644531 -6.988281 6.15625 -6.46875 C 6.675781 -5.957031 6.9375 -5.195312 6.9375 -4.1875 C 6.9375 -3.789062 6.925781 -3.523438 6.90625 -3.390625 Z M 5.90625 -4.1875 C 5.882812 -4.945312 5.710938 -5.5 5.390625 -5.84375 C 5.078125 -6.1875 4.625 -6.359375 4.03125 -6.359375 C 3.40625 -6.359375 2.914062 -6.179688 2.5625 -5.828125 C 2.207031 -5.484375 1.992188 -4.9375 1.921875 -4.1875 Z M 5.90625 -4.1875 "/></g></g><g transform="translate(784.222539, 30.864278)"><g><path d="M 1.234375 0 L 1.234375 -7.109375 L 2.234375 -7.109375 L 2.234375 -6 L 2.375 -5.96875 C 2.707031 -6.769531 3.328125 -7.171875 4.234375 -7.171875 C 4.722656 -7.171875 5.085938 -7.082031 5.328125 -6.90625 L 5.0625 -6.015625 L 4.9375 -6 C 4.664062 -6.132812 4.375 -6.203125 4.0625 -6.203125 C 3.488281 -6.203125 3.046875 -5.988281 2.734375 -5.5625 C 2.429688 -5.132812 2.28125 -4.441406 2.28125 -3.484375 L 2.28125 0 Z M 1.234375 0 "/></g></g><g transform="translate(789.714728, 30.864278)"><g><path d="M 1.765625 -8.484375 C 1.546875 -8.484375 1.363281 -8.550781 1.21875 -8.6875 C 1.082031 -8.832031 1.015625 -9.007812 1.015625 -9.21875 C 1.015625 -9.4375 1.082031 -9.613281 1.21875 -9.75 C 1.363281 -9.894531 1.546875 -9.96875 1.765625 -9.96875 C 1.992188 -9.96875 2.175781 -9.894531 2.3125 -9.75 C 2.445312 -9.613281 2.515625 -9.4375 2.515625 -9.21875 C 2.515625 -9.007812 2.445312 -8.832031 2.3125 -8.6875 C 2.175781 -8.550781 1.992188 -8.484375 1.765625 -8.484375 Z M 1.234375 0 L 1.234375 -7.109375 L 2.28125 -7.109375 L 2.28125 0 Z M 1.234375 0 "/></g></g><g transform="translate(793.240816, 30.864278)"><g><path d="M 6.78125 -3.3125 L 1.890625 -3.3125 C 1.921875 -2.445312 2.128906 -1.8125 2.515625 -1.40625 C 2.898438 -1.007812 3.425781 -0.8125 4.09375 -0.8125 C 4.601562 -0.8125 5.007812 -0.898438 5.3125 -1.078125 C 5.625 -1.253906 5.867188 -1.535156 6.046875 -1.921875 L 6.1875 -1.921875 L 6.859375 -1.515625 C 6.660156 -1.003906 6.332031 -0.597656 5.875 -0.296875 C 5.425781 -0.00390625 4.832031 0.140625 4.09375 0.140625 C 3.40625 0.140625 2.8125 0.00390625 2.3125 -0.265625 C 1.820312 -0.535156 1.441406 -0.945312 1.171875 -1.5 C 0.910156 -2.050781 0.78125 -2.734375 0.78125 -3.546875 C 0.78125 -4.359375 0.921875 -5.039062 1.203125 -5.59375 C 1.484375 -6.144531 1.867188 -6.554688 2.359375 -6.828125 C 2.847656 -7.109375 3.40625 -7.25 4.03125 -7.25 C 4.9375 -7.25 5.644531 -6.988281 6.15625 -6.46875 C 6.675781 -5.957031 6.9375 -5.195312 6.9375 -4.1875 C 6.9375 -3.789062 6.925781 -3.523438 6.90625 -3.390625 Z M 5.90625 -4.1875 C 5.882812 -4.945312 5.710938 -5.5 5.390625 -5.84375 C 5.078125 -6.1875 4.625 -6.359375 4.03125 -6.359375 C 3.40625 -6.359375 2.914062 -6.179688 2.5625 -5.828125 C 2.207031 -5.484375 1.992188 -4.9375 1.921875 -4.1875 Z M 5.90625 -4.1875 "/></g></g><g transform="translate(800.821583, 30.864278)"><g><path d="M 3.25 0.140625 C 2.800781 0.140625 2.382812 0.0820312 2 -0.03125 C 1.625 -0.15625 1.300781 -0.320312 1.03125 -0.53125 C 0.769531 -0.738281 0.585938 -0.96875 0.484375 -1.21875 L 1.109375 -1.875 L 1.234375 -1.875 C 1.460938 -1.519531 1.738281 -1.253906 2.0625 -1.078125 C 2.394531 -0.898438 2.789062 -0.8125 3.25 -0.8125 C 3.769531 -0.8125 4.164062 -0.910156 4.4375 -1.109375 C 4.707031 -1.316406 4.84375 -1.601562 4.84375 -1.96875 C 4.84375 -2.25 4.757812 -2.476562 4.59375 -2.65625 C 4.4375 -2.84375 4.171875 -2.976562 3.796875 -3.0625 L 2.59375 -3.359375 C 1.957031 -3.515625 1.488281 -3.757812 1.1875 -4.09375 C 0.894531 -4.4375 0.75 -4.851562 0.75 -5.34375 C 0.75 -5.726562 0.847656 -6.0625 1.046875 -6.34375 C 1.242188 -6.632812 1.53125 -6.859375 1.90625 -7.015625 C 2.28125 -7.171875 2.722656 -7.25 3.234375 -7.25 C 3.878906 -7.25 4.390625 -7.15625 4.765625 -6.96875 C 5.148438 -6.789062 5.445312 -6.535156 5.65625 -6.203125 L 5.0625 -5.625 L 4.9375 -5.625 C 4.707031 -5.882812 4.457031 -6.070312 4.1875 -6.1875 C 3.914062 -6.3125 3.597656 -6.375 3.234375 -6.375 C 2.765625 -6.375 2.40625 -6.285156 2.15625 -6.109375 C 1.90625 -5.941406 1.78125 -5.703125 1.78125 -5.390625 C 1.78125 -5.097656 1.867188 -4.863281 2.046875 -4.6875 C 2.222656 -4.507812 2.53125 -4.367188 2.96875 -4.265625 L 4.140625 -3.984375 C 4.765625 -3.835938 5.210938 -3.59375 5.484375 -3.25 C 5.765625 -2.914062 5.90625 -2.492188 5.90625 -1.984375 C 5.90625 -1.566406 5.804688 -1.195312 5.609375 -0.875 C 5.410156 -0.5625 5.109375 -0.3125 4.703125 -0.125 C 4.304688 0.0507812 3.820312 0.140625 3.25 0.140625 Z M 3.25 0.140625 "/></g></g><g transform="translate(807.396739, 30.864278)"><g/></g><g transform="translate(810.632747, 30.864278)"><g><path d="M 3.734375 0.140625 C 2.816406 0.140625 2.085938 -0.0664062 1.546875 -0.484375 C 1.015625 -0.898438 0.671875 -1.472656 0.515625 -2.203125 L 1.328125 -2.578125 L 1.484375 -2.546875 C 1.648438 -1.984375 1.898438 -1.5625 2.234375 -1.28125 C 2.578125 -1 3.078125 -0.859375 3.734375 -0.859375 C 4.398438 -0.859375 4.90625 -1.007812 5.25 -1.3125 C 5.601562 -1.625 5.78125 -2.078125 5.78125 -2.671875 C 5.78125 -3.253906 5.601562 -3.695312 5.25 -4 C 4.894531 -4.300781 4.335938 -4.453125 3.578125 -4.453125 L 2.546875 -4.453125 L 2.546875 -5.375 L 3.46875 -5.375 C 4.0625 -5.375 4.53125 -5.519531 4.875 -5.8125 C 5.226562 -6.101562 5.40625 -6.519531 5.40625 -7.0625 C 5.40625 -7.570312 5.253906 -7.953125 4.953125 -8.203125 C 4.648438 -8.460938 4.222656 -8.59375 3.671875 -8.59375 C 2.722656 -8.59375 2.046875 -8.210938 1.640625 -7.453125 L 1.5 -7.4375 L 0.875 -8.109375 C 1.125 -8.546875 1.488281 -8.894531 1.96875 -9.15625 C 2.445312 -9.425781 3.015625 -9.5625 3.671875 -9.5625 C 4.273438 -9.5625 4.785156 -9.46875 5.203125 -9.28125 C 5.628906 -9.09375 5.953125 -8.820312 6.171875 -8.46875 C 6.390625 -8.113281 6.5 -7.691406 6.5 -7.203125 C 6.5 -6.742188 6.363281 -6.335938 6.09375 -5.984375 C 5.832031 -5.628906 5.476562 -5.351562 5.03125 -5.15625 L 5.03125 -5.015625 C 5.65625 -4.867188 6.125 -4.585938 6.4375 -4.171875 C 6.75 -3.765625 6.90625 -3.265625 6.90625 -2.671875 C 6.90625 -1.773438 6.640625 -1.082031 6.109375 -0.59375 C 5.578125 -0.101562 4.785156 0.140625 3.734375 0.140625 Z M 3.734375 0.140625 "/></g></g></g><g clip-path="url(#fa64c23dd6)"><path stroke-linecap="butt" transform="matrix(0.412559, 0, 0, 0.412559, 61.397279, 49.470678)" fill="none" stroke-linejoin="miter" d="M 0.00280891 810.003047 L 0.00280891 -0.00467233 " stroke="#000000" stroke-width="1" stroke-opacity="0.6" stroke-miterlimit="4"/></g><g clip-path="url(#06cf7ce792)"><path stroke-linecap="butt" transform="matrix(0.412559, 0, 0, 0.412559, 61.397279, 49.470678)" fill="none" stroke-linejoin="miter" d="M 613.580177 810.003047 L 613.580177 -0.00467233 " stroke="#000000" stroke-width="1" stroke-opacity="0.251" stroke-miterlimit="4"/></g><g clip-path="url(#5af1cf2d3b)"><path stroke-linecap="butt" transform="matrix(0.412559, 0, 0, 0.412559, 61.397279, 49.470678)" fill="none" stroke-linejoin="miter" d="M 1227.157544 810.003047 L 1227.157544 -0.00467233 " stroke="#000000" stroke-width="1" stroke-opacity="0.251" stroke-miterlimit="4"/></g><g clip-path="url(#f57a4ff5c2)"><path stroke-linecap="butt" transform="matrix(0.412559, 0, 0, 0.412559, 61.397279, 49.470678)" fill="none" stroke-linejoin="miter" d="M 1840.74438 810.003047 L 1840.74438 -0.00467233 " stroke="#000000" stroke-width="1" stroke-opacity="0.251" stroke-miterlimit="4"/></g><g clip-path="url(#6e8da8e186)"><path stroke-linecap="butt" transform="matrix(0.412559, 0, 0, 0.412559, 61.397279, 49.470678)" fill="none" stroke-linejoin="miter" d="M 2454.321748 810.003047 L 2454.321748 -0.00467233 " stroke="#000000" stroke-width="1" stroke-opacity="0.251" stroke-miterlimit="4"/></g><g clip-path="url(#859236ac3a)"><path stroke-linecap="butt" transform="matrix(0.412559, 0, 0, 0.412559, 61.397279, 49.470678)" fill="none" stroke-linejoin="miter" d="M 3067.899115 810.003047 L 3067.899115 -0.00467233 " stroke="#000000" stroke-width="1" stroke-opacity="0.251" stroke-miterlimit="4"/></g><g clip-path="url(#6ff786b6eb)"><g fill="#000000" fill-opacity="1"><g transform="translate(56.652852, 399.733037)"><g><path d="M 4.640625 0.140625 C 3.941406 0.140625 3.316406 -0.0234375 2.765625 -0.359375 C 2.222656 -0.691406 1.785156 -1.21875 1.453125 -1.9375 C 1.128906 -2.664062 0.96875 -3.59375 0.96875 -4.71875 C 0.96875 -5.832031 1.128906 -6.75 1.453125 -7.46875 C 1.785156 -8.195312 2.222656 -8.726562 2.765625 -9.0625 C 3.316406 -9.394531 3.941406 -9.5625 4.640625 -9.5625 C 5.328125 -9.5625 5.945312 -9.394531 6.5 -9.0625 C 7.050781 -8.726562 7.488281 -8.195312 7.8125 -7.46875 C 8.132812 -6.75 8.296875 -5.832031 8.296875 -4.71875 C 8.296875 -3.59375 8.132812 -2.664062 7.8125 -1.9375 C 7.488281 -1.21875 7.050781 -0.691406 6.5 -0.359375 C 5.945312 -0.0234375 5.328125 0.140625 4.640625 0.140625 Z M 4.640625 -0.890625 C 5.453125 -0.890625 6.070312 -1.179688 6.5 -1.765625 C 6.925781 -2.359375 7.140625 -3.34375 7.140625 -4.71875 C 7.140625 -6.082031 6.925781 -7.054688 6.5 -7.640625 C 6.070312 -8.234375 5.453125 -8.53125 4.640625 -8.53125 C 4.097656 -8.53125 3.640625 -8.40625 3.265625 -8.15625 C 2.898438 -7.90625 2.617188 -7.5 2.421875 -6.9375 C 2.222656 -6.375 2.125 -5.632812 2.125 -4.71875 C 2.125 -3.789062 2.222656 -3.046875 2.421875 -2.484375 C 2.617188 -1.921875 2.898438 -1.515625 3.265625 -1.265625 C 3.640625 -1.015625 4.097656 -0.890625 4.640625 -0.890625 Z M 4.640625 -0.890625 "/></g></g></g></g><g clip-path="url(#55fc183b18)"><g fill="#000000" fill-opacity="1"><g transform="translate(306.606194, 399.733037)"><g><path d="M 0.671875 0 L 0.671875 -0.921875 L 3.25 -0.921875 L 3.25 -8.125 L 3.09375 -8.15625 C 2.675781 -7.957031 2.3125 -7.800781 2 -7.6875 C 1.6875 -7.582031 1.285156 -7.476562 0.796875 -7.375 L 0.796875 -8.390625 C 1.273438 -8.492188 1.753906 -8.632812 2.234375 -8.8125 C 2.710938 -8.988281 3.144531 -9.191406 3.53125 -9.421875 L 4.328125 -9.421875 L 4.328125 -0.921875 L 6.625 -0.921875 L 6.625 0 Z M 0.671875 0 "/></g></g></g></g><g clip-path="url(#8650167af4)"><g fill="#000000" fill-opacity="1"><g transform="translate(313.387628, 399.733037)"><g><path d="M 4.640625 0.140625 C 3.941406 0.140625 3.316406 -0.0234375 2.765625 -0.359375 C 2.222656 -0.691406 1.785156 -1.21875 1.453125 -1.9375 C 1.128906 -2.664062 0.96875 -3.59375 0.96875 -4.71875 C 0.96875 -5.832031 1.128906 -6.75 1.453125 -7.46875 C 1.785156 -8.195312 2.222656 -8.726562 2.765625 -9.0625 C 3.316406 -9.394531 3.941406 -9.5625 4.640625 -9.5625 C 5.328125 -9.5625 5.945312 -9.394531 6.5 -9.0625 C 7.050781 -8.726562 7.488281 -8.195312 7.8125 -7.46875 C 8.132812 -6.75 8.296875 -5.832031 8.296875 -4.71875 C 8.296875 -3.59375 8.132812 -2.664062 7.8125 -1.9375 C 7.488281 -1.21875 7.050781 -0.691406 6.5 -0.359375 C 5.945312 -0.0234375 5.328125 0.140625 4.640625 0.140625 Z M 4.640625 -0.890625 C 5.453125 -0.890625 6.070312 -1.179688 6.5 -1.765625 C 6.925781 -2.359375 7.140625 -3.34375 7.140625 -4.71875 C 7.140625 -6.082031 6.925781 -7.054688 6.5 -7.640625 C 6.070312 -8.234375 5.453125 -8.53125 4.640625 -8.53125 C 4.097656 -8.53125 3.640625 -8.40625 3.265625 -8.15625 C 2.898438 -7.90625 2.617188 -7.5 2.421875 -6.9375 C 2.222656 -6.375 2.125 -5.632812 2.125 -4.71875 C 2.125 -3.789062 2.222656 -3.046875 2.421875 -2.484375 C 2.617188 -1.921875 2.898438 -1.515625 3.265625 -1.265625 C 3.640625 -1.015625 4.097656 -0.890625 4.640625 -0.890625 Z M 4.640625 -0.890625 "/></g></g></g></g><g clip-path="url(#dea6dfe5e0)"><g fill="#000000" fill-opacity="1"><g transform="translate(559.511904, 399.733037)"><g><path d="M 0.5625 -0.4375 C 0.5625 -0.957031 0.617188 -1.375 0.734375 -1.6875 C 0.847656 -2.007812 1.039062 -2.304688 1.3125 -2.578125 C 1.59375 -2.847656 2.035156 -3.207031 2.640625 -3.65625 L 3.671875 -4.40625 C 4.054688 -4.6875 4.367188 -4.941406 4.609375 -5.171875 C 4.847656 -5.410156 5.035156 -5.664062 5.171875 -5.9375 C 5.316406 -6.21875 5.390625 -6.53125 5.390625 -6.875 C 5.390625 -7.4375 5.238281 -7.859375 4.9375 -8.140625 C 4.644531 -8.421875 4.179688 -8.5625 3.546875 -8.5625 C 3.046875 -8.5625 2.601562 -8.445312 2.21875 -8.21875 C 1.832031 -7.988281 1.523438 -7.660156 1.296875 -7.234375 L 1.140625 -7.203125 L 0.484375 -7.90625 C 0.796875 -8.414062 1.210938 -8.816406 1.734375 -9.109375 C 2.253906 -9.410156 2.859375 -9.5625 3.546875 -9.5625 C 4.222656 -9.5625 4.78125 -9.445312 5.21875 -9.21875 C 5.664062 -8.988281 5.992188 -8.671875 6.203125 -8.265625 C 6.410156 -7.867188 6.515625 -7.40625 6.515625 -6.875 C 6.515625 -6.457031 6.425781 -6.066406 6.25 -5.703125 C 6.070312 -5.335938 5.820312 -4.992188 5.5 -4.671875 C 5.175781 -4.347656 4.773438 -4.007812 4.296875 -3.65625 L 3.25 -2.875 C 2.851562 -2.59375 2.550781 -2.347656 2.34375 -2.140625 C 2.132812 -1.941406 1.976562 -1.742188 1.875 -1.546875 C 1.78125 -1.359375 1.734375 -1.148438 1.734375 -0.921875 L 6.515625 -0.921875 L 6.515625 0 L 0.5625 0 Z M 0.5625 -0.4375 "/></g></g><g transform="translate(566.757467, 399.733037)"><g><path d="M 4.640625 0.140625 C 3.941406 0.140625 3.316406 -0.0234375 2.765625 -0.359375 C 2.222656 -0.691406 1.785156 -1.21875 1.453125 -1.9375 C 1.128906 -2.664062 0.96875 -3.59375 0.96875 -4.71875 C 0.96875 -5.832031 1.128906 -6.75 1.453125 -7.46875 C 1.785156 -8.195312 2.222656 -8.726562 2.765625 -9.0625 C 3.316406 -9.394531 3.941406 -9.5625 4.640625 -9.5625 C 5.328125 -9.5625 5.945312 -9.394531 6.5 -9.0625 C 7.050781 -8.726562 7.488281 -8.195312 7.8125 -7.46875 C 8.132812 -6.75 8.296875 -5.832031 8.296875 -4.71875 C 8.296875 -3.59375 8.132812 -2.664062 7.8125 -1.9375 C 7.488281 -1.21875 7.050781 -0.691406 6.5 -0.359375 C 5.945312 -0.0234375 5.328125 0.140625 4.640625 0.140625 Z M 4.640625 -0.890625 C 5.453125 -0.890625 6.070312 -1.179688 6.5 -1.765625 C 6.925781 -2.359375 7.140625 -3.34375 7.140625 -4.71875 C 7.140625 -6.082031 6.925781 -7.054688 6.5 -7.640625 C 6.070312 -8.234375 5.453125 -8.53125 4.640625 -8.53125 C 4.097656 -8.53125 3.640625 -8.40625 3.265625 -8.15625 C 2.898438 -7.90625 2.617188 -7.5 2.421875 -6.9375 C 2.222656 -6.375 2.125 -5.632812 2.125 -4.71875 C 2.125 -3.789062 2.222656 -3.046875 2.421875 -2.484375 C 2.617188 -1.921875 2.898438 -1.515625 3.265625 -1.265625 C 3.640625 -1.015625 4.097656 -0.890625 4.640625 -0.890625 Z M 4.640625 -0.890625 "/></g></g></g></g><g clip-path="url(#e844c82f69)"><g fill="#000000" fill-opacity="1"><g transform="translate(812.44342, 399.733037)"><g><path d="M 3.734375 0.140625 C 2.816406 0.140625 2.085938 -0.0664062 1.546875 -0.484375 C 1.015625 -0.898438 0.671875 -1.472656 0.515625 -2.203125 L 1.328125 -2.578125 L 1.484375 -2.546875 C 1.648438 -1.984375 1.898438 -1.5625 2.234375 -1.28125 C 2.578125 -1 3.078125 -0.859375 3.734375 -0.859375 C 4.398438 -0.859375 4.90625 -1.007812 5.25 -1.3125 C 5.601562 -1.625 5.78125 -2.078125 5.78125 -2.671875 C 5.78125 -3.253906 5.601562 -3.695312 5.25 -4 C 4.894531 -4.300781 4.335938 -4.453125 3.578125 -4.453125 L 2.546875 -4.453125 L 2.546875 -5.375 L 3.46875 -5.375 C 4.0625 -5.375 4.53125 -5.519531 4.875 -5.8125 C 5.226562 -6.101562 5.40625 -6.519531 5.40625 -7.0625 C 5.40625 -7.570312 5.253906 -7.953125 4.953125 -8.203125 C 4.648438 -8.460938 4.222656 -8.59375 3.671875 -8.59375 C 2.722656 -8.59375 2.046875 -8.210938 1.640625 -7.453125 L 1.5 -7.4375 L 0.875 -8.109375 C 1.125 -8.546875 1.488281 -8.894531 1.96875 -9.15625 C 2.445312 -9.425781 3.015625 -9.5625 3.671875 -9.5625 C 4.273438 -9.5625 4.785156 -9.46875 5.203125 -9.28125 C 5.628906 -9.09375 5.953125 -8.820312 6.171875 -8.46875 C 6.390625 -8.113281 6.5 -7.691406 6.5 -7.203125 C 6.5 -6.742188 6.363281 -6.335938 6.09375 -5.984375 C 5.832031 -5.628906 5.476562 -5.351562 5.03125 -5.15625 L 5.03125 -5.015625 C 5.65625 -4.867188 6.125 -4.585938 6.4375 -4.171875 C 6.75 -3.765625 6.90625 -3.265625 6.90625 -2.671875 C 6.90625 -1.773438 6.640625 -1.082031 6.109375 -0.59375 C 5.578125 -0.101562 4.785156 0.140625 3.734375 0.140625 Z M 3.734375 0.140625 "/></g></g><g transform="translate(820.101542, 399.733037)"><g><path d="M 4.640625 0.140625 C 3.941406 0.140625 3.316406 -0.0234375 2.765625 -0.359375 C 2.222656 -0.691406 1.785156 -1.21875 1.453125 -1.9375 C 1.128906 -2.664062 0.96875 -3.59375 0.96875 -4.71875 C 0.96875 -5.832031 1.128906 -6.75 1.453125 -7.46875 C 1.785156 -8.195312 2.222656 -8.726562 2.765625 -9.0625 C 3.316406 -9.394531 3.941406 -9.5625 4.640625 -9.5625 C 5.328125 -9.5625 5.945312 -9.394531 6.5 -9.0625 C 7.050781 -8.726562 7.488281 -8.195312 7.8125 -7.46875 C 8.132812 -6.75 8.296875 -5.832031 8.296875 -4.71875 C 8.296875 -3.59375 8.132812 -2.664062 7.8125 -1.9375 C 7.488281 -1.21875 7.050781 -0.691406 6.5 -0.359375 C 5.945312 -0.0234375 5.328125 0.140625 4.640625 0.140625 Z M 4.640625 -0.890625 C 5.453125 -0.890625 6.070312 -1.179688 6.5 -1.765625 C 6.925781 -2.359375 7.140625 -3.34375 7.140625 -4.71875 C 7.140625 -6.082031 6.925781 -7.054688 6.5 -7.640625 C 6.070312 -8.234375 5.453125 -8.53125 4.640625 -8.53125 C 4.097656 -8.53125 3.640625 -8.40625 3.265625 -8.15625 C 2.898438 -7.90625 2.617188 -7.5 2.421875 -6.9375 C 2.222656 -6.375 2.125 -5.632812 2.125 -4.71875 C 2.125 -3.789062 2.222656 -3.046875 2.421875 -2.484375 C 2.617188 -1.921875 2.898438 -1.515625 3.265625 -1.265625 C 3.640625 -1.015625 4.097656 -0.890625 4.640625 -0.890625 Z M 4.640625 -0.890625 "/></g></g></g></g><g clip-path="url(#6b266d97c5)"><g fill="#000000" fill-opacity="1"><g transform="translate(1065.420036, 399.733037)"><g><path d="M 5.90625 0 L 4.84375 0 L 4.84375 -2.25 L 0.4375 -2.25 L 0.4375 -3.140625 L 4.59375 -9.421875 L 5.90625 -9.421875 L 5.90625 -3.140625 L 7.53125 -3.140625 L 7.53125 -2.25 L 5.90625 -2.25 Z M 1.734375 -3.28125 L 1.796875 -3.140625 L 4.84375 -3.140625 L 4.84375 -7.890625 L 4.703125 -7.921875 Z M 1.734375 -3.28125 "/></g></g><g transform="translate(1073.406916, 399.733037)"><g><path d="M 4.640625 0.140625 C 3.941406 0.140625 3.316406 -0.0234375 2.765625 -0.359375 C 2.222656 -0.691406 1.785156 -1.21875 1.453125 -1.9375 C 1.128906 -2.664062 0.96875 -3.59375 0.96875 -4.71875 C 0.96875 -5.832031 1.128906 -6.75 1.453125 -7.46875 C 1.785156 -8.195312 2.222656 -8.726562 2.765625 -9.0625 C 3.316406 -9.394531 3.941406 -9.5625 4.640625 -9.5625 C 5.328125 -9.5625 5.945312 -9.394531 6.5 -9.0625 C 7.050781 -8.726562 7.488281 -8.195312 7.8125 -7.46875 C 8.132812 -6.75 8.296875 -5.832031 8.296875 -4.71875 C 8.296875 -3.59375 8.132812 -2.664062 7.8125 -1.9375 C 7.488281 -1.21875 7.050781 -0.691406 6.5 -0.359375 C 5.945312 -0.0234375 5.328125 0.140625 4.640625 0.140625 Z M 4.640625 -0.890625 C 5.453125 -0.890625 6.070312 -1.179688 6.5 -1.765625 C 6.925781 -2.359375 7.140625 -3.34375 7.140625 -4.71875 C 7.140625 -6.082031 6.925781 -7.054688 6.5 -7.640625 C 6.070312 -8.234375 5.453125 -8.53125 4.640625 -8.53125 C 4.097656 -8.53125 3.640625 -8.40625 3.265625 -8.15625 C 2.898438 -7.90625 2.617188 -7.5 2.421875 -6.9375 C 2.222656 -6.375 2.125 -5.632812 2.125 -4.71875 C 2.125 -3.789062 2.222656 -3.046875 2.421875 -2.484375 C 2.617188 -1.921875 2.898438 -1.515625 3.265625 -1.265625 C 3.640625 -1.015625 4.097656 -0.890625 4.640625 -0.890625 Z M 4.640625 -0.890625 "/></g></g></g></g><g clip-path="url(#1674944d8e)"><g fill="#000000" fill-opacity="1"><g transform="translate(1318.648007, 399.733037)"><g><path d="M 3.875 0.140625 C 3 0.140625 2.296875 -0.0507812 1.765625 -0.4375 C 1.242188 -0.832031 0.898438 -1.390625 0.734375 -2.109375 L 1.5625 -2.484375 L 1.703125 -2.46875 C 1.816406 -2.101562 1.957031 -1.800781 2.125 -1.5625 C 2.300781 -1.332031 2.53125 -1.15625 2.8125 -1.03125 C 3.101562 -0.914062 3.457031 -0.859375 3.875 -0.859375 C 4.507812 -0.859375 5.003906 -1.046875 5.359375 -1.421875 C 5.722656 -1.804688 5.90625 -2.363281 5.90625 -3.09375 C 5.90625 -3.832031 5.726562 -4.394531 5.375 -4.78125 C 5.03125 -5.164062 4.550781 -5.359375 3.9375 -5.359375 C 3.46875 -5.359375 3.085938 -5.265625 2.796875 -5.078125 C 2.503906 -4.890625 2.242188 -4.597656 2.015625 -4.203125 L 1.125 -4.28125 L 1.3125 -9.421875 L 6.59375 -9.421875 L 6.59375 -8.484375 L 2.28125 -8.484375 L 2.171875 -5.359375 L 2.296875 -5.328125 C 2.523438 -5.660156 2.796875 -5.90625 3.109375 -6.0625 C 3.429688 -6.226562 3.816406 -6.3125 4.265625 -6.3125 C 4.828125 -6.3125 5.316406 -6.179688 5.734375 -5.921875 C 6.160156 -5.671875 6.488281 -5.304688 6.71875 -4.828125 C 6.945312 -4.347656 7.0625 -3.769531 7.0625 -3.09375 C 7.0625 -2.425781 6.925781 -1.847656 6.65625 -1.359375 C 6.394531 -0.867188 6.023438 -0.492188 5.546875 -0.234375 C 5.066406 0.015625 4.507812 0.140625 3.875 0.140625 Z M 3.875 0.140625 "/></g></g><g transform="translate(1326.447946, 399.733037)"><g><path d="M 4.640625 0.140625 C 3.941406 0.140625 3.316406 -0.0234375 2.765625 -0.359375 C 2.222656 -0.691406 1.785156 -1.21875 1.453125 -1.9375 C 1.128906 -2.664062 0.96875 -3.59375 0.96875 -4.71875 C 0.96875 -5.832031 1.128906 -6.75 1.453125 -7.46875 C 1.785156 -8.195312 2.222656 -8.726562 2.765625 -9.0625 C 3.316406 -9.394531 3.941406 -9.5625 4.640625 -9.5625 C 5.328125 -9.5625 5.945312 -9.394531 6.5 -9.0625 C 7.050781 -8.726562 7.488281 -8.195312 7.8125 -7.46875 C 8.132812 -6.75 8.296875 -5.832031 8.296875 -4.71875 C 8.296875 -3.59375 8.132812 -2.664062 7.8125 -1.9375 C 7.488281 -1.21875 7.050781 -0.691406 6.5 -0.359375 C 5.945312 -0.0234375 5.328125 0.140625 4.640625 0.140625 Z M 4.640625 -0.890625 C 5.453125 -0.890625 6.070312 -1.179688 6.5 -1.765625 C 6.925781 -2.359375 7.140625 -3.34375 7.140625 -4.71875 C 7.140625 -6.082031 6.925781 -7.054688 6.5 -7.640625 C 6.070312 -8.234375 5.453125 -8.53125 4.640625 -8.53125 C 4.097656 -8.53125 3.640625 -8.40625 3.265625 -8.15625 C 2.898438 -7.90625 2.617188 -7.5 2.421875 -6.9375 C 2.222656 -6.375 2.125 -5.632812 2.125 -4.71875 C 2.125 -3.789062 2.222656 -3.046875 2.421875 -2.484375 C 2.617188 -1.921875 2.898438 -1.515625 3.265625 -1.265625 C 3.640625 -1.015625 4.097656 -0.890625 4.640625 -0.890625 Z M 4.640625 -0.890625 "/></g></g></g></g><g fill="#000000" fill-opacity="1"><g transform="translate(12.315676, 92.773478)"><g><path d="M 2.53125 0 L 1.421875 0 L 1.421875 -9.421875 L 2.53125 -9.421875 Z M 2.53125 0 "/></g></g><g transform="translate(16.280108, 92.773478)"><g><path d="M 4.8125 -1.125 L 5.140625 -0.375 C 4.972656 -0.207031 4.753906 -0.0820312 4.484375 0 C 4.210938 0.09375 3.914062 0.140625 3.59375 0.140625 C 2.238281 0.140625 1.5625 -0.546875 1.5625 -1.921875 L 1.5625 -6.25 L 0.328125 -6.25 L 0.328125 -7.125 L 1.5625 -7.125 L 1.5625 -8.625 L 2.609375 -8.796875 L 2.609375 -7.125 L 4.90625 -7.125 L 4.90625 -6.25 L 2.609375 -6.25 L 2.609375 -2.03125 C 2.609375 -1.21875 2.960938 -0.8125 3.671875 -0.8125 C 4.054688 -0.8125 4.390625 -0.914062 4.671875 -1.125 Z M 4.8125 -1.125 "/></g></g></g><g fill="#000000" fill-opacity="1"><g transform="translate(21.61114, 92.773478)"><g><path d="M 6.78125 -3.3125 L 1.890625 -3.3125 C 1.921875 -2.445312 2.128906 -1.8125 2.515625 -1.40625 C 2.898438 -1.007812 3.425781 -0.8125 4.09375 -0.8125 C 4.601562 -0.8125 5.007812 -0.898438 5.3125 -1.078125 C 5.625 -1.253906 5.867188 -1.535156 6.046875 -1.921875 L 6.1875 -1.921875 L 6.859375 -1.515625 C 6.660156 -1.003906 6.332031 -0.597656 5.875 -0.296875 C 5.425781 -0.00390625 4.832031 0.140625 4.09375 0.140625 C 3.40625 0.140625 2.8125 0.00390625 2.3125 -0.265625 C 1.820312 -0.535156 1.441406 -0.945312 1.171875 -1.5 C 0.910156 -2.050781 0.78125 -2.734375 0.78125 -3.546875 C 0.78125 -4.359375 0.921875 -5.039062 1.203125 -5.59375 C 1.484375 -6.144531 1.867188 -6.554688 2.359375 -6.828125 C 2.847656 -7.109375 3.40625 -7.25 4.03125 -7.25 C 4.9375 -7.25 5.644531 -6.988281 6.15625 -6.46875 C 6.675781 -5.957031 6.9375 -5.195312 6.9375 -4.1875 C 6.9375 -3.789062 6.925781 -3.523438 6.90625 -3.390625 Z M 5.90625 -4.1875 C 5.882812 -4.945312 5.710938 -5.5 5.390625 -5.84375 C 5.078125 -6.1875 4.625 -6.359375 4.03125 -6.359375 C 3.40625 -6.359375 2.914062 -6.179688 2.5625 -5.828125 C 2.207031 -5.484375 1.992188 -4.9375 1.921875 -4.1875 Z M 5.90625 -4.1875 "/></g></g><g transform="translate(29.191908, 92.773478)"><g><path d="M 1.234375 0 L 1.234375 -7.109375 L 2.234375 -7.109375 L 2.234375 -6.0625 L 2.375 -6.03125 C 2.613281 -6.4375 2.90625 -6.738281 3.25 -6.9375 C 3.59375 -7.144531 4 -7.25 4.46875 -7.25 C 5.019531 -7.25 5.445312 -7.144531 5.75 -6.9375 C 6.050781 -6.726562 6.285156 -6.390625 6.453125 -5.921875 L 6.59375 -5.921875 C 6.832031 -6.359375 7.128906 -6.6875 7.484375 -6.90625 C 7.847656 -7.132812 8.289062 -7.25 8.8125 -7.25 C 9.550781 -7.25 10.097656 -7.050781 10.453125 -6.65625 C 10.804688 -6.257812 10.984375 -5.65625 10.984375 -4.84375 L 10.984375 0 L 9.9375 0 L 9.9375 -4.828125 C 9.9375 -5.335938 9.828125 -5.710938 9.609375 -5.953125 C 9.398438 -6.203125 9.050781 -6.328125 8.5625 -6.328125 C 8 -6.328125 7.535156 -6.117188 7.171875 -5.703125 C 6.816406 -5.296875 6.640625 -4.617188 6.640625 -3.671875 L 6.640625 0 L 5.59375 0 L 5.59375 -4.828125 C 5.59375 -5.335938 5.484375 -5.710938 5.265625 -5.953125 C 5.046875 -6.203125 4.695312 -6.328125 4.21875 -6.328125 C 3.644531 -6.328125 3.175781 -6.125 2.8125 -5.71875 C 2.457031 -5.320312 2.28125 -4.675781 2.28125 -3.78125 L 2.28125 0 Z M 1.234375 0 "/></g></g><g transform="translate(41.310821, 92.773478)"><g/></g><g transform="translate(44.546829, 92.773478)"><g><path d="M 0.671875 0 L 0.671875 -0.921875 L 3.25 -0.921875 L 3.25 -8.125 L 3.09375 -8.15625 C 2.675781 -7.957031 2.3125 -7.800781 2 -7.6875 C 1.6875 -7.582031 1.285156 -7.476562 0.796875 -7.375 L 0.796875 -8.390625 C 1.273438 -8.492188 1.753906 -8.632812 2.234375 -8.8125 C 2.710938 -8.988281 3.144531 -9.191406 3.53125 -9.421875 L 4.328125 -9.421875 L 4.328125 -0.921875 L 6.625 -0.921875 L 6.625 0 Z M 0.671875 0 "/></g></g></g><g fill="#000000" fill-opacity="1"><g transform="translate(12.728238, 178.45876)"><g><path d="M 2.53125 0 L 1.421875 0 L 1.421875 -9.421875 L 2.53125 -9.421875 Z M 2.53125 0 "/></g></g><g transform="translate(16.69267, 178.45876)"><g><path d="M 4.8125 -1.125 L 5.140625 -0.375 C 4.972656 -0.207031 4.753906 -0.0820312 4.484375 0 C 4.210938 0.09375 3.914062 0.140625 3.59375 0.140625 C 2.238281 0.140625 1.5625 -0.546875 1.5625 -1.921875 L 1.5625 -6.25 L 0.328125 -6.25 L 0.328125 -7.125 L 1.5625 -7.125 L 1.5625 -8.625 L 2.609375 -8.796875 L 2.609375 -7.125 L 4.90625 -7.125 L 4.90625 -6.25 L 2.609375 -6.25 L 2.609375 -2.03125 C 2.609375 -1.21875 2.960938 -0.8125 3.671875 -0.8125 C 4.054688 -0.8125 4.390625 -0.914062 4.671875 -1.125 Z M 4.8125 -1.125 "/></g></g></g><g fill="#000000" fill-opacity="1"><g transform="translate(22.023703, 178.45876)"><g><path d="M 6.78125 -3.3125 L 1.890625 -3.3125 C 1.921875 -2.445312 2.128906 -1.8125 2.515625 -1.40625 C 2.898438 -1.007812 3.425781 -0.8125 4.09375 -0.8125 C 4.601562 -0.8125 5.007812 -0.898438 5.3125 -1.078125 C 5.625 -1.253906 5.867188 -1.535156 6.046875 -1.921875 L 6.1875 -1.921875 L 6.859375 -1.515625 C 6.660156 -1.003906 6.332031 -0.597656 5.875 -0.296875 C 5.425781 -0.00390625 4.832031 0.140625 4.09375 0.140625 C 3.40625 0.140625 2.8125 0.00390625 2.3125 -0.265625 C 1.820312 -0.535156 1.441406 -0.945312 1.171875 -1.5 C 0.910156 -2.050781 0.78125 -2.734375 0.78125 -3.546875 C 0.78125 -4.359375 0.921875 -5.039062 1.203125 -5.59375 C 1.484375 -6.144531 1.867188 -6.554688 2.359375 -6.828125 C 2.847656 -7.109375 3.40625 -7.25 4.03125 -7.25 C 4.9375 -7.25 5.644531 -6.988281 6.15625 -6.46875 C 6.675781 -5.957031 6.9375 -5.195312 6.9375 -4.1875 C 6.9375 -3.789062 6.925781 -3.523438 6.90625 -3.390625 Z M 5.90625 -4.1875 C 5.882812 -4.945312 5.710938 -5.5 5.390625 -5.84375 C 5.078125 -6.1875 4.625 -6.359375 4.03125 -6.359375 C 3.40625 -6.359375 2.914062 -6.179688 2.5625 -5.828125 C 2.207031 -5.484375 1.992188 -4.9375 1.921875 -4.1875 Z M 5.90625 -4.1875 "/></g></g><g transform="translate(29.60447, 178.45876)"><g><path d="M 1.234375 0 L 1.234375 -7.109375 L 2.234375 -7.109375 L 2.234375 -6.0625 L 2.375 -6.03125 C 2.613281 -6.4375 2.90625 -6.738281 3.25 -6.9375 C 3.59375 -7.144531 4 -7.25 4.46875 -7.25 C 5.019531 -7.25 5.445312 -7.144531 5.75 -6.9375 C 6.050781 -6.726562 6.285156 -6.390625 6.453125 -5.921875 L 6.59375 -5.921875 C 6.832031 -6.359375 7.128906 -6.6875 7.484375 -6.90625 C 7.847656 -7.132812 8.289062 -7.25 8.8125 -7.25 C 9.550781 -7.25 10.097656 -7.050781 10.453125 -6.65625 C 10.804688 -6.257812 10.984375 -5.65625 10.984375 -4.84375 L 10.984375 0 L 9.9375 0 L 9.9375 -4.828125 C 9.9375 -5.335938 9.828125 -5.710938 9.609375 -5.953125 C 9.398438 -6.203125 9.050781 -6.328125 8.5625 -6.328125 C 8 -6.328125 7.535156 -6.117188 7.171875 -5.703125 C 6.816406 -5.296875 6.640625 -4.617188 6.640625 -3.671875 L 6.640625 0 L 5.59375 0 L 5.59375 -4.828125 C 5.59375 -5.335938 5.484375 -5.710938 5.265625 -5.953125 C 5.046875 -6.203125 4.695312 -6.328125 4.21875 -6.328125 C 3.644531 -6.328125 3.175781 -6.125 2.8125 -5.71875 C 2.457031 -5.320312 2.28125 -4.675781 2.28125 -3.78125 L 2.28125 0 Z M 1.234375 0 "/></g></g><g transform="translate(41.723384, 178.45876)"><g/></g><g transform="translate(44.959391, 178.45876)"><g><path d="M 0.5625 -0.4375 C 0.5625 -0.957031 0.617188 -1.375 0.734375 -1.6875 C 0.847656 -2.007812 1.039062 -2.304688 1.3125 -2.578125 C 1.59375 -2.847656 2.035156 -3.207031 2.640625 -3.65625 L 3.671875 -4.40625 C 4.054688 -4.6875 4.367188 -4.941406 4.609375 -5.171875 C 4.847656 -5.410156 5.035156 -5.664062 5.171875 -5.9375 C 5.316406 -6.21875 5.390625 -6.53125 5.390625 -6.875 C 5.390625 -7.4375 5.238281 -7.859375 4.9375 -8.140625 C 4.644531 -8.421875 4.179688 -8.5625 3.546875 -8.5625 C 3.046875 -8.5625 2.601562 -8.445312 2.21875 -8.21875 C 1.832031 -7.988281 1.523438 -7.660156 1.296875 -7.234375 L 1.140625 -7.203125 L 0.484375 -7.90625 C 0.796875 -8.414062 1.210938 -8.816406 1.734375 -9.109375 C 2.253906 -9.410156 2.859375 -9.5625 3.546875 -9.5625 C 4.222656 -9.5625 4.78125 -9.445312 5.21875 -9.21875 C 5.664062 -8.988281 5.992188 -8.671875 6.203125 -8.265625 C 6.410156 -7.867188 6.515625 -7.40625 6.515625 -6.875 C 6.515625 -6.457031 6.425781 -6.066406 6.25 -5.703125 C 6.070312 -5.335938 5.820312 -4.992188 5.5 -4.671875 C 5.175781 -4.347656 4.773438 -4.007812 4.296875 -3.65625 L 3.25 -2.875 C 2.851562 -2.59375 2.550781 -2.347656 2.34375 -2.140625 C 2.132812 -1.941406 1.976562 -1.742188 1.875 -1.546875 C 1.78125 -1.359375 1.734375 -1.148438 1.734375 -0.921875 L 6.515625 -0.921875 L 6.515625 0 L 0.5625 0 Z M 0.5625 -0.4375 "/></g></g></g><g fill="#000000" fill-opacity="1"><g transform="translate(12.315677, 264.144013)"><g><path d="M 2.53125 0 L 1.421875 0 L 1.421875 -9.421875 L 2.53125 -9.421875 Z M 2.53125 0 "/></g></g><g transform="translate(16.280108, 264.144013)"><g><path d="M 4.8125 -1.125 L 5.140625 -0.375 C 4.972656 -0.207031 4.753906 -0.0820312 4.484375 0 C 4.210938 0.09375 3.914062 0.140625 3.59375 0.140625 C 2.238281 0.140625 1.5625 -0.546875 1.5625 -1.921875 L 1.5625 -6.25 L 0.328125 -6.25 L 0.328125 -7.125 L 1.5625 -7.125 L 1.5625 -8.625 L 2.609375 -8.796875 L 2.609375 -7.125 L 4.90625 -7.125 L 4.90625 -6.25 L 2.609375 -6.25 L 2.609375 -2.03125 C 2.609375 -1.21875 2.960938 -0.8125 3.671875 -0.8125 C 4.054688 -0.8125 4.390625 -0.914062 4.671875 -1.125 Z M 4.8125 -1.125 "/></g></g></g><g fill="#000000" fill-opacity="1"><g transform="translate(21.611141, 264.144013)"><g><path d="M 6.78125 -3.3125 L 1.890625 -3.3125 C 1.921875 -2.445312 2.128906 -1.8125 2.515625 -1.40625 C 2.898438 -1.007812 3.425781 -0.8125 4.09375 -0.8125 C 4.601562 -0.8125 5.007812 -0.898438 5.3125 -1.078125 C 5.625 -1.253906 5.867188 -1.535156 6.046875 -1.921875 L 6.1875 -1.921875 L 6.859375 -1.515625 C 6.660156 -1.003906 6.332031 -0.597656 5.875 -0.296875 C 5.425781 -0.00390625 4.832031 0.140625 4.09375 0.140625 C 3.40625 0.140625 2.8125 0.00390625 2.3125 -0.265625 C 1.820312 -0.535156 1.441406 -0.945312 1.171875 -1.5 C 0.910156 -2.050781 0.78125 -2.734375 0.78125 -3.546875 C 0.78125 -4.359375 0.921875 -5.039062 1.203125 -5.59375 C 1.484375 -6.144531 1.867188 -6.554688 2.359375 -6.828125 C 2.847656 -7.109375 3.40625 -7.25 4.03125 -7.25 C 4.9375 -7.25 5.644531 -6.988281 6.15625 -6.46875 C 6.675781 -5.957031 6.9375 -5.195312 6.9375 -4.1875 C 6.9375 -3.789062 6.925781 -3.523438 6.90625 -3.390625 Z M 5.90625 -4.1875 C 5.882812 -4.945312 5.710938 -5.5 5.390625 -5.84375 C 5.078125 -6.1875 4.625 -6.359375 4.03125 -6.359375 C 3.40625 -6.359375 2.914062 -6.179688 2.5625 -5.828125 C 2.207031 -5.484375 1.992188 -4.9375 1.921875 -4.1875 Z M 5.90625 -4.1875 "/></g></g><g transform="translate(29.191908, 264.144013)"><g><path d="M 1.234375 0 L 1.234375 -7.109375 L 2.234375 -7.109375 L 2.234375 -6.0625 L 2.375 -6.03125 C 2.613281 -6.4375 2.90625 -6.738281 3.25 -6.9375 C 3.59375 -7.144531 4 -7.25 4.46875 -7.25 C 5.019531 -7.25 5.445312 -7.144531 5.75 -6.9375 C 6.050781 -6.726562 6.285156 -6.390625 6.453125 -5.921875 L 6.59375 -5.921875 C 6.832031 -6.359375 7.128906 -6.6875 7.484375 -6.90625 C 7.847656 -7.132812 8.289062 -7.25 8.8125 -7.25 C 9.550781 -7.25 10.097656 -7.050781 10.453125 -6.65625 C 10.804688 -6.257812 10.984375 -5.65625 10.984375 -4.84375 L 10.984375 0 L 9.9375 0 L 9.9375 -4.828125 C 9.9375 -5.335938 9.828125 -5.710938 9.609375 -5.953125 C 9.398438 -6.203125 9.050781 -6.328125 8.5625 -6.328125 C 8 -6.328125 7.535156 -6.117188 7.171875 -5.703125 C 6.816406 -5.296875 6.640625 -4.617188 6.640625 -3.671875 L 6.640625 0 L 5.59375 0 L 5.59375 -4.828125 C 5.59375 -5.335938 5.484375 -5.710938 5.265625 -5.953125 C 5.046875 -6.203125 4.695312 -6.328125 4.21875 -6.328125 C 3.644531 -6.328125 3.175781 -6.125 2.8125 -5.71875 C 2.457031 -5.320312 2.28125 -4.675781 2.28125 -3.78125 L 2.28125 0 Z M 1.234375 0 "/></g></g><g transform="translate(41.310822, 264.144013)"><g/></g><g transform="translate(44.54683, 264.144013)"><g><path d="M 3.734375 0.140625 C 2.816406 0.140625 2.085938 -0.0664062 1.546875 -0.484375 C 1.015625 -0.898438 0.671875 -1.472656 0.515625 -2.203125 L 1.328125 -2.578125 L 1.484375 -2.546875 C 1.648438 -1.984375 1.898438 -1.5625 2.234375 -1.28125 C 2.578125 -1 3.078125 -0.859375 3.734375 -0.859375 C 4.398438 -0.859375 4.90625 -1.007812 5.25 -1.3125 C 5.601562 -1.625 5.78125 -2.078125 5.78125 -2.671875 C 5.78125 -3.253906 5.601562 -3.695312 5.25 -4 C 4.894531 -4.300781 4.335938 -4.453125 3.578125 -4.453125 L 2.546875 -4.453125 L 2.546875 -5.375 L 3.46875 -5.375 C 4.0625 -5.375 4.53125 -5.519531 4.875 -5.8125 C 5.226562 -6.101562 5.40625 -6.519531 5.40625 -7.0625 C 5.40625 -7.570312 5.253906 -7.953125 4.953125 -8.203125 C 4.648438 -8.460938 4.222656 -8.59375 3.671875 -8.59375 C 2.722656 -8.59375 2.046875 -8.210938 1.640625 -7.453125 L 1.5 -7.4375 L 0.875 -8.109375 C 1.125 -8.546875 1.488281 -8.894531 1.96875 -9.15625 C 2.445312 -9.425781 3.015625 -9.5625 3.671875 -9.5625 C 4.273438 -9.5625 4.785156 -9.46875 5.203125 -9.28125 C 5.628906 -9.09375 5.953125 -8.820312 6.171875 -8.46875 C 6.390625 -8.113281 6.5 -7.691406 6.5 -7.203125 C 6.5 -6.742188 6.363281 -6.335938 6.09375 -5.984375 C 5.832031 -5.628906 5.476562 -5.351562 5.03125 -5.15625 L 5.03125 -5.015625 C 5.65625 -4.867188 6.125 -4.585938 6.4375 -4.171875 C 6.75 -3.765625 6.90625 -3.265625 6.90625 -2.671875 C 6.90625 -1.773438 6.640625 -1.082031 6.109375 -0.59375 C 5.578125 -0.101562 4.785156 0.140625 3.734375 0.140625 Z M 3.734375 0.140625 "/></g></g></g><g fill="#000000" fill-opacity="1"><g transform="translate(11.493783, 349.829312)"><g><path d="M 2.53125 0 L 1.421875 0 L 1.421875 -9.421875 L 2.53125 -9.421875 Z M 2.53125 0 "/></g></g><g transform="translate(15.458215, 349.829312)"><g><path d="M 4.8125 -1.125 L 5.140625 -0.375 C 4.972656 -0.207031 4.753906 -0.0820312 4.484375 0 C 4.210938 0.09375 3.914062 0.140625 3.59375 0.140625 C 2.238281 0.140625 1.5625 -0.546875 1.5625 -1.921875 L 1.5625 -6.25 L 0.328125 -6.25 L 0.328125 -7.125 L 1.5625 -7.125 L 1.5625 -8.625 L 2.609375 -8.796875 L 2.609375 -7.125 L 4.90625 -7.125 L 4.90625 -6.25 L 2.609375 -6.25 L 2.609375 -2.03125 C 2.609375 -1.21875 2.960938 -0.8125 3.671875 -0.8125 C 4.054688 -0.8125 4.390625 -0.914062 4.671875 -1.125 Z M 4.8125 -1.125 "/></g></g></g><g fill="#000000" fill-opacity="1"><g transform="translate(20.789247, 349.829312)"><g><path d="M 6.78125 -3.3125 L 1.890625 -3.3125 C 1.921875 -2.445312 2.128906 -1.8125 2.515625 -1.40625 C 2.898438 -1.007812 3.425781 -0.8125 4.09375 -0.8125 C 4.601562 -0.8125 5.007812 -0.898438 5.3125 -1.078125 C 5.625 -1.253906 5.867188 -1.535156 6.046875 -1.921875 L 6.1875 -1.921875 L 6.859375 -1.515625 C 6.660156 -1.003906 6.332031 -0.597656 5.875 -0.296875 C 5.425781 -0.00390625 4.832031 0.140625 4.09375 0.140625 C 3.40625 0.140625 2.8125 0.00390625 2.3125 -0.265625 C 1.820312 -0.535156 1.441406 -0.945312 1.171875 -1.5 C 0.910156 -2.050781 0.78125 -2.734375 0.78125 -3.546875 C 0.78125 -4.359375 0.921875 -5.039062 1.203125 -5.59375 C 1.484375 -6.144531 1.867188 -6.554688 2.359375 -6.828125 C 2.847656 -7.109375 3.40625 -7.25 4.03125 -7.25 C 4.9375 -7.25 5.644531 -6.988281 6.15625 -6.46875 C 6.675781 -5.957031 6.9375 -5.195312 6.9375 -4.1875 C 6.9375 -3.789062 6.925781 -3.523438 6.90625 -3.390625 Z M 5.90625 -4.1875 C 5.882812 -4.945312 5.710938 -5.5 5.390625 -5.84375 C 5.078125 -6.1875 4.625 -6.359375 4.03125 -6.359375 C 3.40625 -6.359375 2.914062 -6.179688 2.5625 -5.828125 C 2.207031 -5.484375 1.992188 -4.9375 1.921875 -4.1875 Z M 5.90625 -4.1875 "/></g></g><g transform="translate(28.370015, 349.829312)"><g><path d="M 1.234375 0 L 1.234375 -7.109375 L 2.234375 -7.109375 L 2.234375 -6.0625 L 2.375 -6.03125 C 2.613281 -6.4375 2.90625 -6.738281 3.25 -6.9375 C 3.59375 -7.144531 4 -7.25 4.46875 -7.25 C 5.019531 -7.25 5.445312 -7.144531 5.75 -6.9375 C 6.050781 -6.726562 6.285156 -6.390625 6.453125 -5.921875 L 6.59375 -5.921875 C 6.832031 -6.359375 7.128906 -6.6875 7.484375 -6.90625 C 7.847656 -7.132812 8.289062 -7.25 8.8125 -7.25 C 9.550781 -7.25 10.097656 -7.050781 10.453125 -6.65625 C 10.804688 -6.257812 10.984375 -5.65625 10.984375 -4.84375 L 10.984375 0 L 9.9375 0 L 9.9375 -4.828125 C 9.9375 -5.335938 9.828125 -5.710938 9.609375 -5.953125 C 9.398438 -6.203125 9.050781 -6.328125 8.5625 -6.328125 C 8 -6.328125 7.535156 -6.117188 7.171875 -5.703125 C 6.816406 -5.296875 6.640625 -4.617188 6.640625 -3.671875 L 6.640625 0 L 5.59375 0 L 5.59375 -4.828125 C 5.59375 -5.335938 5.484375 -5.710938 5.265625 -5.953125 C 5.046875 -6.203125 4.695312 -6.328125 4.21875 -6.328125 C 3.644531 -6.328125 3.175781 -6.125 2.8125 -5.71875 C 2.457031 -5.320312 2.28125 -4.675781 2.28125 -3.78125 L 2.28125 0 Z M 1.234375 0 "/></g></g><g transform="translate(40.488928, 349.829312)"><g/></g><g transform="translate(43.724936, 349.829312)"><g><path d="M 5.90625 0 L 4.84375 0 L 4.84375 -2.25 L 0.4375 -2.25 L 0.4375 -3.140625 L 4.59375 -9.421875 L 5.90625 -9.421875 L 5.90625 -3.140625 L 7.53125 -3.140625 L 7.53125 -2.25 L 5.90625 -2.25 Z M 1.734375 -3.28125 L 1.796875 -3.140625 L 4.84375 -3.140625 L 4.84375 -7.890625 L 4.703125 -7.921875 Z M 1.734375 -3.28125 "/></g></g></g><g clip-path="url(#63b0b86882)"><path fill="#6ce5e8" d="M 61.398438 49.46875 L 561.503906 49.46875 C 561.910156 49.46875 562.308594 49.511719 562.707031 49.589844 C 563.105469 49.667969 563.488281 49.785156 563.863281 49.941406 C 564.238281 50.09375 564.59375 50.285156 564.929688 50.511719 C 565.269531 50.734375 565.578125 50.992188 565.867188 51.277344 C 566.152344 51.5625 566.40625 51.875 566.632812 52.210938 C 566.859375 52.550781 567.046875 52.90625 567.203125 53.277344 C 567.359375 53.652344 567.476562 54.039062 567.554688 54.4375 C 567.632812 54.832031 567.671875 55.234375 567.671875 55.640625 L 567.671875 120.417969 C 567.671875 120.824219 567.632812 121.222656 567.554688 121.621094 C 567.476562 122.019531 567.359375 122.40625 567.203125 122.777344 C 567.046875 123.152344 566.859375 123.507812 566.632812 123.84375 C 566.40625 124.183594 566.152344 124.492188 565.867188 124.78125 C 565.578125 125.066406 565.269531 125.324219 564.929688 125.546875 C 564.59375 125.773438 564.238281 125.960938 563.863281 126.117188 C 563.488281 126.273438 563.105469 126.390625 562.707031 126.46875 C 562.308594 126.546875 561.910156 126.585938 561.503906 126.585938 L 61.398438 126.585938 C 60.992188 126.585938 60.589844 126.546875 60.195312 126.46875 C 59.796875 126.390625 59.410156 126.273438 59.035156 126.117188 C 58.664062 125.960938 58.304688 125.773438 57.96875 125.546875 C 57.632812 125.324219 57.320312 125.066406 57.035156 124.78125 C 56.75 124.492188 56.492188 124.183594 56.269531 123.84375 C 56.042969 123.507812 55.851562 123.152344 55.699219 122.777344 C 55.542969 122.40625 55.425781 122.019531 55.347656 121.621094 C 55.265625 121.222656 55.226562 120.824219 55.226562 120.417969 L 55.226562 55.640625 C 55.226562 55.234375 55.265625 54.832031 55.347656 54.4375 C 55.425781 54.039062 55.542969 53.652344 55.699219 53.277344 C 55.851562 52.90625 56.042969 52.550781 56.269531 52.210938 C 56.492188 51.875 56.75 51.5625 57.035156 51.277344 C 57.320312 50.992188 57.632812 50.734375 57.96875 50.511719 C 58.304688 50.285156 58.664062 50.09375 59.035156 49.941406 C 59.410156 49.785156 59.796875 49.667969 60.195312 49.589844 C 60.589844 49.511719 60.992188 49.46875 61.398438 49.46875 Z M 61.398438 49.46875 " fill-opacity="1" fill-rule="nonzero"/></g><g clip-path="url(#adf035c5a8)"><path fill="#41b8d5" d="M 61.398438 49.46875 L 561.503906 49.46875 C 561.910156 49.46875 562.308594 49.511719 562.707031 49.589844 C 563.105469 49.667969 563.488281 49.785156 563.863281 49.941406 C 564.238281 50.09375 564.59375 50.285156 564.929688 50.511719 C 565.269531 50.734375 565.578125 50.992188 565.867188 51.277344 C 566.152344 51.5625 566.40625 51.875 566.632812 52.210938 C 566.859375 52.550781 567.046875 52.90625 567.203125 53.277344 C 567.359375 53.652344 567.476562 54.039062 567.554688 54.4375 C 567.632812 54.832031 567.671875 55.234375 567.671875 55.640625 L 567.671875 120.417969 C 567.671875 120.824219 567.632812 121.222656 567.554688 121.621094 C 567.476562 122.019531 567.359375 122.40625 567.203125 122.777344 C 567.046875 123.152344 566.859375 123.507812 566.632812 123.84375 C 566.40625 124.183594 566.152344 124.492188 565.867188 124.78125 C 565.578125 125.066406 565.269531 125.324219 564.929688 125.546875 C 564.59375 125.773438 564.238281 125.960938 563.863281 126.117188 C 563.488281 126.273438 563.105469 126.390625 562.707031 126.46875 C 562.308594 126.546875 561.910156 126.585938 561.503906 126.585938 L 61.398438 126.585938 C 60.992188 126.585938 60.589844 126.546875 60.195312 126.46875 C 59.796875 126.390625 59.410156 126.273438 59.035156 126.117188 C 58.664062 125.960938 58.304688 125.773438 57.96875 125.546875 C 57.632812 125.324219 57.320312 125.066406 57.035156 124.78125 C 56.75 124.492188 56.492188 124.183594 56.269531 123.84375 C 56.042969 123.507812 55.851562 123.152344 55.699219 122.777344 C 55.542969 122.40625 55.425781 122.019531 55.347656 121.621094 C 55.265625 121.222656 55.226562 120.824219 55.226562 120.417969 L 55.226562 55.640625 C 55.226562 55.234375 55.265625 54.832031 55.347656 54.4375 C 55.425781 54.039062 55.542969 53.652344 55.699219 53.277344 C 55.851562 52.90625 56.042969 52.550781 56.269531 52.210938 C 56.492188 51.875 56.75 51.5625 57.035156 51.277344 C 57.320312 50.992188 57.632812 50.734375 57.96875 50.511719 C 58.304688 50.285156 58.664062 50.09375 59.035156 49.941406 C 59.410156 49.785156 59.796875 49.667969 60.195312 49.589844 C 60.589844 49.511719 60.992188 49.46875 61.398438 49.46875 Z M 61.398438 49.46875 " fill-opacity="1" fill-rule="nonzero"/></g><g clip-path="url(#fa58084841)"><path fill="#2d8bba" d="M 61.398438 49.46875 L 561.503906 49.46875 C 561.910156 49.46875 562.308594 49.511719 562.707031 49.589844 C 563.105469 49.667969 563.488281 49.785156 563.863281 49.941406 C 564.238281 50.09375 564.59375 50.285156 564.929688 50.511719 C 565.269531 50.734375 565.578125 50.992188 565.867188 51.277344 C 566.152344 51.5625 566.40625 51.875 566.632812 52.210938 C 566.859375 52.550781 567.046875 52.90625 567.203125 53.277344 C 567.359375 53.652344 567.476562 54.039062 567.554688 54.4375 C 567.632812 54.832031 567.671875 55.234375 567.671875 55.640625 L 567.671875 120.417969 C 567.671875 120.824219 567.632812 121.222656 567.554688 121.621094 C 567.476562 122.019531 567.359375 122.40625 567.203125 122.777344 C 567.046875 123.152344 566.859375 123.507812 566.632812 123.84375 C 566.40625 124.183594 566.152344 124.492188 565.867188 124.78125 C 565.578125 125.066406 565.269531 125.324219 564.929688 125.546875 C 564.59375 125.773438 564.238281 125.960938 563.863281 126.117188 C 563.488281 126.273438 563.105469 126.390625 562.707031 126.46875 C 562.308594 126.546875 561.910156 126.585938 561.503906 126.585938 L 61.398438 126.585938 C 60.992188 126.585938 60.589844 126.546875 60.195312 126.46875 C 59.796875 126.390625 59.410156 126.273438 59.035156 126.117188 C 58.664062 125.960938 58.304688 125.773438 57.96875 125.546875 C 57.632812 125.324219 57.320312 125.066406 57.035156 124.78125 C 56.75 124.492188 56.492188 124.183594 56.269531 123.84375 C 56.042969 123.507812 55.851562 123.152344 55.699219 122.777344 C 55.542969 122.40625 55.425781 122.019531 55.347656 121.621094 C 55.265625 121.222656 55.226562 120.824219 55.226562 120.417969 L 55.226562 55.640625 C 55.226562 55.234375 55.265625 54.832031 55.347656 54.4375 C 55.425781 54.039062 55.542969 53.652344 55.699219 53.277344 C 55.851562 52.90625 56.042969 52.550781 56.269531 52.210938 C 56.492188 51.875 56.75 51.5625 57.035156 51.277344 C 57.320312 50.992188 57.632812 50.734375 57.96875 50.511719 C 58.304688 50.285156 58.664062 50.09375 59.035156 49.941406 C 59.410156 49.785156 59.796875 49.667969 60.195312 49.589844 C 60.589844 49.511719 60.992188 49.46875 61.398438 49.46875 Z M 61.398438 49.46875 " fill-opacity="1" fill-rule="nonzero"/></g><g clip-path="url(#4fae4ed4ce)"><path fill="#6ce5e8" d="M 61.398438 135.15625 L 814.640625 135.15625 C 815.046875 135.15625 815.449219 135.195312 815.84375 135.273438 C 816.242188 135.355469 816.628906 135.46875 817.003906 135.625 C 817.375 135.78125 817.730469 135.96875 818.070312 136.195312 C 818.40625 136.421875 818.71875 136.675781 819.003906 136.964844 C 819.289062 137.25 819.546875 137.5625 819.769531 137.898438 C 819.996094 138.234375 820.1875 138.589844 820.339844 138.964844 C 820.496094 139.339844 820.613281 139.722656 820.691406 140.121094 C 820.769531 140.519531 820.8125 140.921875 820.8125 141.324219 L 820.8125 206.101562 C 820.8125 206.507812 820.769531 206.910156 820.691406 207.308594 C 820.613281 207.703125 820.496094 208.089844 820.339844 208.464844 C 820.1875 208.839844 819.996094 209.195312 819.769531 209.53125 C 819.546875 209.867188 819.289062 210.179688 819.003906 210.464844 C 818.71875 210.753906 818.40625 211.007812 818.070312 211.234375 C 817.730469 211.457031 817.375 211.648438 817.003906 211.804688 C 816.628906 211.957031 816.242188 212.074219 815.84375 212.152344 C 815.449219 212.234375 815.046875 212.273438 814.640625 212.273438 L 61.398438 212.273438 C 60.992188 212.273438 60.589844 212.234375 60.195312 212.152344 C 59.796875 212.074219 59.410156 211.957031 59.035156 211.804688 C 58.664062 211.648438 58.304688 211.457031 57.96875 211.234375 C 57.632812 211.007812 57.320312 210.753906 57.035156 210.464844 C 56.75 210.179688 56.492188 209.867188 56.269531 209.53125 C 56.042969 209.195312 55.851562 208.839844 55.699219 208.464844 C 55.542969 208.089844 55.425781 207.703125 55.347656 207.308594 C 55.265625 206.910156 55.226562 206.507812 55.226562 206.101562 L 55.226562 141.324219 C 55.226562 140.921875 55.265625 140.519531 55.347656 140.121094 C 55.425781 139.722656 55.542969 139.339844 55.699219 138.964844 C 55.851562 138.589844 56.042969 138.234375 56.269531 137.898438 C 56.492188 137.5625 56.75 137.25 57.035156 136.964844 C 57.320312 136.675781 57.632812 136.421875 57.96875 136.195312 C 58.304688 135.96875 58.664062 135.78125 59.035156 135.625 C 59.410156 135.46875 59.796875 135.355469 60.195312 135.273438 C 60.589844 135.195312 60.992188 135.15625 61.398438 135.15625 Z M 61.398438 135.15625 " fill-opacity="1" fill-rule="nonzero"/></g><g clip-path="url(#103f1eb650)"><path fill="#41b8d5" d="M 61.398438 135.15625 L 814.640625 135.15625 C 815.046875 135.15625 815.449219 135.195312 815.84375 135.273438 C 816.242188 135.355469 816.628906 135.46875 817.003906 135.625 C 817.375 135.78125 817.730469 135.96875 818.070312 136.195312 C 818.40625 136.421875 818.71875 136.675781 819.003906 136.964844 C 819.289062 137.25 819.546875 137.5625 819.769531 137.898438 C 819.996094 138.234375 820.1875 138.589844 820.339844 138.964844 C 820.496094 139.339844 820.613281 139.722656 820.691406 140.121094 C 820.769531 140.519531 820.8125 140.921875 820.8125 141.324219 L 820.8125 206.101562 C 820.8125 206.507812 820.769531 206.910156 820.691406 207.308594 C 820.613281 207.703125 820.496094 208.089844 820.339844 208.464844 C 820.1875 208.839844 819.996094 209.195312 819.769531 209.53125 C 819.546875 209.867188 819.289062 210.179688 819.003906 210.464844 C 818.71875 210.753906 818.40625 211.007812 818.070312 211.234375 C 817.730469 211.457031 817.375 211.648438 817.003906 211.804688 C 816.628906 211.957031 816.242188 212.074219 815.84375 212.152344 C 815.449219 212.234375 815.046875 212.273438 814.640625 212.273438 L 61.398438 212.273438 C 60.992188 212.273438 60.589844 212.234375 60.195312 212.152344 C 59.796875 212.074219 59.410156 211.957031 59.035156 211.804688 C 58.664062 211.648438 58.304688 211.457031 57.96875 211.234375 C 57.632812 211.007812 57.320312 210.753906 57.035156 210.464844 C 56.75 210.179688 56.492188 209.867188 56.269531 209.53125 C 56.042969 209.195312 55.851562 208.839844 55.699219 208.464844 C 55.542969 208.089844 55.425781 207.703125 55.347656 207.308594 C 55.265625 206.910156 55.226562 206.507812 55.226562 206.101562 L 55.226562 141.324219 C 55.226562 140.921875 55.265625 140.519531 55.347656 140.121094 C 55.425781 139.722656 55.542969 139.339844 55.699219 138.964844 C 55.851562 138.589844 56.042969 138.234375 56.269531 137.898438 C 56.492188 137.5625 56.75 137.25 57.035156 136.964844 C 57.320312 136.675781 57.632812 136.421875 57.96875 136.195312 C 58.304688 135.96875 58.664062 135.78125 59.035156 135.625 C 59.410156 135.46875 59.796875 135.355469 60.195312 135.273438 C 60.589844 135.195312 60.992188 135.15625 61.398438 135.15625 Z M 61.398438 135.15625 " fill-opacity="1" fill-rule="nonzero"/></g><g clip-path="url(#12fe13058e)"><path fill="#2d8bba" d="M 61.398438 135.15625 L 814.640625 135.15625 C 815.046875 135.15625 815.449219 135.195312 815.84375 135.273438 C 816.242188 135.355469 816.628906 135.46875 817.003906 135.625 C 817.375 135.78125 817.730469 135.96875 818.070312 136.195312 C 818.40625 136.421875 818.71875 136.675781 819.003906 136.964844 C 819.289062 137.25 819.546875 137.5625 819.769531 137.898438 C 819.996094 138.234375 820.1875 138.589844 820.339844 138.964844 C 820.496094 139.339844 820.613281 139.722656 820.691406 140.121094 C 820.769531 140.519531 820.8125 140.921875 820.8125 141.324219 L 820.8125 206.101562 C 820.8125 206.507812 820.769531 206.910156 820.691406 207.308594 C 820.613281 207.703125 820.496094 208.089844 820.339844 208.464844 C 820.1875 208.839844 819.996094 209.195312 819.769531 209.53125 C 819.546875 209.867188 819.289062 210.179688 819.003906 210.464844 C 818.71875 210.753906 818.40625 211.007812 818.070312 211.234375 C 817.730469 211.457031 817.375 211.648438 817.003906 211.804688 C 816.628906 211.957031 816.242188 212.074219 815.84375 212.152344 C 815.449219 212.234375 815.046875 212.273438 814.640625 212.273438 L 61.398438 212.273438 C 60.992188 212.273438 60.589844 212.234375 60.195312 212.152344 C 59.796875 212.074219 59.410156 211.957031 59.035156 211.804688 C 58.664062 211.648438 58.304688 211.457031 57.96875 211.234375 C 57.632812 211.007812 57.320312 210.753906 57.035156 210.464844 C 56.75 210.179688 56.492188 209.867188 56.269531 209.53125 C 56.042969 209.195312 55.851562 208.839844 55.699219 208.464844 C 55.542969 208.089844 55.425781 207.703125 55.347656 207.308594 C 55.265625 206.910156 55.226562 206.507812 55.226562 206.101562 L 55.226562 141.324219 C 55.226562 140.921875 55.265625 140.519531 55.347656 140.121094 C 55.425781 139.722656 55.542969 139.339844 55.699219 138.964844 C 55.851562 138.589844 56.042969 138.234375 56.269531 137.898438 C 56.492188 137.5625 56.75 137.25 57.035156 136.964844 C 57.320312 136.675781 57.632812 136.421875 57.96875 136.195312 C 58.304688 135.96875 58.664062 135.78125 59.035156 135.625 C 59.410156 135.46875 59.796875 135.355469 60.195312 135.273438 C 60.589844 135.195312 60.992188 135.15625 61.398438 135.15625 Z M 61.398438 135.15625 " fill-opacity="1" fill-rule="nonzero"/></g><g clip-path="url(#a19cfaa299)"><path fill="#6ce5e8" d="M 61.398438 220.839844 L 966.523438 220.839844 C 966.929688 220.839844 967.332031 220.878906 967.726562 220.960938 C 968.125 221.039062 968.511719 221.15625 968.882812 221.3125 C 969.257812 221.464844 969.613281 221.65625 969.953125 221.882812 C 970.289062 222.105469 970.601562 222.363281 970.886719 222.648438 C 971.171875 222.933594 971.429688 223.246094 971.652344 223.582031 C 971.878906 223.917969 972.070312 224.277344 972.222656 224.648438 C 972.378906 225.023438 972.496094 225.410156 972.574219 225.808594 C 972.652344 226.203125 972.691406 226.605469 972.691406 227.011719 L 972.691406 291.789062 C 972.691406 292.195312 972.652344 292.59375 972.574219 292.992188 C 972.496094 293.390625 972.378906 293.773438 972.222656 294.148438 C 972.070312 294.523438 971.878906 294.878906 971.652344 295.214844 C 971.429688 295.554688 971.171875 295.863281 970.886719 296.152344 C 970.601562 296.4375 970.289062 296.691406 969.953125 296.917969 C 969.613281 297.144531 969.257812 297.332031 968.882812 297.488281 C 968.511719 297.644531 968.125 297.761719 967.726562 297.839844 C 967.332031 297.917969 966.929688 297.957031 966.523438 297.957031 L 61.398438 297.957031 C 60.992188 297.957031 60.589844 297.917969 60.195312 297.839844 C 59.796875 297.761719 59.410156 297.644531 59.035156 297.488281 C 58.664062 297.332031 58.304688 297.144531 57.96875 296.917969 C 57.632812 296.691406 57.320312 296.4375 57.035156 296.152344 C 56.75 295.863281 56.492188 295.554688 56.269531 295.214844 C 56.042969 294.878906 55.851562 294.523438 55.699219 294.148438 C 55.542969 293.773438 55.425781 293.390625 55.347656 292.992188 C 55.265625 292.59375 55.226562 292.195312 55.226562 291.789062 L 55.226562 227.011719 C 55.226562 226.605469 55.265625 226.203125 55.347656 225.808594 C 55.425781 225.410156 55.542969 225.023438 55.699219 224.648438 C 55.851562 224.277344 56.042969 223.917969 56.269531 223.582031 C 56.492188 223.246094 56.75 222.933594 57.035156 222.648438 C 57.320312 222.363281 57.632812 222.105469 57.96875 221.882812 C 58.304688 221.65625 58.664062 221.464844 59.035156 221.3125 C 59.410156 221.15625 59.796875 221.039062 60.195312 220.960938 C 60.589844 220.878906 60.992188 220.839844 61.398438 220.839844 Z M 61.398438 220.839844 " fill-opacity="1" fill-rule="nonzero"/></g><g clip-path="url(#5b005327f2)"><path fill="#41b8d5" d="M 61.398438 220.839844 L 966.523438 220.839844 C 966.929688 220.839844 967.332031 220.878906 967.726562 220.960938 C 968.125 221.039062 968.511719 221.15625 968.882812 221.3125 C 969.257812 221.464844 969.613281 221.65625 969.953125 221.882812 C 970.289062 222.105469 970.601562 222.363281 970.886719 222.648438 C 971.171875 222.933594 971.429688 223.246094 971.652344 223.582031 C 971.878906 223.917969 972.070312 224.277344 972.222656 224.648438 C 972.378906 225.023438 972.496094 225.410156 972.574219 225.808594 C 972.652344 226.203125 972.691406 226.605469 972.691406 227.011719 L 972.691406 291.789062 C 972.691406 292.195312 972.652344 292.59375 972.574219 292.992188 C 972.496094 293.390625 972.378906 293.773438 972.222656 294.148438 C 972.070312 294.523438 971.878906 294.878906 971.652344 295.214844 C 971.429688 295.554688 971.171875 295.863281 970.886719 296.152344 C 970.601562 296.4375 970.289062 296.691406 969.953125 296.917969 C 969.613281 297.144531 969.257812 297.332031 968.882812 297.488281 C 968.511719 297.644531 968.125 297.761719 967.726562 297.839844 C 967.332031 297.917969 966.929688 297.957031 966.523438 297.957031 L 61.398438 297.957031 C 60.992188 297.957031 60.589844 297.917969 60.195312 297.839844 C 59.796875 297.761719 59.410156 297.644531 59.035156 297.488281 C 58.664062 297.332031 58.304688 297.144531 57.96875 296.917969 C 57.632812 296.691406 57.320312 296.4375 57.035156 296.152344 C 56.75 295.863281 56.492188 295.554688 56.269531 295.214844 C 56.042969 294.878906 55.851562 294.523438 55.699219 294.148438 C 55.542969 293.773438 55.425781 293.390625 55.347656 292.992188 C 55.265625 292.59375 55.226562 292.195312 55.226562 291.789062 L 55.226562 227.011719 C 55.226562 226.605469 55.265625 226.203125 55.347656 225.808594 C 55.425781 225.410156 55.542969 225.023438 55.699219 224.648438 C 55.851562 224.277344 56.042969 223.917969 56.269531 223.582031 C 56.492188 223.246094 56.75 222.933594 57.035156 222.648438 C 57.320312 222.363281 57.632812 222.105469 57.96875 221.882812 C 58.304688 221.65625 58.664062 221.464844 59.035156 221.3125 C 59.410156 221.15625 59.796875 221.039062 60.195312 220.960938 C 60.589844 220.878906 60.992188 220.839844 61.398438 220.839844 Z M 61.398438 220.839844 " fill-opacity="1" fill-rule="nonzero"/></g><g clip-path="url(#c73b087afa)"><path fill="#2d8bba" d="M 61.398438 220.839844 L 966.523438 220.839844 C 966.929688 220.839844 967.332031 220.878906 967.726562 220.960938 C 968.125 221.039062 968.511719 221.15625 968.882812 221.3125 C 969.257812 221.464844 969.613281 221.65625 969.953125 221.882812 C 970.289062 222.105469 970.601562 222.363281 970.886719 222.648438 C 971.171875 222.933594 971.429688 223.246094 971.652344 223.582031 C 971.878906 223.917969 972.070312 224.277344 972.222656 224.648438 C 972.378906 225.023438 972.496094 225.410156 972.574219 225.808594 C 972.652344 226.203125 972.691406 226.605469 972.691406 227.011719 L 972.691406 291.789062 C 972.691406 292.195312 972.652344 292.59375 972.574219 292.992188 C 972.496094 293.390625 972.378906 293.773438 972.222656 294.148438 C 972.070312 294.523438 971.878906 294.878906 971.652344 295.214844 C 971.429688 295.554688 971.171875 295.863281 970.886719 296.152344 C 970.601562 296.4375 970.289062 296.691406 969.953125 296.917969 C 969.613281 297.144531 969.257812 297.332031 968.882812 297.488281 C 968.511719 297.644531 968.125 297.761719 967.726562 297.839844 C 967.332031 297.917969 966.929688 297.957031 966.523438 297.957031 L 61.398438 297.957031 C 60.992188 297.957031 60.589844 297.917969 60.195312 297.839844 C 59.796875 297.761719 59.410156 297.644531 59.035156 297.488281 C 58.664062 297.332031 58.304688 297.144531 57.96875 296.917969 C 57.632812 296.691406 57.320312 296.4375 57.035156 296.152344 C 56.75 295.863281 56.492188 295.554688 56.269531 295.214844 C 56.042969 294.878906 55.851562 294.523438 55.699219 294.148438 C 55.542969 293.773438 55.425781 293.390625 55.347656 292.992188 C 55.265625 292.59375 55.226562 292.195312 55.226562 291.789062 L 55.226562 227.011719 C 55.226562 226.605469 55.265625 226.203125 55.347656 225.808594 C 55.425781 225.410156 55.542969 225.023438 55.699219 224.648438 C 55.851562 224.277344 56.042969 223.917969 56.269531 223.582031 C 56.492188 223.246094 56.75 222.933594 57.035156 222.648438 C 57.320312 222.363281 57.632812 222.105469 57.96875 221.882812 C 58.304688 221.65625 58.664062 221.464844 59.035156 221.3125 C 59.410156 221.15625 59.796875 221.039062 60.195312 220.960938 C 60.589844 220.878906 60.992188 220.839844 61.398438 220.839844 Z M 61.398438 220.839844 " fill-opacity="1" fill-rule="nonzero"/></g><g clip-path="url(#fb623e9b32)"><path fill="#6ce5e8" d="M 61.398438 306.527344 L 1320.917969 306.527344 C 1321.320312 306.527344 1321.722656 306.566406 1322.121094 306.644531 C 1322.519531 306.722656 1322.902344 306.839844 1323.277344 306.996094 C 1323.652344 307.152344 1324.007812 307.339844 1324.34375 307.566406 C 1324.679688 307.792969 1324.992188 308.046875 1325.277344 308.332031 C 1325.566406 308.621094 1325.820312 308.929688 1326.046875 309.269531 C 1326.269531 309.605469 1326.460938 309.960938 1326.617188 310.335938 C 1326.773438 310.710938 1326.886719 311.09375 1326.96875 311.492188 C 1327.046875 311.890625 1327.085938 312.289062 1327.085938 312.695312 L 1327.085938 377.472656 C 1327.085938 377.878906 1327.046875 378.28125 1326.96875 378.675781 C 1326.886719 379.074219 1326.773438 379.460938 1326.617188 379.835938 C 1326.460938 380.210938 1326.269531 380.566406 1326.046875 380.902344 C 1325.820312 381.238281 1325.566406 381.550781 1325.277344 381.835938 C 1324.992188 382.121094 1324.679688 382.378906 1324.34375 382.605469 C 1324.007812 382.828125 1323.652344 383.019531 1323.277344 383.171875 C 1322.902344 383.328125 1322.515625 383.445312 1322.121094 383.523438 C 1321.722656 383.605469 1321.320312 383.644531 1320.917969 383.644531 L 61.398438 383.644531 C 60.992188 383.644531 60.589844 383.605469 60.195312 383.523438 C 59.796875 383.445312 59.410156 383.328125 59.035156 383.171875 C 58.664062 383.019531 58.304688 382.828125 57.96875 382.605469 C 57.632812 382.378906 57.320312 382.121094 57.035156 381.835938 C 56.75 381.550781 56.492188 381.238281 56.269531 380.902344 C 56.042969 380.566406 55.851562 380.210938 55.699219 379.835938 C 55.542969 379.460938 55.425781 379.074219 55.347656 378.675781 C 55.265625 378.28125 55.226562 377.878906 55.226562 377.472656 L 55.226562 312.695312 C 55.226562 312.289062 55.265625 311.890625 55.347656 311.492188 C 55.425781 311.09375 55.542969 310.710938 55.699219 310.335938 C 55.851562 309.960938 56.042969 309.605469 56.269531 309.269531 C 56.492188 308.929688 56.75 308.621094 57.035156 308.332031 C 57.320312 308.046875 57.632812 307.792969 57.96875 307.566406 C 58.304688 307.339844 58.664062 307.152344 59.035156 306.996094 C 59.410156 306.839844 59.796875 306.722656 60.195312 306.644531 C 60.589844 306.566406 60.992188 306.527344 61.398438 306.527344 Z M 61.398438 306.527344 " fill-opacity="1" fill-rule="nonzero"/></g><g clip-path="url(#2c1b8457f8)"><path fill="#41b8d5" d="M 61.398438 306.527344 L 1320.917969 306.527344 C 1321.320312 306.527344 1321.722656 306.566406 1322.121094 306.644531 C 1322.519531 306.722656 1322.902344 306.839844 1323.277344 306.996094 C 1323.652344 307.152344 1324.007812 307.339844 1324.34375 307.566406 C 1324.679688 307.792969 1324.992188 308.046875 1325.277344 308.332031 C 1325.566406 308.621094 1325.820312 308.929688 1326.046875 309.269531 C 1326.269531 309.605469 1326.460938 309.960938 1326.617188 310.335938 C 1326.773438 310.710938 1326.886719 311.09375 1326.96875 311.492188 C 1327.046875 311.890625 1327.085938 312.289062 1327.085938 312.695312 L 1327.085938 377.472656 C 1327.085938 377.878906 1327.046875 378.28125 1326.96875 378.675781 C 1326.886719 379.074219 1326.773438 379.460938 1326.617188 379.835938 C 1326.460938 380.210938 1326.269531 380.566406 1326.046875 380.902344 C 1325.820312 381.238281 1325.566406 381.550781 1325.277344 381.835938 C 1324.992188 382.121094 1324.679688 382.378906 1324.34375 382.605469 C 1324.007812 382.828125 1323.652344 383.019531 1323.277344 383.171875 C 1322.902344 383.328125 1322.515625 383.445312 1322.121094 383.523438 C 1321.722656 383.605469 1321.320312 383.644531 1320.917969 383.644531 L 61.398438 383.644531 C 60.992188 383.644531 60.589844 383.605469 60.195312 383.523438 C 59.796875 383.445312 59.410156 383.328125 59.035156 383.171875 C 58.664062 383.019531 58.304688 382.828125 57.96875 382.605469 C 57.632812 382.378906 57.320312 382.121094 57.035156 381.835938 C 56.75 381.550781 56.492188 381.238281 56.269531 380.902344 C 56.042969 380.566406 55.851562 380.210938 55.699219 379.835938 C 55.542969 379.460938 55.425781 379.074219 55.347656 378.675781 C 55.265625 378.28125 55.226562 377.878906 55.226562 377.472656 L 55.226562 312.695312 C 55.226562 312.289062 55.265625 311.890625 55.347656 311.492188 C 55.425781 311.09375 55.542969 310.710938 55.699219 310.335938 C 55.851562 309.960938 56.042969 309.605469 56.269531 309.269531 C 56.492188 308.929688 56.75 308.621094 57.035156 308.332031 C 57.320312 308.046875 57.632812 307.792969 57.96875 307.566406 C 58.304688 307.339844 58.664062 307.152344 59.035156 306.996094 C 59.410156 306.839844 59.796875 306.722656 60.195312 306.644531 C 60.589844 306.566406 60.992188 306.527344 61.398438 306.527344 Z M 61.398438 306.527344 " fill-opacity="1" fill-rule="nonzero"/></g><g clip-path="url(#cb5fd97947)"><path fill="#2d8bba" d="M 61.398438 306.527344 L 1320.917969 306.527344 C 1321.320312 306.527344 1321.722656 306.566406 1322.121094 306.644531 C 1322.519531 306.722656 1322.902344 306.839844 1323.277344 306.996094 C 1323.652344 307.152344 1324.007812 307.339844 1324.34375 307.566406 C 1324.679688 307.792969 1324.992188 308.046875 1325.277344 308.332031 C 1325.566406 308.621094 1325.820312 308.929688 1326.046875 309.269531 C 1326.269531 309.605469 1326.460938 309.960938 1326.617188 310.335938 C 1326.773438 310.710938 1326.886719 311.09375 1326.96875 311.492188 C 1327.046875 311.890625 1327.085938 312.289062 1327.085938 312.695312 L 1327.085938 377.472656 C 1327.085938 377.878906 1327.046875 378.28125 1326.96875 378.675781 C 1326.886719 379.074219 1326.773438 379.460938 1326.617188 379.835938 C 1326.460938 380.210938 1326.269531 380.566406 1326.046875 380.902344 C 1325.820312 381.238281 1325.566406 381.550781 1325.277344 381.835938 C 1324.992188 382.121094 1324.679688 382.378906 1324.34375 382.605469 C 1324.007812 382.828125 1323.652344 383.019531 1323.277344 383.171875 C 1322.902344 383.328125 1322.515625 383.445312 1322.121094 383.523438 C 1321.722656 383.605469 1321.320312 383.644531 1320.917969 383.644531 L 61.398438 383.644531 C 60.992188 383.644531 60.589844 383.605469 60.195312 383.523438 C 59.796875 383.445312 59.410156 383.328125 59.035156 383.171875 C 58.664062 383.019531 58.304688 382.828125 57.96875 382.605469 C 57.632812 382.378906 57.320312 382.121094 57.035156 381.835938 C 56.75 381.550781 56.492188 381.238281 56.269531 380.902344 C 56.042969 380.566406 55.851562 380.210938 55.699219 379.835938 C 55.542969 379.460938 55.425781 379.074219 55.347656 378.675781 C 55.265625 378.28125 55.226562 377.878906 55.226562 377.472656 L 55.226562 312.695312 C 55.226562 312.289062 55.265625 311.890625 55.347656 311.492188 C 55.425781 311.09375 55.542969 310.710938 55.699219 310.335938 C 55.851562 309.960938 56.042969 309.605469 56.269531 309.269531 C 56.492188 308.929688 56.75 308.621094 57.035156 308.332031 C 57.320312 308.046875 57.632812 307.792969 57.96875 307.566406 C 58.304688 307.339844 58.664062 307.152344 59.035156 306.996094 C 59.410156 306.839844 59.796875 306.722656 60.195312 306.644531 C 60.589844 306.566406 60.992188 306.527344 61.398438 306.527344 Z M 61.398438 306.527344 " fill-opacity="1" fill-rule="nonzero"/></g></g></g></g></svg>