<svg xmlns="http://www.w3.org/2000/svg" xmlns:xlink="http://www.w3.org/1999/xlink" width="995" zoomAndPan="magnify" viewBox="0 0 746.25 652.49998" height="870" preserveAspectRatio="xMidYMid meet" version="1.0"><defs><g/><clipPath id="3cb37edeed"><path d="M 0 0.078125 L 745.5 0.078125 L 745.5 651.921875 L 0 651.921875 Z M 0 0.078125 " clip-rule="nonzero"/></clipPath><clipPath id="878a78a7aa"><rect x="0" width="746" y="0" height="652"/></clipPath></defs><g clip-path="url(#3cb37edeed)"><g transform="matrix(1, 0, 0, 1, 0, 0.000000000000046449)"><g clip-path="url(#878a78a7aa)"><path fill="#6ce5e8" d="M 382.113281 59.058594 C 387.957031 59.058594 393.789062 59.238281 399.621094 59.597656 C 405.449219 59.953125 411.261719 60.492188 417.058594 61.207031 C 422.855469 61.921875 428.625 62.8125 434.367188 63.882812 C 440.109375 64.949219 445.8125 66.195312 451.476562 67.613281 C 457.140625 69.03125 462.757812 70.625 468.328125 72.386719 C 473.894531 74.152344 479.402344 76.085938 484.851562 78.1875 C 490.300781 80.289062 495.679688 82.554688 500.988281 84.988281 C 506.300781 87.417969 511.53125 90.011719 516.679688 92.765625 C 521.832031 95.519531 526.894531 98.425781 531.867188 101.492188 C 536.839844 104.554688 541.710938 107.769531 546.488281 111.132812 C 551.261719 114.496094 555.929688 118 560.488281 121.648438 C 565.050781 125.300781 569.492188 129.085938 573.820312 133.007812 C 578.148438 136.929688 582.351562 140.980469 586.429688 145.160156 C 590.507812 149.339844 594.453125 153.640625 598.269531 158.066406 C 602.085938 162.488281 605.761719 167.023438 609.296875 171.671875 C 612.832031 176.320312 616.222656 181.070312 619.46875 185.925781 C 622.714844 190.78125 625.804688 195.734375 628.746094 200.78125 C 631.6875 205.824219 634.472656 210.957031 637.097656 216.175781 C 639.722656 221.390625 642.1875 226.683594 644.488281 232.050781 C 646.789062 237.417969 648.921875 242.851562 650.890625 248.351562 C 652.859375 253.851562 654.65625 259.40625 656.28125 265.015625 C 657.910156 270.625 659.363281 276.277344 660.640625 281.976562 C 661.921875 287.675781 663.023438 293.40625 663.953125 299.171875 C 664.878906 304.941406 665.628906 310.730469 666.203125 316.542969 C 666.777344 322.355469 667.167969 328.179688 667.382812 334.015625 C 667.597656 339.851562 667.636719 345.6875 667.492188 351.527344 C 667.347656 357.367188 667.027344 363.195312 666.523438 369.011719 C 666.023438 374.832031 665.34375 380.628906 664.488281 386.40625 C 663.632812 392.183594 662.597656 397.929688 661.386719 403.644531 C 660.179688 409.359375 658.792969 415.03125 657.238281 420.660156 C 655.679688 426.289062 653.949219 431.863281 652.050781 437.386719 C 650.152344 442.910156 648.082031 448.367188 645.847656 453.761719 C 643.613281 459.160156 641.214844 464.480469 638.652344 469.730469 C 636.089844 474.980469 633.371094 480.144531 630.492188 485.226562 C 627.613281 490.308594 624.582031 495.296875 621.398438 500.191406 C 618.210938 505.085938 614.878906 509.878906 611.402344 514.570312 C 607.921875 519.261719 604.300781 523.84375 600.542969 528.3125 C 596.78125 532.78125 592.886719 537.128906 588.859375 541.359375 C 584.832031 545.589844 580.679688 549.691406 576.402344 553.667969 C 572.121094 557.640625 567.726562 561.484375 563.210938 565.1875 C 558.695312 568.894531 554.070312 572.457031 549.339844 575.878906 C 544.605469 579.296875 539.769531 582.570312 534.835938 585.695312 C 529.902344 588.820312 524.878906 591.792969 519.761719 594.605469 C 514.644531 597.421875 509.445312 600.078125 504.164062 602.578125 C 498.886719 605.074219 493.535156 607.40625 488.113281 609.574219 C 482.6875 611.746094 477.203125 613.746094 471.660156 615.578125 C 466.113281 617.410156 460.515625 619.070312 454.871094 620.558594 C 449.222656 622.046875 443.535156 623.359375 437.804688 624.5 C 432.078125 625.640625 426.320312 626.601562 420.53125 627.386719 C 414.746094 628.171875 408.9375 628.78125 403.113281 629.210938 C 397.289062 629.640625 391.457031 629.890625 385.617188 629.964844 C 379.777344 630.035156 373.941406 629.925781 368.109375 629.640625 C 362.273438 629.355469 356.457031 628.890625 350.648438 628.246094 C 344.84375 627.601562 339.066406 626.78125 333.3125 625.78125 C 327.558594 624.785156 321.839844 623.609375 316.15625 622.261719 C 310.472656 620.910156 304.839844 619.386719 299.25 617.691406 C 293.660156 615.996094 288.128906 614.132812 282.652344 612.097656 C 277.179688 610.0625 271.773438 607.863281 266.433594 605.496094 C 261.09375 603.128906 255.832031 600.601562 250.648438 597.910156 C 245.464844 595.21875 240.367188 592.375 235.355469 589.371094 C 230.347656 586.367188 225.433594 583.214844 220.621094 579.910156 C 215.804688 576.605469 211.09375 573.160156 206.488281 569.566406 C 201.882812 565.972656 197.394531 562.242188 193.019531 558.371094 C 188.644531 554.503906 184.390625 550.503906 180.261719 546.375 L 281.1875 445.449219 C 283.253906 447.511719 285.378906 449.511719 287.566406 451.445312 C 289.753906 453.382812 292 455.246094 294.300781 457.042969 C 296.605469 458.839844 298.960938 460.566406 301.367188 462.214844 C 303.773438 463.867188 306.230469 465.445312 308.734375 466.945312 C 311.242188 468.449219 313.789062 469.871094 316.382812 471.214844 C 318.972656 472.5625 321.605469 473.824219 324.273438 475.007812 C 326.945312 476.191406 329.648438 477.292969 332.382812 478.308594 C 335.121094 479.328125 337.886719 480.257812 340.683594 481.105469 C 343.476562 481.953125 346.292969 482.714844 349.136719 483.390625 C 351.976562 484.066406 354.835938 484.652344 357.714844 485.152344 C 360.589844 485.652344 363.480469 486.0625 366.382812 486.382812 C 369.285156 486.707031 372.195312 486.9375 375.109375 487.082031 C 378.027344 487.222656 380.945312 487.277344 383.867188 487.242188 C 386.785156 487.207031 389.703125 487.082031 392.613281 486.867188 C 395.527344 486.652344 398.429688 486.347656 401.324219 485.953125 C 404.21875 485.5625 407.097656 485.082031 409.960938 484.511719 C 412.824219 483.941406 415.667969 483.285156 418.492188 482.539062 C 421.316406 481.796875 424.113281 480.964844 426.886719 480.050781 C 429.660156 479.132812 432.402344 478.132812 435.113281 477.046875 C 437.824219 475.964844 440.5 474.796875 443.140625 473.550781 C 445.78125 472.300781 448.378906 470.972656 450.9375 469.5625 C 453.496094 468.15625 456.007812 466.671875 458.476562 465.109375 C 460.941406 463.546875 463.359375 461.910156 465.726562 460.199219 C 468.09375 458.488281 470.40625 456.707031 472.664062 454.855469 C 474.921875 453.003906 477.117188 451.082031 479.257812 449.09375 C 481.398438 447.105469 483.472656 445.054688 485.488281 442.941406 C 487.5 440.824219 489.449219 438.652344 491.328125 436.417969 C 493.207031 434.183594 495.019531 431.890625 496.757812 429.546875 C 498.496094 427.199219 500.164062 424.804688 501.753906 422.355469 C 503.347656 419.910156 504.863281 417.414062 506.304688 414.875 C 507.742188 412.332031 509.101562 409.75 510.382812 407.125 C 511.664062 404.5 512.863281 401.839844 513.980469 399.144531 C 515.097656 396.445312 516.132812 393.714844 517.082031 390.953125 C 518.03125 388.191406 518.898438 385.40625 519.675781 382.589844 C 520.453125 379.777344 521.148438 376.941406 521.75 374.082031 C 522.355469 371.226562 522.871094 368.351562 523.300781 365.464844 C 523.730469 362.574219 524.070312 359.675781 524.320312 356.769531 C 524.570312 353.859375 524.730469 350.945312 524.804688 348.023438 C 524.875 345.105469 524.855469 342.1875 524.75 339.269531 C 524.640625 336.351562 524.445312 333.4375 524.160156 330.53125 C 523.871094 327.625 523.496094 324.730469 523.035156 321.847656 C 522.570312 318.964844 522.019531 316.097656 521.378906 313.25 C 520.738281 310.398438 520.011719 307.574219 519.199219 304.769531 C 518.386719 301.964844 517.488281 299.1875 516.503906 296.4375 C 515.519531 293.6875 514.453125 290.96875 513.300781 288.285156 C 512.152344 285.601562 510.917969 282.957031 509.605469 280.347656 C 508.292969 277.738281 506.902344 275.171875 505.429688 272.652344 C 503.960938 270.128906 502.414062 267.652344 500.792969 265.222656 C 499.167969 262.796875 497.472656 260.421875 495.707031 258.097656 C 493.9375 255.773438 492.101562 253.503906 490.191406 251.292969 C 488.285156 249.082031 486.3125 246.929688 484.273438 244.839844 C 482.234375 242.75 480.132812 240.726562 477.96875 238.765625 C 475.804688 236.804688 473.582031 234.910156 471.300781 233.085938 C 469.023438 231.261719 466.6875 229.507812 464.300781 227.828125 C 461.914062 226.144531 459.476562 224.539062 456.988281 223.007812 C 454.503906 221.472656 451.972656 220.019531 449.398438 218.644531 C 446.824219 217.265625 444.207031 215.972656 441.550781 214.753906 C 438.898438 213.539062 436.207031 212.40625 433.484375 211.355469 C 430.757812 210.304688 428.003906 209.335938 425.21875 208.453125 C 422.4375 207.574219 419.628906 206.777344 416.796875 206.066406 C 413.964844 205.359375 411.109375 204.734375 408.242188 204.203125 C 405.371094 203.667969 402.484375 203.222656 399.585938 202.863281 C 396.6875 202.507812 393.78125 202.238281 390.867188 202.058594 C 387.953125 201.878906 385.035156 201.789062 382.113281 201.789062 Z M 382.113281 59.058594 " fill-opacity="1" fill-rule="nonzero"/><path fill="#41b8d5" d="M 180.261719 546.375 C 176.957031 543.070312 173.738281 539.6875 170.601562 536.226562 C 167.464844 532.765625 164.414062 529.230469 161.449219 525.617188 C 158.484375 522.007812 155.613281 518.324219 152.828125 514.570312 C 150.046875 510.820312 147.355469 507 144.761719 503.117188 C 142.164062 499.230469 139.667969 495.285156 137.265625 491.277344 C 134.863281 487.273438 132.5625 483.207031 130.359375 479.089844 C 128.15625 474.96875 126.058594 470.796875 124.058594 466.574219 C 122.0625 462.347656 120.167969 458.078125 118.382812 453.761719 C 116.59375 449.449219 114.914062 445.089844 113.339844 440.691406 C 111.765625 436.292969 110.300781 431.859375 108.945312 427.386719 C 107.585938 422.917969 106.34375 418.414062 105.207031 413.882812 C 104.070312 409.351562 103.046875 404.792969 102.136719 400.210938 C 101.226562 395.628906 100.425781 391.027344 99.742188 386.40625 C 99.054688 381.785156 98.484375 377.152344 98.027344 372.5 C 97.570312 367.851562 97.226562 363.195312 96.996094 358.527344 C 96.765625 353.863281 96.652344 349.195312 96.652344 344.523438 C 96.652344 339.851562 96.765625 335.179688 96.996094 330.515625 C 97.226562 325.847656 97.570312 321.191406 98.027344 316.542969 C 98.484375 311.890625 99.054688 307.257812 99.742188 302.636719 C 100.425781 298.015625 101.226562 293.414062 102.136719 288.832031 C 103.046875 284.25 104.070312 279.691406 105.207031 275.160156 C 106.34375 270.628906 107.585938 266.125 108.945312 261.65625 C 110.300781 257.183594 111.765625 252.75 113.339844 248.351562 C 114.914062 243.953125 116.59375 239.597656 118.382812 235.28125 C 120.167969 230.964844 122.0625 226.695312 124.058594 222.46875 C 126.058594 218.246094 128.15625 214.074219 130.359375 209.957031 C 132.5625 205.835938 134.863281 201.769531 137.265625 197.765625 C 139.667969 193.757812 142.164062 189.8125 144.761719 185.925781 C 147.355469 182.042969 150.046875 178.222656 152.828125 174.472656 C 155.613281 170.71875 158.484375 167.039062 161.449219 163.425781 C 164.414062 159.8125 167.464844 156.277344 170.601562 152.816406 C 173.738281 149.355469 176.957031 145.972656 180.261719 142.667969 L 281.1875 243.59375 C 279.535156 245.246094 277.925781 246.9375 276.359375 248.667969 C 274.789062 250.398438 273.261719 252.167969 271.78125 253.972656 C 270.300781 255.78125 268.863281 257.621094 267.472656 259.496094 C 266.082031 261.371094 264.734375 263.28125 263.4375 265.222656 C 262.140625 267.167969 260.890625 269.140625 259.691406 271.144531 C 258.488281 273.148438 257.339844 275.179688 256.238281 277.238281 C 255.136719 279.296875 254.085938 281.382812 253.085938 283.496094 C 252.089844 285.609375 251.140625 287.742188 250.246094 289.902344 C 249.355469 292.058594 248.511719 294.238281 247.726562 296.4375 C 246.941406 298.636719 246.207031 300.855469 245.527344 303.089844 C 244.851562 305.324219 244.226562 307.574219 243.660156 309.839844 C 243.09375 312.105469 242.582031 314.386719 242.125 316.675781 C 241.671875 318.96875 241.269531 321.269531 240.929688 323.578125 C 240.585938 325.890625 240.300781 328.207031 240.070312 330.53125 C 239.839844 332.855469 239.667969 335.183594 239.554688 337.519531 C 239.441406 339.851562 239.382812 342.1875 239.382812 344.523438 C 239.382812 346.859375 239.441406 349.191406 239.554688 351.523438 C 239.667969 353.859375 239.839844 356.1875 240.070312 358.511719 C 240.300781 360.835938 240.585938 363.152344 240.929688 365.464844 C 241.269531 367.773438 241.671875 370.074219 242.125 372.367188 C 242.582031 374.660156 243.09375 376.9375 243.660156 379.203125 C 244.226562 381.46875 244.851562 383.71875 245.527344 385.953125 C 246.207031 388.191406 246.941406 390.40625 247.726562 392.605469 C 248.515625 394.804688 249.355469 396.984375 250.246094 399.144531 C 251.140625 401.300781 252.089844 403.4375 253.085938 405.546875 C 254.085938 407.660156 255.136719 409.746094 256.238281 411.804688 C 257.339844 413.863281 258.488281 415.898438 259.691406 417.898438 C 260.890625 419.902344 262.140625 421.875 263.4375 423.820312 C 264.734375 425.761719 266.082031 427.671875 267.472656 429.546875 C 268.863281 431.421875 270.300781 433.265625 271.78125 435.070312 C 273.261719 436.875 274.789062 438.644531 276.359375 440.375 C 277.925781 442.105469 279.535156 443.796875 281.1875 445.449219 Z M 180.261719 546.375 " fill-opacity="1" fill-rule="nonzero"/><path fill="#2d8bba" d="M 180.261719 142.667969 C 186.871094 136.058594 193.789062 129.789062 201.015625 123.859375 C 208.242188 117.925781 215.742188 112.367188 223.515625 107.171875 C 231.285156 101.976562 239.292969 97.175781 247.539062 92.769531 C 255.78125 88.363281 264.222656 84.371094 272.859375 80.792969 C 281.496094 77.214844 290.285156 74.070312 299.230469 71.355469 C 308.175781 68.640625 317.234375 66.371094 326.402344 64.546875 C 335.570312 62.722656 344.808594 61.351562 354.109375 60.4375 C 363.414062 59.519531 372.738281 59.058594 382.085938 59.058594 L 382.101562 201.789062 C 377.425781 201.789062 372.765625 202.019531 368.113281 202.480469 C 363.460938 202.9375 358.84375 203.621094 354.257812 204.535156 C 349.675781 205.445312 345.144531 206.582031 340.671875 207.9375 C 336.199219 209.296875 331.804688 210.867188 327.488281 212.65625 C 323.167969 214.445312 318.949219 216.441406 314.828125 218.644531 C 310.703125 220.851562 306.699219 223.25 302.8125 225.847656 C 298.929688 228.445312 295.179688 231.222656 291.566406 234.191406 C 287.953125 237.15625 284.492188 240.289062 281.1875 243.59375 Z M 180.261719 142.667969 " fill-opacity="1" fill-rule="nonzero"/><g fill="#000000" fill-opacity="1"><g transform="translate(656.44346, 467.957995)"><g><path d="M 4.328125 0 L 2.4375 0 L 2.4375 -16.109375 L 4.328125 -16.109375 Z M 4.328125 0 "/></g></g><g transform="translate(663.2166, 467.957995)"><g><path d="M 8.21875 -1.921875 L 8.796875 -0.640625 C 8.503906 -0.347656 8.125 -0.128906 7.65625 0.015625 C 7.195312 0.160156 6.691406 0.234375 6.140625 0.234375 C 3.828125 0.234375 2.671875 -0.941406 2.671875 -3.296875 L 2.671875 -10.6875 L 0.546875 -10.6875 L 0.546875 -12.15625 L 2.671875 -12.15625 L 2.671875 -14.734375 L 4.46875 -15.03125 L 4.46875 -12.15625 L 8.375 -12.15625 L 8.375 -10.6875 L 4.46875 -10.6875 L 4.46875 -3.46875 C 4.46875 -2.070312 5.070312 -1.375 6.28125 -1.375 C 6.9375 -1.375 7.503906 -1.554688 7.984375 -1.921875 Z M 8.21875 -1.921875 "/></g></g></g><g fill="#000000" fill-opacity="1"><g transform="translate(672.324547, 467.957995)"><g><path d="M 11.578125 -5.65625 L 3.234375 -5.65625 C 3.285156 -4.1875 3.640625 -3.101562 4.296875 -2.40625 C 4.953125 -1.71875 5.851562 -1.375 7 -1.375 C 7.863281 -1.375 8.554688 -1.523438 9.078125 -1.828125 C 9.609375 -2.140625 10.023438 -2.628906 10.328125 -3.296875 L 10.5625 -3.296875 L 11.734375 -2.59375 C 11.378906 -1.71875 10.8125 -1.023438 10.03125 -0.515625 C 9.257812 -0.015625 8.25 0.234375 7 0.234375 C 5.820312 0.234375 4.8125 0.00390625 3.96875 -0.453125 C 3.125 -0.921875 2.472656 -1.625 2.015625 -2.5625 C 1.554688 -3.507812 1.328125 -4.675781 1.328125 -6.0625 C 1.328125 -7.445312 1.566406 -8.613281 2.046875 -9.5625 C 2.535156 -10.507812 3.195312 -11.21875 4.03125 -11.6875 C 4.863281 -12.15625 5.816406 -12.390625 6.890625 -12.390625 C 8.441406 -12.390625 9.65625 -11.945312 10.53125 -11.0625 C 11.40625 -10.1875 11.847656 -8.882812 11.859375 -7.15625 C 11.859375 -6.476562 11.84375 -6.023438 11.8125 -5.796875 Z M 10.078125 -7.15625 C 10.046875 -8.445312 9.757812 -9.382812 9.21875 -9.96875 C 8.675781 -10.5625 7.898438 -10.859375 6.890625 -10.859375 C 5.816406 -10.859375 4.976562 -10.5625 4.375 -9.96875 C 3.769531 -9.382812 3.398438 -8.445312 3.265625 -7.15625 Z M 10.078125 -7.15625 "/></g></g><g transform="translate(685.276113, 467.957995)"><g><path d="M 2.109375 0 L 2.109375 -12.15625 L 3.828125 -12.15625 L 3.828125 -10.359375 L 4.046875 -10.3125 C 4.460938 -11 4.960938 -11.515625 5.546875 -11.859375 C 6.128906 -12.210938 6.828125 -12.390625 7.640625 -12.390625 C 8.585938 -12.390625 9.316406 -12.207031 9.828125 -11.84375 C 10.335938 -11.488281 10.738281 -10.914062 11.03125 -10.125 L 11.265625 -10.125 C 11.679688 -10.863281 12.195312 -11.425781 12.8125 -11.8125 C 13.425781 -12.195312 14.179688 -12.390625 15.078125 -12.390625 C 16.316406 -12.390625 17.242188 -12.050781 17.859375 -11.375 C 18.472656 -10.695312 18.78125 -9.664062 18.78125 -8.28125 L 18.78125 0 L 16.984375 0 L 16.984375 -8.234375 C 16.984375 -9.117188 16.796875 -9.769531 16.421875 -10.1875 C 16.054688 -10.601562 15.460938 -10.8125 14.640625 -10.8125 C 13.671875 -10.8125 12.878906 -10.457031 12.265625 -9.75 C 11.648438 -9.050781 11.34375 -7.894531 11.34375 -6.28125 L 11.34375 0 L 9.546875 0 L 9.546875 -8.234375 C 9.546875 -9.117188 9.359375 -9.769531 8.984375 -10.1875 C 8.617188 -10.601562 8.023438 -10.8125 7.203125 -10.8125 C 6.234375 -10.8125 5.441406 -10.46875 4.828125 -9.78125 C 4.210938 -9.101562 3.90625 -8 3.90625 -6.46875 L 3.90625 0 Z M 2.109375 0 "/></g></g><g transform="translate(705.980997, 467.957995)"><g/></g><g transform="translate(711.509642, 467.957995)"><g><path d="M 1.140625 0 L 1.140625 -1.5625 L 5.546875 -1.5625 L 5.546875 -13.875 L 5.28125 -13.953125 C 4.570312 -13.597656 3.945312 -13.328125 3.40625 -13.140625 C 2.875 -12.953125 2.191406 -12.769531 1.359375 -12.59375 L 1.359375 -14.328125 C 2.179688 -14.503906 3 -14.742188 3.8125 -15.046875 C 4.625 -15.347656 5.363281 -15.703125 6.03125 -16.109375 L 7.390625 -16.109375 L 7.390625 -1.5625 L 11.328125 -1.5625 L 11.328125 0 Z M 1.140625 0 "/></g></g></g><g fill="#000000" fill-opacity="1"><g transform="translate(658.293683, 493.200333)"><g><path d="M 7.6875 0.234375 C 6.550781 0.234375 5.53125 -0.0351562 4.625 -0.578125 C 3.71875 -1.128906 2.992188 -2.019531 2.453125 -3.25 C 1.921875 -4.488281 1.65625 -6.085938 1.65625 -8.046875 C 1.65625 -9.953125 1.921875 -11.523438 2.453125 -12.765625 C 2.992188 -14.003906 3.726562 -14.910156 4.65625 -15.484375 C 5.59375 -16.054688 6.660156 -16.34375 7.859375 -16.34375 C 9.929688 -16.34375 11.453125 -15.710938 12.421875 -14.453125 L 11.5 -13.203125 L 11.21875 -13.203125 C 10.425781 -14.160156 9.304688 -14.640625 7.859375 -14.640625 C 6.460938 -14.640625 5.394531 -14.113281 4.65625 -13.0625 C 3.925781 -12.007812 3.5625 -10.328125 3.5625 -8.015625 L 3.796875 -7.9375 C 4.242188 -8.851562 4.816406 -9.535156 5.515625 -9.984375 C 6.222656 -10.441406 7.09375 -10.671875 8.125 -10.671875 C 9.144531 -10.671875 10.023438 -10.453125 10.765625 -10.015625 C 11.515625 -9.585938 12.085938 -8.960938 12.484375 -8.140625 C 12.878906 -7.328125 13.078125 -6.363281 13.078125 -5.25 C 13.078125 -4.125 12.851562 -3.148438 12.40625 -2.328125 C 11.96875 -1.515625 11.34375 -0.882812 10.53125 -0.4375 C 9.71875 0.0078125 8.769531 0.234375 7.6875 0.234375 Z M 7.6875 -1.46875 C 8.75 -1.46875 9.582031 -1.789062 10.1875 -2.4375 C 10.789062 -3.09375 11.09375 -4.03125 11.09375 -5.25 C 11.09375 -6.46875 10.789062 -7.398438 10.1875 -8.046875 C 9.582031 -8.691406 8.75 -9.015625 7.6875 -9.015625 C 6.957031 -9.015625 6.320312 -8.863281 5.78125 -8.5625 C 5.25 -8.269531 4.835938 -7.84375 4.546875 -7.28125 C 4.265625 -6.71875 4.125 -6.039062 4.125 -5.25 C 4.125 -4.457031 4.265625 -3.78125 4.546875 -3.21875 C 4.835938 -2.65625 5.25 -2.222656 5.78125 -1.921875 C 6.320312 -1.617188 6.957031 -1.46875 7.6875 -1.46875 Z M 7.6875 -1.46875 "/></g></g><g transform="translate(672.798116, 493.200333)"><g><path d="M 0.96875 -0.734375 C 0.96875 -1.628906 1.0625 -2.347656 1.25 -2.890625 C 1.445312 -3.429688 1.78125 -3.9375 2.25 -4.40625 C 2.726562 -4.875 3.476562 -5.484375 4.5 -6.234375 L 6.28125 -7.53125 C 6.9375 -8 7.46875 -8.4375 7.875 -8.84375 C 8.289062 -9.25 8.613281 -9.6875 8.84375 -10.15625 C 9.082031 -10.632812 9.203125 -11.164062 9.203125 -11.75 C 9.203125 -12.707031 8.945312 -13.425781 8.4375 -13.90625 C 7.9375 -14.394531 7.144531 -14.640625 6.0625 -14.640625 C 5.21875 -14.640625 4.460938 -14.441406 3.796875 -14.046875 C 3.140625 -13.648438 2.613281 -13.085938 2.21875 -12.359375 L 1.96875 -12.3125 L 0.828125 -13.5 C 1.367188 -14.382812 2.082031 -15.078125 2.96875 -15.578125 C 3.851562 -16.085938 4.882812 -16.34375 6.0625 -16.34375 C 7.207031 -16.34375 8.160156 -16.144531 8.921875 -15.75 C 9.679688 -15.363281 10.238281 -14.828125 10.59375 -14.140625 C 10.957031 -13.453125 11.140625 -12.65625 11.140625 -11.75 C 11.140625 -11.03125 10.988281 -10.359375 10.6875 -9.734375 C 10.382812 -9.109375 9.957031 -8.519531 9.40625 -7.96875 C 8.851562 -7.425781 8.164062 -6.847656 7.34375 -6.234375 L 5.546875 -4.921875 C 4.867188 -4.429688 4.347656 -4.015625 3.984375 -3.671875 C 3.628906 -3.328125 3.367188 -2.988281 3.203125 -2.65625 C 3.046875 -2.332031 2.96875 -1.96875 2.96875 -1.5625 L 11.140625 -1.5625 L 11.140625 0 L 0.96875 0 Z M 0.96875 -0.734375 "/></g></g><g transform="translate(685.176994, 493.200333)"><g><path d="M 2.96875 0.109375 C 2.539062 0.109375 2.207031 -0.00390625 1.96875 -0.234375 C 1.726562 -0.472656 1.609375 -0.785156 1.609375 -1.171875 C 1.609375 -1.554688 1.726562 -1.867188 1.96875 -2.109375 C 2.207031 -2.359375 2.539062 -2.484375 2.96875 -2.484375 C 3.394531 -2.484375 3.726562 -2.363281 3.96875 -2.125 C 4.207031 -1.894531 4.328125 -1.585938 4.328125 -1.203125 C 4.328125 -0.804688 4.203125 -0.488281 3.953125 -0.25 C 3.710938 -0.0078125 3.382812 0.109375 2.96875 0.109375 Z M 2.96875 0.109375 "/></g></g><g transform="translate(691.113128, 493.200333)"><g><path d="M 6.625 0.234375 C 5.125 0.234375 3.921875 -0.0976562 3.015625 -0.765625 C 2.117188 -1.441406 1.535156 -2.390625 1.265625 -3.609375 L 2.671875 -4.25 L 2.921875 -4.203125 C 3.097656 -3.578125 3.335938 -3.066406 3.640625 -2.671875 C 3.941406 -2.273438 4.332031 -1.972656 4.8125 -1.765625 C 5.300781 -1.566406 5.90625 -1.46875 6.625 -1.46875 C 7.71875 -1.46875 8.566406 -1.789062 9.171875 -2.4375 C 9.773438 -3.09375 10.078125 -4.039062 10.078125 -5.28125 C 10.078125 -6.550781 9.78125 -7.515625 9.1875 -8.171875 C 8.59375 -8.828125 7.769531 -9.15625 6.71875 -9.15625 C 5.914062 -9.15625 5.265625 -8.992188 4.765625 -8.671875 C 4.265625 -8.347656 3.828125 -7.851562 3.453125 -7.1875 L 1.921875 -7.3125 L 2.234375 -16.109375 L 11.265625 -16.109375 L 11.265625 -14.5 L 3.890625 -14.5 L 3.703125 -9.15625 L 3.9375 -9.109375 C 4.3125 -9.671875 4.769531 -10.085938 5.3125 -10.359375 C 5.863281 -10.640625 6.523438 -10.78125 7.296875 -10.78125 C 8.253906 -10.78125 9.09375 -10.5625 9.8125 -10.125 C 10.53125 -9.695312 11.082031 -9.070312 11.46875 -8.25 C 11.863281 -7.425781 12.0625 -6.4375 12.0625 -5.28125 C 12.0625 -4.132812 11.832031 -3.144531 11.375 -2.3125 C 10.925781 -1.488281 10.289062 -0.859375 9.46875 -0.421875 C 8.65625 0.015625 7.707031 0.234375 6.625 0.234375 Z M 6.625 0.234375 "/></g></g></g><g fill="#000000" fill-opacity="1"><g transform="translate(704.020641, 493.200333)"><g><path d="M 4.578125 -7.359375 C 3.859375 -7.359375 3.222656 -7.519531 2.671875 -7.84375 C 2.117188 -8.164062 1.6875 -8.660156 1.375 -9.328125 C 1.070312 -9.992188 0.921875 -10.835938 0.921875 -11.859375 C 0.921875 -13.359375 1.25 -14.476562 1.90625 -15.21875 C 2.570312 -15.96875 3.460938 -16.34375 4.578125 -16.34375 C 5.296875 -16.34375 5.925781 -16.179688 6.46875 -15.859375 C 7.019531 -15.535156 7.445312 -15.039062 7.75 -14.375 C 8.0625 -13.707031 8.21875 -12.867188 8.21875 -11.859375 C 8.21875 -10.835938 8.0625 -9.992188 7.75 -9.328125 C 7.445312 -8.660156 7.019531 -8.164062 6.46875 -7.84375 C 5.925781 -7.519531 5.296875 -7.359375 4.578125 -7.359375 Z M 4.953125 0 L 3.34375 0 L 3.296875 -0.234375 L 14.0625 -16.109375 L 15.671875 -16.109375 L 15.71875 -15.875 Z M 4.578125 -8.75 C 5.273438 -8.75 5.785156 -8.984375 6.109375 -9.453125 C 6.441406 -9.929688 6.609375 -10.734375 6.609375 -11.859375 C 6.609375 -12.984375 6.441406 -13.78125 6.109375 -14.25 C 5.785156 -14.71875 5.273438 -14.953125 4.578125 -14.953125 C 4.109375 -14.953125 3.722656 -14.851562 3.421875 -14.65625 C 3.128906 -14.457031 2.90625 -14.128906 2.75 -13.671875 C 2.601562 -13.222656 2.53125 -12.617188 2.53125 -11.859375 C 2.53125 -11.085938 2.601562 -10.472656 2.75 -10.015625 C 2.90625 -9.566406 3.128906 -9.242188 3.421875 -9.046875 C 3.722656 -8.847656 4.109375 -8.75 4.578125 -8.75 Z M 14.46875 0.234375 C 13.351562 0.234375 12.460938 -0.132812 11.796875 -0.875 C 11.140625 -1.625 10.8125 -2.75 10.8125 -4.25 C 10.8125 -5.757812 11.140625 -6.882812 11.796875 -7.625 C 12.460938 -8.375 13.351562 -8.75 14.46875 -8.75 C 15.195312 -8.75 15.832031 -8.585938 16.375 -8.265625 C 16.914062 -7.941406 17.335938 -7.441406 17.640625 -6.765625 C 17.953125 -6.097656 18.109375 -5.257812 18.109375 -4.25 C 18.109375 -3.238281 17.953125 -2.398438 17.640625 -1.734375 C 17.335938 -1.066406 16.914062 -0.570312 16.375 -0.25 C 15.832031 0.0703125 15.195312 0.234375 14.46875 0.234375 Z M 14.46875 -1.140625 C 15.164062 -1.140625 15.675781 -1.375 16 -1.84375 C 16.332031 -2.320312 16.5 -3.125 16.5 -4.25 C 16.5 -5.375 16.332031 -6.171875 16 -6.640625 C 15.675781 -7.117188 15.164062 -7.359375 14.46875 -7.359375 C 13.769531 -7.359375 13.253906 -7.125 12.921875 -6.65625 C 12.585938 -6.1875 12.421875 -5.382812 12.421875 -4.25 C 12.421875 -3.125 12.585938 -2.320312 12.921875 -1.84375 C 13.253906 -1.375 13.769531 -1.140625 14.46875 -1.140625 Z M 14.46875 -1.140625 "/></g></g></g><g fill="#000000" fill-opacity="1"><g transform="translate(19.250634, 340.017227)"><g><path d="M 4.328125 0 L 2.4375 0 L 2.4375 -16.109375 L 4.328125 -16.109375 Z M 4.328125 0 "/></g></g><g transform="translate(26.023775, 340.017227)"><g><path d="M 8.21875 -1.921875 L 8.796875 -0.640625 C 8.503906 -0.347656 8.125 -0.128906 7.65625 0.015625 C 7.195312 0.160156 6.691406 0.234375 6.140625 0.234375 C 3.828125 0.234375 2.671875 -0.941406 2.671875 -3.296875 L 2.671875 -10.6875 L 0.546875 -10.6875 L 0.546875 -12.15625 L 2.671875 -12.15625 L 2.671875 -14.734375 L 4.46875 -15.03125 L 4.46875 -12.15625 L 8.375 -12.15625 L 8.375 -10.6875 L 4.46875 -10.6875 L 4.46875 -3.46875 C 4.46875 -2.070312 5.070312 -1.375 6.28125 -1.375 C 6.9375 -1.375 7.503906 -1.554688 7.984375 -1.921875 Z M 8.21875 -1.921875 "/></g></g></g><g fill="#000000" fill-opacity="1"><g transform="translate(35.131721, 340.017227)"><g><path d="M 11.578125 -5.65625 L 3.234375 -5.65625 C 3.285156 -4.1875 3.640625 -3.101562 4.296875 -2.40625 C 4.953125 -1.71875 5.851562 -1.375 7 -1.375 C 7.863281 -1.375 8.554688 -1.523438 9.078125 -1.828125 C 9.609375 -2.140625 10.023438 -2.628906 10.328125 -3.296875 L 10.5625 -3.296875 L 11.734375 -2.59375 C 11.378906 -1.71875 10.8125 -1.023438 10.03125 -0.515625 C 9.257812 -0.015625 8.25 0.234375 7 0.234375 C 5.820312 0.234375 4.8125 0.00390625 3.96875 -0.453125 C 3.125 -0.921875 2.472656 -1.625 2.015625 -2.5625 C 1.554688 -3.507812 1.328125 -4.675781 1.328125 -6.0625 C 1.328125 -7.445312 1.566406 -8.613281 2.046875 -9.5625 C 2.535156 -10.507812 3.195312 -11.21875 4.03125 -11.6875 C 4.863281 -12.15625 5.816406 -12.390625 6.890625 -12.390625 C 8.441406 -12.390625 9.65625 -11.945312 10.53125 -11.0625 C 11.40625 -10.1875 11.847656 -8.882812 11.859375 -7.15625 C 11.859375 -6.476562 11.84375 -6.023438 11.8125 -5.796875 Z M 10.078125 -7.15625 C 10.046875 -8.445312 9.757812 -9.382812 9.21875 -9.96875 C 8.675781 -10.5625 7.898438 -10.859375 6.890625 -10.859375 C 5.816406 -10.859375 4.976562 -10.5625 4.375 -9.96875 C 3.769531 -9.382812 3.398438 -8.445312 3.265625 -7.15625 Z M 10.078125 -7.15625 "/></g></g><g transform="translate(48.083287, 340.017227)"><g><path d="M 2.109375 0 L 2.109375 -12.15625 L 3.828125 -12.15625 L 3.828125 -10.359375 L 4.046875 -10.3125 C 4.460938 -11 4.960938 -11.515625 5.546875 -11.859375 C 6.128906 -12.210938 6.828125 -12.390625 7.640625 -12.390625 C 8.585938 -12.390625 9.316406 -12.207031 9.828125 -11.84375 C 10.335938 -11.488281 10.738281 -10.914062 11.03125 -10.125 L 11.265625 -10.125 C 11.679688 -10.863281 12.195312 -11.425781 12.8125 -11.8125 C 13.425781 -12.195312 14.179688 -12.390625 15.078125 -12.390625 C 16.316406 -12.390625 17.242188 -12.050781 17.859375 -11.375 C 18.472656 -10.695312 18.78125 -9.664062 18.78125 -8.28125 L 18.78125 0 L 16.984375 0 L 16.984375 -8.234375 C 16.984375 -9.117188 16.796875 -9.769531 16.421875 -10.1875 C 16.054688 -10.601562 15.460938 -10.8125 14.640625 -10.8125 C 13.671875 -10.8125 12.878906 -10.457031 12.265625 -9.75 C 11.648438 -9.050781 11.34375 -7.894531 11.34375 -6.28125 L 11.34375 0 L 9.546875 0 L 9.546875 -8.234375 C 9.546875 -9.117188 9.359375 -9.769531 8.984375 -10.1875 C 8.617188 -10.601562 8.023438 -10.8125 7.203125 -10.8125 C 6.234375 -10.8125 5.441406 -10.46875 4.828125 -9.78125 C 4.210938 -9.101562 3.90625 -8 3.90625 -6.46875 L 3.90625 0 Z M 2.109375 0 "/></g></g><g transform="translate(68.788172, 340.017227)"><g/></g><g transform="translate(74.316817, 340.017227)"><g><path d="M 0.96875 -0.734375 C 0.96875 -1.628906 1.0625 -2.347656 1.25 -2.890625 C 1.445312 -3.429688 1.78125 -3.9375 2.25 -4.40625 C 2.726562 -4.875 3.476562 -5.484375 4.5 -6.234375 L 6.28125 -7.53125 C 6.9375 -8 7.46875 -8.4375 7.875 -8.84375 C 8.289062 -9.25 8.613281 -9.6875 8.84375 -10.15625 C 9.082031 -10.632812 9.203125 -11.164062 9.203125 -11.75 C 9.203125 -12.707031 8.945312 -13.425781 8.4375 -13.90625 C 7.9375 -14.394531 7.144531 -14.640625 6.0625 -14.640625 C 5.21875 -14.640625 4.460938 -14.441406 3.796875 -14.046875 C 3.140625 -13.648438 2.613281 -13.085938 2.21875 -12.359375 L 1.96875 -12.3125 L 0.828125 -13.5 C 1.367188 -14.382812 2.082031 -15.078125 2.96875 -15.578125 C 3.851562 -16.085938 4.882812 -16.34375 6.0625 -16.34375 C 7.207031 -16.34375 8.160156 -16.144531 8.921875 -15.75 C 9.679688 -15.363281 10.238281 -14.828125 10.59375 -14.140625 C 10.957031 -13.453125 11.140625 -12.65625 11.140625 -11.75 C 11.140625 -11.03125 10.988281 -10.359375 10.6875 -9.734375 C 10.382812 -9.109375 9.957031 -8.519531 9.40625 -7.96875 C 8.851562 -7.425781 8.164062 -6.847656 7.34375 -6.234375 L 5.546875 -4.921875 C 4.867188 -4.429688 4.347656 -4.015625 3.984375 -3.671875 C 3.628906 -3.328125 3.367188 -2.988281 3.203125 -2.65625 C 3.046875 -2.332031 2.96875 -1.96875 2.96875 -1.5625 L 11.140625 -1.5625 L 11.140625 0 L 0.96875 0 Z M 0.96875 -0.734375 "/></g></g></g><g fill="#000000" fill-opacity="1"><g transform="translate(31.321141, 365.248552)"><g><path d="M 0.96875 -0.734375 C 0.96875 -1.628906 1.0625 -2.347656 1.25 -2.890625 C 1.445312 -3.429688 1.78125 -3.9375 2.25 -4.40625 C 2.726562 -4.875 3.476562 -5.484375 4.5 -6.234375 L 6.28125 -7.53125 C 6.9375 -8 7.46875 -8.4375 7.875 -8.84375 C 8.289062 -9.25 8.613281 -9.6875 8.84375 -10.15625 C 9.082031 -10.632812 9.203125 -11.164062 9.203125 -11.75 C 9.203125 -12.707031 8.945312 -13.425781 8.4375 -13.90625 C 7.9375 -14.394531 7.144531 -14.640625 6.0625 -14.640625 C 5.21875 -14.640625 4.460938 -14.441406 3.796875 -14.046875 C 3.140625 -13.648438 2.613281 -13.085938 2.21875 -12.359375 L 1.96875 -12.3125 L 0.828125 -13.5 C 1.367188 -14.382812 2.082031 -15.078125 2.96875 -15.578125 C 3.851562 -16.085938 4.882812 -16.34375 6.0625 -16.34375 C 7.207031 -16.34375 8.160156 -16.144531 8.921875 -15.75 C 9.679688 -15.363281 10.238281 -14.828125 10.59375 -14.140625 C 10.957031 -13.453125 11.140625 -12.65625 11.140625 -11.75 C 11.140625 -11.03125 10.988281 -10.359375 10.6875 -9.734375 C 10.382812 -9.109375 9.957031 -8.519531 9.40625 -7.96875 C 8.851562 -7.425781 8.164062 -6.847656 7.34375 -6.234375 L 5.546875 -4.921875 C 4.867188 -4.429688 4.347656 -4.015625 3.984375 -3.671875 C 3.628906 -3.328125 3.367188 -2.988281 3.203125 -2.65625 C 3.046875 -2.332031 2.96875 -1.96875 2.96875 -1.5625 L 11.140625 -1.5625 L 11.140625 0 L 0.96875 0 Z M 0.96875 -0.734375 "/></g></g><g transform="translate(43.700019, 365.248552)"><g><path d="M 6.625 0.234375 C 5.125 0.234375 3.921875 -0.0976562 3.015625 -0.765625 C 2.117188 -1.441406 1.535156 -2.390625 1.265625 -3.609375 L 2.671875 -4.25 L 2.921875 -4.203125 C 3.097656 -3.578125 3.335938 -3.066406 3.640625 -2.671875 C 3.941406 -2.273438 4.332031 -1.972656 4.8125 -1.765625 C 5.300781 -1.566406 5.90625 -1.46875 6.625 -1.46875 C 7.71875 -1.46875 8.566406 -1.789062 9.171875 -2.4375 C 9.773438 -3.09375 10.078125 -4.039062 10.078125 -5.28125 C 10.078125 -6.550781 9.78125 -7.515625 9.1875 -8.171875 C 8.59375 -8.828125 7.769531 -9.15625 6.71875 -9.15625 C 5.914062 -9.15625 5.265625 -8.992188 4.765625 -8.671875 C 4.265625 -8.347656 3.828125 -7.851562 3.453125 -7.1875 L 1.921875 -7.3125 L 2.234375 -16.109375 L 11.265625 -16.109375 L 11.265625 -14.5 L 3.890625 -14.5 L 3.703125 -9.15625 L 3.9375 -9.109375 C 4.3125 -9.671875 4.769531 -10.085938 5.3125 -10.359375 C 5.863281 -10.640625 6.523438 -10.78125 7.296875 -10.78125 C 8.253906 -10.78125 9.09375 -10.5625 9.8125 -10.125 C 10.53125 -9.695312 11.082031 -9.070312 11.46875 -8.25 C 11.863281 -7.425781 12.0625 -6.4375 12.0625 -5.28125 C 12.0625 -4.132812 11.832031 -3.144531 11.375 -2.3125 C 10.925781 -1.488281 10.289062 -0.859375 9.46875 -0.421875 C 8.65625 0.015625 7.707031 0.234375 6.625 0.234375 Z M 6.625 0.234375 "/></g></g></g><g fill="#000000" fill-opacity="1"><g transform="translate(56.607532, 365.248552)"><g><path d="M 4.578125 -7.359375 C 3.859375 -7.359375 3.222656 -7.519531 2.671875 -7.84375 C 2.117188 -8.164062 1.6875 -8.660156 1.375 -9.328125 C 1.070312 -9.992188 0.921875 -10.835938 0.921875 -11.859375 C 0.921875 -13.359375 1.25 -14.476562 1.90625 -15.21875 C 2.570312 -15.96875 3.460938 -16.34375 4.578125 -16.34375 C 5.296875 -16.34375 5.925781 -16.179688 6.46875 -15.859375 C 7.019531 -15.535156 7.445312 -15.039062 7.75 -14.375 C 8.0625 -13.707031 8.21875 -12.867188 8.21875 -11.859375 C 8.21875 -10.835938 8.0625 -9.992188 7.75 -9.328125 C 7.445312 -8.660156 7.019531 -8.164062 6.46875 -7.84375 C 5.925781 -7.519531 5.296875 -7.359375 4.578125 -7.359375 Z M 4.953125 0 L 3.34375 0 L 3.296875 -0.234375 L 14.0625 -16.109375 L 15.671875 -16.109375 L 15.71875 -15.875 Z M 4.578125 -8.75 C 5.273438 -8.75 5.785156 -8.984375 6.109375 -9.453125 C 6.441406 -9.929688 6.609375 -10.734375 6.609375 -11.859375 C 6.609375 -12.984375 6.441406 -13.78125 6.109375 -14.25 C 5.785156 -14.71875 5.273438 -14.953125 4.578125 -14.953125 C 4.109375 -14.953125 3.722656 -14.851562 3.421875 -14.65625 C 3.128906 -14.457031 2.90625 -14.128906 2.75 -13.671875 C 2.601562 -13.222656 2.53125 -12.617188 2.53125 -11.859375 C 2.53125 -11.085938 2.601562 -10.472656 2.75 -10.015625 C 2.90625 -9.566406 3.128906 -9.242188 3.421875 -9.046875 C 3.722656 -8.847656 4.109375 -8.75 4.578125 -8.75 Z M 14.46875 0.234375 C 13.351562 0.234375 12.460938 -0.132812 11.796875 -0.875 C 11.140625 -1.625 10.8125 -2.75 10.8125 -4.25 C 10.8125 -5.757812 11.140625 -6.882812 11.796875 -7.625 C 12.460938 -8.375 13.351562 -8.75 14.46875 -8.75 C 15.195312 -8.75 15.832031 -8.585938 16.375 -8.265625 C 16.914062 -7.941406 17.335938 -7.441406 17.640625 -6.765625 C 17.953125 -6.097656 18.109375 -5.257812 18.109375 -4.25 C 18.109375 -3.238281 17.953125 -2.398438 17.640625 -1.734375 C 17.335938 -1.066406 16.914062 -0.570312 16.375 -0.25 C 15.832031 0.0703125 15.195312 0.234375 14.46875 0.234375 Z M 14.46875 -1.140625 C 15.164062 -1.140625 15.675781 -1.375 16 -1.84375 C 16.332031 -2.320312 16.5 -3.125 16.5 -4.25 C 16.5 -5.375 16.332031 -6.171875 16 -6.640625 C 15.675781 -7.117188 15.164062 -7.359375 14.46875 -7.359375 C 13.769531 -7.359375 13.253906 -7.125 12.921875 -6.65625 C 12.585938 -6.1875 12.421875 -5.382812 12.421875 -4.25 C 12.421875 -3.125 12.585938 -2.320312 12.921875 -1.84375 C 13.253906 -1.375 13.769531 -1.140625 14.46875 -1.140625 Z M 14.46875 -1.140625 "/></g></g></g><g fill="#000000" fill-opacity="1"><g transform="translate(222.301671, 37.65983)"><g><path d="M 4.328125 0 L 2.4375 0 L 2.4375 -16.109375 L 4.328125 -16.109375 Z M 4.328125 0 "/></g></g><g transform="translate(229.074812, 37.65983)"><g><path d="M 8.21875 -1.921875 L 8.796875 -0.640625 C 8.503906 -0.347656 8.125 -0.128906 7.65625 0.015625 C 7.195312 0.160156 6.691406 0.234375 6.140625 0.234375 C 3.828125 0.234375 2.671875 -0.941406 2.671875 -3.296875 L 2.671875 -10.6875 L 0.546875 -10.6875 L 0.546875 -12.15625 L 2.671875 -12.15625 L 2.671875 -14.734375 L 4.46875 -15.03125 L 4.46875 -12.15625 L 8.375 -12.15625 L 8.375 -10.6875 L 4.46875 -10.6875 L 4.46875 -3.46875 C 4.46875 -2.070312 5.070312 -1.375 6.28125 -1.375 C 6.9375 -1.375 7.503906 -1.554688 7.984375 -1.921875 Z M 8.21875 -1.921875 "/></g></g></g><g fill="#000000" fill-opacity="1"><g transform="translate(238.182758, 37.65983)"><g><path d="M 11.578125 -5.65625 L 3.234375 -5.65625 C 3.285156 -4.1875 3.640625 -3.101562 4.296875 -2.40625 C 4.953125 -1.71875 5.851562 -1.375 7 -1.375 C 7.863281 -1.375 8.554688 -1.523438 9.078125 -1.828125 C 9.609375 -2.140625 10.023438 -2.628906 10.328125 -3.296875 L 10.5625 -3.296875 L 11.734375 -2.59375 C 11.378906 -1.71875 10.8125 -1.023438 10.03125 -0.515625 C 9.257812 -0.015625 8.25 0.234375 7 0.234375 C 5.820312 0.234375 4.8125 0.00390625 3.96875 -0.453125 C 3.125 -0.921875 2.472656 -1.625 2.015625 -2.5625 C 1.554688 -3.507812 1.328125 -4.675781 1.328125 -6.0625 C 1.328125 -7.445312 1.566406 -8.613281 2.046875 -9.5625 C 2.535156 -10.507812 3.195312 -11.21875 4.03125 -11.6875 C 4.863281 -12.15625 5.816406 -12.390625 6.890625 -12.390625 C 8.441406 -12.390625 9.65625 -11.945312 10.53125 -11.0625 C 11.40625 -10.1875 11.847656 -8.882812 11.859375 -7.15625 C 11.859375 -6.476562 11.84375 -6.023438 11.8125 -5.796875 Z M 10.078125 -7.15625 C 10.046875 -8.445312 9.757812 -9.382812 9.21875 -9.96875 C 8.675781 -10.5625 7.898438 -10.859375 6.890625 -10.859375 C 5.816406 -10.859375 4.976562 -10.5625 4.375 -9.96875 C 3.769531 -9.382812 3.398438 -8.445312 3.265625 -7.15625 Z M 10.078125 -7.15625 "/></g></g><g transform="translate(251.134324, 37.65983)"><g><path d="M 2.109375 0 L 2.109375 -12.15625 L 3.828125 -12.15625 L 3.828125 -10.359375 L 4.046875 -10.3125 C 4.460938 -11 4.960938 -11.515625 5.546875 -11.859375 C 6.128906 -12.210938 6.828125 -12.390625 7.640625 -12.390625 C 8.585938 -12.390625 9.316406 -12.207031 9.828125 -11.84375 C 10.335938 -11.488281 10.738281 -10.914062 11.03125 -10.125 L 11.265625 -10.125 C 11.679688 -10.863281 12.195312 -11.425781 12.8125 -11.8125 C 13.425781 -12.195312 14.179688 -12.390625 15.078125 -12.390625 C 16.316406 -12.390625 17.242188 -12.050781 17.859375 -11.375 C 18.472656 -10.695312 18.78125 -9.664062 18.78125 -8.28125 L 18.78125 0 L 16.984375 0 L 16.984375 -8.234375 C 16.984375 -9.117188 16.796875 -9.769531 16.421875 -10.1875 C 16.054688 -10.601562 15.460938 -10.8125 14.640625 -10.8125 C 13.671875 -10.8125 12.878906 -10.457031 12.265625 -9.75 C 11.648438 -9.050781 11.34375 -7.894531 11.34375 -6.28125 L 11.34375 0 L 9.546875 0 L 9.546875 -8.234375 C 9.546875 -9.117188 9.359375 -9.769531 8.984375 -10.1875 C 8.617188 -10.601562 8.023438 -10.8125 7.203125 -10.8125 C 6.234375 -10.8125 5.441406 -10.46875 4.828125 -9.78125 C 4.210938 -9.101562 3.90625 -8 3.90625 -6.46875 L 3.90625 0 Z M 2.109375 0 "/></g></g><g transform="translate(271.839209, 37.65983)"><g/></g><g transform="translate(277.367854, 37.65983)"><g><path d="M 6.375 0.234375 C 4.8125 0.234375 3.570312 -0.117188 2.65625 -0.828125 C 1.738281 -1.535156 1.144531 -2.507812 0.875 -3.75 L 2.28125 -4.390625 L 2.53125 -4.359375 C 2.8125 -3.390625 3.242188 -2.664062 3.828125 -2.1875 C 4.410156 -1.707031 5.257812 -1.46875 6.375 -1.46875 C 7.519531 -1.46875 8.390625 -1.726562 8.984375 -2.25 C 9.578125 -2.78125 9.875 -3.550781 9.875 -4.5625 C 9.875 -5.550781 9.566406 -6.304688 8.953125 -6.828125 C 8.347656 -7.347656 7.398438 -7.609375 6.109375 -7.609375 L 4.359375 -7.609375 L 4.359375 -9.171875 L 5.921875 -9.171875 C 6.929688 -9.171875 7.734375 -9.421875 8.328125 -9.921875 C 8.929688 -10.429688 9.234375 -11.144531 9.234375 -12.0625 C 9.234375 -12.9375 8.972656 -13.59375 8.453125 -14.03125 C 7.929688 -14.46875 7.207031 -14.6875 6.28125 -14.6875 C 4.65625 -14.6875 3.5 -14.039062 2.8125 -12.75 L 2.5625 -12.703125 L 1.5 -13.859375 C 1.925781 -14.597656 2.546875 -15.195312 3.359375 -15.65625 C 4.179688 -16.113281 5.15625 -16.34375 6.28125 -16.34375 C 7.3125 -16.34375 8.1875 -16.179688 8.90625 -15.859375 C 9.632812 -15.535156 10.179688 -15.070312 10.546875 -14.46875 C 10.921875 -13.875 11.109375 -13.15625 11.109375 -12.3125 C 11.109375 -11.519531 10.878906 -10.820312 10.421875 -10.21875 C 9.960938 -9.625 9.359375 -9.15625 8.609375 -8.8125 L 8.609375 -8.578125 C 9.671875 -8.328125 10.46875 -7.847656 11 -7.140625 C 11.539062 -6.441406 11.8125 -5.582031 11.8125 -4.5625 C 11.8125 -3.03125 11.351562 -1.847656 10.4375 -1.015625 C 9.53125 -0.179688 8.175781 0.234375 6.375 0.234375 Z M 6.375 0.234375 "/></g></g></g><g fill="#000000" fill-opacity="1"><g transform="translate(225.748818, 62.891158)"><g><path d="M 1.140625 0 L 1.140625 -1.5625 L 5.546875 -1.5625 L 5.546875 -13.875 L 5.28125 -13.953125 C 4.570312 -13.597656 3.945312 -13.328125 3.40625 -13.140625 C 2.875 -12.953125 2.191406 -12.769531 1.359375 -12.59375 L 1.359375 -14.328125 C 2.179688 -14.503906 3 -14.742188 3.8125 -15.046875 C 4.625 -15.347656 5.363281 -15.703125 6.03125 -16.109375 L 7.390625 -16.109375 L 7.390625 -1.5625 L 11.328125 -1.5625 L 11.328125 0 Z M 1.140625 0 "/></g></g><g transform="translate(237.753246, 62.891158)"><g><path d="M 0.96875 -0.734375 C 0.96875 -1.628906 1.0625 -2.347656 1.25 -2.890625 C 1.445312 -3.429688 1.78125 -3.9375 2.25 -4.40625 C 2.726562 -4.875 3.476562 -5.484375 4.5 -6.234375 L 6.28125 -7.53125 C 6.9375 -8 7.46875 -8.4375 7.875 -8.84375 C 8.289062 -9.25 8.613281 -9.6875 8.84375 -10.15625 C 9.082031 -10.632812 9.203125 -11.164062 9.203125 -11.75 C 9.203125 -12.707031 8.945312 -13.425781 8.4375 -13.90625 C 7.9375 -14.394531 7.144531 -14.640625 6.0625 -14.640625 C 5.21875 -14.640625 4.460938 -14.441406 3.796875 -14.046875 C 3.140625 -13.648438 2.613281 -13.085938 2.21875 -12.359375 L 1.96875 -12.3125 L 0.828125 -13.5 C 1.367188 -14.382812 2.082031 -15.078125 2.96875 -15.578125 C 3.851562 -16.085938 4.882812 -16.34375 6.0625 -16.34375 C 7.207031 -16.34375 8.160156 -16.144531 8.921875 -15.75 C 9.679688 -15.363281 10.238281 -14.828125 10.59375 -14.140625 C 10.957031 -13.453125 11.140625 -12.65625 11.140625 -11.75 C 11.140625 -11.03125 10.988281 -10.359375 10.6875 -9.734375 C 10.382812 -9.109375 9.957031 -8.519531 9.40625 -7.96875 C 8.851562 -7.425781 8.164062 -6.847656 7.34375 -6.234375 L 5.546875 -4.921875 C 4.867188 -4.429688 4.347656 -4.015625 3.984375 -3.671875 C 3.628906 -3.328125 3.367188 -2.988281 3.203125 -2.65625 C 3.046875 -2.332031 2.96875 -1.96875 2.96875 -1.5625 L 11.140625 -1.5625 L 11.140625 0 L 0.96875 0 Z M 0.96875 -0.734375 "/></g></g><g transform="translate(250.132123, 62.891158)"><g><path d="M 2.96875 0.109375 C 2.539062 0.109375 2.207031 -0.00390625 1.96875 -0.234375 C 1.726562 -0.472656 1.609375 -0.785156 1.609375 -1.171875 C 1.609375 -1.554688 1.726562 -1.867188 1.96875 -2.109375 C 2.207031 -2.359375 2.539062 -2.484375 2.96875 -2.484375 C 3.394531 -2.484375 3.726562 -2.363281 3.96875 -2.125 C 4.207031 -1.894531 4.328125 -1.585938 4.328125 -1.203125 C 4.328125 -0.804688 4.203125 -0.488281 3.953125 -0.25 C 3.710938 -0.0078125 3.382812 0.109375 2.96875 0.109375 Z M 2.96875 0.109375 "/></g></g><g transform="translate(256.068258, 62.891158)"><g><path d="M 6.625 0.234375 C 5.125 0.234375 3.921875 -0.0976562 3.015625 -0.765625 C 2.117188 -1.441406 1.535156 -2.390625 1.265625 -3.609375 L 2.671875 -4.25 L 2.921875 -4.203125 C 3.097656 -3.578125 3.335938 -3.066406 3.640625 -2.671875 C 3.941406 -2.273438 4.332031 -1.972656 4.8125 -1.765625 C 5.300781 -1.566406 5.90625 -1.46875 6.625 -1.46875 C 7.71875 -1.46875 8.566406 -1.789062 9.171875 -2.4375 C 9.773438 -3.09375 10.078125 -4.039062 10.078125 -5.28125 C 10.078125 -6.550781 9.78125 -7.515625 9.1875 -8.171875 C 8.59375 -8.828125 7.769531 -9.15625 6.71875 -9.15625 C 5.914062 -9.15625 5.265625 -8.992188 4.765625 -8.671875 C 4.265625 -8.347656 3.828125 -7.851562 3.453125 -7.1875 L 1.921875 -7.3125 L 2.234375 -16.109375 L 11.265625 -16.109375 L 11.265625 -14.5 L 3.890625 -14.5 L 3.703125 -9.15625 L 3.9375 -9.109375 C 4.3125 -9.671875 4.769531 -10.085938 5.3125 -10.359375 C 5.863281 -10.640625 6.523438 -10.78125 7.296875 -10.78125 C 8.253906 -10.78125 9.09375 -10.5625 9.8125 -10.125 C 10.53125 -9.695312 11.082031 -9.070312 11.46875 -8.25 C 11.863281 -7.425781 12.0625 -6.4375 12.0625 -5.28125 C 12.0625 -4.132812 11.832031 -3.144531 11.375 -2.3125 C 10.925781 -1.488281 10.289062 -0.859375 9.46875 -0.421875 C 8.65625 0.015625 7.707031 0.234375 6.625 0.234375 Z M 6.625 0.234375 "/></g></g></g><g fill="#000000" fill-opacity="1"><g transform="translate(268.975771, 62.891158)"><g><path d="M 4.578125 -7.359375 C 3.859375 -7.359375 3.222656 -7.519531 2.671875 -7.84375 C 2.117188 -8.164062 1.6875 -8.660156 1.375 -9.328125 C 1.070312 -9.992188 0.921875 -10.835938 0.921875 -11.859375 C 0.921875 -13.359375 1.25 -14.476562 1.90625 -15.21875 C 2.570312 -15.96875 3.460938 -16.34375 4.578125 -16.34375 C 5.296875 -16.34375 5.925781 -16.179688 6.46875 -15.859375 C 7.019531 -15.535156 7.445312 -15.039062 7.75 -14.375 C 8.0625 -13.707031 8.21875 -12.867188 8.21875 -11.859375 C 8.21875 -10.835938 8.0625 -9.992188 7.75 -9.328125 C 7.445312 -8.660156 7.019531 -8.164062 6.46875 -7.84375 C 5.925781 -7.519531 5.296875 -7.359375 4.578125 -7.359375 Z M 4.953125 0 L 3.34375 0 L 3.296875 -0.234375 L 14.0625 -16.109375 L 15.671875 -16.109375 L 15.71875 -15.875 Z M 4.578125 -8.75 C 5.273438 -8.75 5.785156 -8.984375 6.109375 -9.453125 C 6.441406 -9.929688 6.609375 -10.734375 6.609375 -11.859375 C 6.609375 -12.984375 6.441406 -13.78125 6.109375 -14.25 C 5.785156 -14.71875 5.273438 -14.953125 4.578125 -14.953125 C 4.109375 -14.953125 3.722656 -14.851562 3.421875 -14.65625 C 3.128906 -14.457031 2.90625 -14.128906 2.75 -13.671875 C 2.601562 -13.222656 2.53125 -12.617188 2.53125 -11.859375 C 2.53125 -11.085938 2.601562 -10.472656 2.75 -10.015625 C 2.90625 -9.566406 3.128906 -9.242188 3.421875 -9.046875 C 3.722656 -8.847656 4.109375 -8.75 4.578125 -8.75 Z M 14.46875 0.234375 C 13.351562 0.234375 12.460938 -0.132812 11.796875 -0.875 C 11.140625 -1.625 10.8125 -2.75 10.8125 -4.25 C 10.8125 -5.757812 11.140625 -6.882812 11.796875 -7.625 C 12.460938 -8.375 13.351562 -8.75 14.46875 -8.75 C 15.195312 -8.75 15.832031 -8.585938 16.375 -8.265625 C 16.914062 -7.941406 17.335938 -7.441406 17.640625 -6.765625 C 17.953125 -6.097656 18.109375 -5.257812 18.109375 -4.25 C 18.109375 -3.238281 17.953125 -2.398438 17.640625 -1.734375 C 17.335938 -1.066406 16.914062 -0.570312 16.375 -0.25 C 15.832031 0.0703125 15.195312 0.234375 14.46875 0.234375 Z M 14.46875 -1.140625 C 15.164062 -1.140625 15.675781 -1.375 16 -1.84375 C 16.332031 -2.320312 16.5 -3.125 16.5 -4.25 C 16.5 -5.375 16.332031 -6.171875 16 -6.640625 C 15.675781 -7.117188 15.164062 -7.359375 14.46875 -7.359375 C 13.769531 -7.359375 13.253906 -7.125 12.921875 -6.65625 C 12.585938 -6.1875 12.421875 -5.382812 12.421875 -4.25 C 12.421875 -3.125 12.585938 -2.320312 12.921875 -1.84375 C 13.253906 -1.375 13.769531 -1.140625 14.46875 -1.140625 Z M 14.46875 -1.140625 "/></g></g></g></g></g></g></svg>