<svg width="1124" height="847" viewBox="0 0 1124 847" fill="none" xmlns="http://www.w3.org/2000/svg">
<mask id="mask0_1145_1973" style="mask-type:luminance" maskUnits="userSpaceOnUse" x="0" y="0" width="1124" height="847">
<path d="M1124 0H0V846.667H1124V0Z" fill="white"/>
</mask>
<g mask="url(#mask0_1145_1973)">
<path d="M228.333 44.334H990.334" stroke="black" stroke-opacity="0.251" stroke-width="0.940741"/>
<path d="M228.333 196.735H990.334" stroke="black" stroke-opacity="0.251" stroke-width="0.940741"/>
<path d="M228.333 349.136H990.334" stroke="black" stroke-opacity="0.251" stroke-width="0.940741"/>
<path d="M228.333 501.532H990.334" stroke="black" stroke-opacity="0.251" stroke-width="0.940741"/>
<path d="M228.333 653.934H990.334" stroke="black" stroke-opacity="0.251" stroke-width="0.940741"/>
<path d="M228.333 806.334H990.334" stroke="black" stroke-opacity="0.251" stroke-width="0.940741"/>
<path d="M104.166 52.8008H101.457L99.4572 46.9049H90.3114L88.3114 52.8008H85.6655L93.1655 31.3008H96.6655L104.166 52.8008ZM94.7072 33.9049L91.0197 44.7799H98.7489L95.0614 33.9049H94.7072Z" fill="black"/>
<path d="M115.779 53.113C114.57 53.113 113.518 52.8838 112.633 52.4255C111.758 51.9567 111.055 51.3369 110.529 50.5713L110.216 50.6338V52.8005H107.82V30.0713H110.216V39.0088L110.529 39.0713C111.763 37.2119 113.56 36.2796 115.924 36.2796C117.242 36.2796 118.404 36.5921 119.404 37.2171C120.404 37.8317 121.18 38.7692 121.737 40.0296C122.289 41.2796 122.57 42.8369 122.57 44.6963C122.57 46.5452 122.279 48.1025 121.695 49.363C121.112 50.613 120.305 51.5505 119.279 52.1755C118.263 52.8005 117.096 53.113 115.779 53.113ZM115.216 50.9671C118.451 50.9671 120.07 48.8786 120.07 44.6963C120.07 42.5296 119.643 40.9463 118.799 39.9463C117.951 38.9359 116.758 38.4255 115.216 38.4255C113.685 38.4255 112.471 38.9463 111.57 39.988C110.664 41.0192 110.216 42.5869 110.216 44.6963C110.216 46.8109 110.664 48.3838 111.57 49.4255C112.471 50.4567 113.685 50.9671 115.216 50.9671Z" fill="black"/>
<path d="M127.164 52.8005V30.0713H129.56V38.9046L129.873 38.9463C131.039 37.1702 132.711 36.2796 134.893 36.2796C136.836 36.2796 138.248 36.7796 139.123 37.7796C140.008 38.7692 140.456 40.2952 140.456 42.363V52.8005H138.06V42.4255C138.06 41.4411 137.935 40.6546 137.685 40.0713C137.435 39.4775 137.045 39.0452 136.518 38.7796C135.987 38.5036 135.3 38.363 134.456 38.363C132.982 38.363 131.795 38.8421 130.893 39.8005C130.003 40.7484 129.56 42.3109 129.56 44.488V52.8005H127.164Z" fill="black"/>
<path d="M147.041 33.4463C146.541 33.4463 146.129 33.2952 145.811 32.988C145.489 32.6702 145.332 32.2588 145.332 31.7588C145.332 31.2744 145.489 30.8734 145.811 30.5505C146.129 30.2327 146.541 30.0713 147.041 30.0713C147.551 30.0713 147.968 30.2327 148.291 30.5505C148.608 30.8734 148.77 31.2744 148.77 31.7588C148.77 32.2588 148.608 32.6702 148.291 32.988C147.968 33.2952 147.551 33.4463 147.041 33.4463ZM145.832 52.8005V36.5921H148.228V52.8005H145.832Z" fill="black"/>
<path d="M155.081 33.4463C154.581 33.4463 154.169 33.2952 153.852 32.988C153.529 32.6702 153.373 32.2588 153.373 31.7588C153.373 31.2744 153.529 30.8734 153.852 30.5505C154.169 30.2327 154.581 30.0713 155.081 30.0713C155.591 30.0713 156.008 30.2327 156.331 30.5505C156.649 30.8734 156.81 31.2744 156.81 31.7588C156.81 32.2588 156.649 32.6702 156.331 32.988C156.008 33.2952 155.591 33.4463 155.081 33.4463ZM151.852 59.6755C151.336 59.6755 150.888 59.639 150.498 59.5713C150.112 59.4984 149.737 59.3942 149.373 59.2588L149.727 57.4046L150.018 57.3213C150.508 57.4984 151.008 57.5921 151.518 57.5921C152.279 57.5921 152.862 57.3317 153.268 56.8213C153.669 56.3213 153.873 55.6025 153.873 54.6755V36.5921H156.268V54.5713C156.268 56.1963 155.878 57.4515 155.102 58.3421C154.336 59.2275 153.253 59.6755 151.852 59.6755Z" fill="black"/>
<path d="M174.559 45.2376H163.413C163.481 47.2116 163.955 48.6647 164.83 49.5918C165.705 50.5085 166.903 50.9668 168.434 50.9668C169.585 50.9668 170.517 50.7689 171.226 50.3626C171.934 49.946 172.486 49.2949 172.892 48.4043H173.205L174.746 49.321C174.288 50.5033 173.538 51.4355 172.496 52.1126C171.465 52.7793 170.111 53.1126 168.434 53.1126C166.861 53.1126 165.517 52.8053 164.392 52.196C163.267 51.571 162.397 50.6335 161.788 49.3835C161.173 48.123 160.871 46.5605 160.871 44.696C160.871 42.8626 161.189 41.3158 161.83 40.0501C162.481 38.7897 163.361 37.8418 164.476 37.2168C165.585 36.5918 166.856 36.2793 168.288 36.2793C170.371 36.2793 171.986 36.873 173.142 38.0501C174.309 39.2168 174.897 40.946 174.913 43.2376C174.913 44.1439 174.892 44.7533 174.851 45.071L174.559 45.2376ZM172.559 43.2376C172.517 41.5189 172.127 40.2689 171.392 39.4876C170.668 38.696 169.632 38.3001 168.288 38.3001C166.871 38.3001 165.752 38.696 164.934 39.4876C164.127 40.2793 163.642 41.5293 163.476 43.2376H172.559Z" fill="black"/>
<path d="M191.845 45.2376H180.699C180.767 47.2116 181.241 48.6647 182.116 49.5918C182.991 50.5085 184.189 50.9668 185.72 50.9668C186.871 50.9668 187.803 50.7689 188.512 50.3626C189.22 49.946 189.772 49.2949 190.178 48.4043H190.491L192.032 49.321C191.574 50.5033 190.824 51.4355 189.782 52.1126C188.751 52.7793 187.397 53.1126 185.72 53.1126C184.147 53.1126 182.803 52.8053 181.678 52.196C180.553 51.571 179.684 50.6335 179.074 49.3835C178.46 48.123 178.157 46.5605 178.157 44.696C178.157 42.8626 178.475 41.3158 179.116 40.0501C179.767 38.7897 180.647 37.8418 181.762 37.2168C182.871 36.5918 184.142 36.2793 185.574 36.2793C187.657 36.2793 189.272 36.873 190.428 38.0501C191.595 39.2168 192.184 40.946 192.199 43.2376C192.199 44.1439 192.178 44.7533 192.137 45.071L191.845 45.2376ZM189.845 43.2376C189.803 41.5189 189.413 40.2689 188.678 39.4876C187.954 38.696 186.918 38.3001 185.574 38.3001C184.157 38.3001 183.038 38.696 182.22 39.4876C181.413 40.2793 180.928 41.5293 180.762 43.2376H189.845Z" fill="black"/>
<path d="M204.631 50.238L205.402 51.9463C205.027 52.3369 204.527 52.6286 203.902 52.8213C203.277 53.014 202.6 53.113 201.881 53.113C198.782 53.113 197.235 51.5452 197.235 48.4046V38.5505H194.402V36.5713H197.235V33.1546L199.631 32.7588V36.5713H204.839V38.5505H199.631V48.1755C199.631 50.04 200.433 50.9671 202.048 50.9671C202.933 50.9671 203.699 50.7275 204.339 50.238H204.631Z" fill="black"/>
<path d="M132.917 205.513C131.553 205.513 130.339 205.331 129.272 204.972C128.199 204.597 127.303 204.112 126.584 203.513C125.876 202.92 125.344 202.258 125.001 201.534L126.376 199.868H126.751C128.068 202.107 130.126 203.222 132.917 203.222C134.527 203.222 135.73 202.888 136.522 202.222C137.313 201.545 137.709 200.597 137.709 199.388C137.709 198.696 137.574 198.107 137.313 197.618C137.048 197.118 136.615 196.696 136.022 196.347C135.423 196.003 134.61 195.701 133.584 195.451L131.084 194.826C129.209 194.368 127.824 193.654 126.938 192.68C126.048 191.696 125.605 190.446 125.605 188.93C125.605 187.862 125.876 186.909 126.417 186.076C126.969 185.232 127.777 184.576 128.834 184.118C129.902 183.649 131.167 183.409 132.626 183.409C134.251 183.409 135.615 183.638 136.73 184.097C137.839 184.545 138.73 185.222 139.397 186.138L138.167 187.805H137.792C137.178 187.045 136.449 186.487 135.605 186.138C134.756 185.779 133.761 185.597 132.626 185.597C131.136 185.597 130.011 185.888 129.251 186.472C128.501 187.055 128.126 187.857 128.126 188.868C128.126 189.841 128.402 190.618 128.959 191.201C129.511 191.774 130.459 192.211 131.792 192.513L134.355 193.138C136.438 193.628 137.943 194.378 138.876 195.388C139.818 196.404 140.292 197.701 140.292 199.284C140.292 200.493 140.022 201.571 139.48 202.513C138.938 203.446 138.11 204.18 137.001 204.722C135.886 205.248 134.527 205.513 132.917 205.513Z" fill="black"/>
<path d="M148.627 205.513C147.028 205.513 145.778 205.096 144.877 204.263C143.986 203.43 143.544 202.237 143.544 200.68C143.544 199.721 143.736 198.919 144.127 198.263C144.528 197.596 145.148 197.055 145.981 196.638C146.815 196.221 147.903 195.904 149.252 195.68C150.419 195.487 151.304 195.263 151.919 195.013C152.544 194.763 152.96 194.492 153.169 194.201C153.377 193.898 153.481 193.508 153.481 193.034C153.481 192.315 153.221 191.758 152.71 191.367C152.21 190.966 151.403 190.763 150.294 190.763C149.236 190.763 148.335 190.971 147.585 191.388C146.835 191.794 146.148 192.398 145.523 193.201H145.231L144.065 191.534C144.742 190.659 145.611 189.966 146.669 189.451C147.721 188.94 148.929 188.68 150.294 188.68C152.195 188.68 153.596 189.107 154.502 189.951C155.419 190.784 155.877 191.94 155.877 193.409V202.013C155.877 202.919 156.257 203.367 157.023 203.367C157.273 203.367 157.512 203.32 157.752 203.221L157.96 203.284L158.231 204.951C158.065 205.065 157.835 205.154 157.544 205.221C157.252 205.289 156.95 205.326 156.648 205.326C155.757 205.326 155.085 205.133 154.627 204.742C154.169 204.341 153.877 203.758 153.752 202.992L153.44 202.971C152.981 203.82 152.356 204.461 151.565 204.888C150.783 205.305 149.804 205.513 148.627 205.513ZM149.148 203.596C150.049 203.596 150.835 203.388 151.502 202.971C152.169 202.555 152.674 201.971 153.023 201.221C153.367 200.461 153.544 199.586 153.544 198.596V196.534L153.273 196.492C152.908 196.742 152.466 196.961 151.94 197.138C151.424 197.305 150.7 197.461 149.773 197.596C148.825 197.721 148.075 197.919 147.523 198.18C146.981 198.445 146.591 198.779 146.356 199.18C146.117 199.586 146.002 200.086 146.002 200.68C146.002 201.638 146.278 202.367 146.835 202.867C147.387 203.357 148.158 203.596 149.148 203.596Z" fill="black"/>
<path d="M167.065 212.076C164.508 212.076 162.638 211.643 161.461 210.784C160.279 209.935 159.69 208.81 159.69 207.409C159.69 206.492 159.961 205.763 160.503 205.221C161.055 204.695 161.862 204.315 162.92 204.076V203.763C162.42 203.471 162.045 203.138 161.795 202.763C161.545 202.378 161.42 201.919 161.42 201.388C161.42 200.763 161.612 200.258 162.003 199.867C162.404 199.482 162.993 199.18 163.774 198.971V198.659C162.008 197.732 161.128 196.216 161.128 194.117C161.128 193.065 161.368 192.128 161.857 191.305C162.341 190.471 163.029 189.826 163.92 189.367C164.805 188.909 165.841 188.68 167.024 188.68C168.383 188.68 169.524 188.982 170.44 189.576C170.784 189.19 171.045 188.779 171.211 188.346C171.378 187.919 171.487 187.424 171.545 186.867L171.857 186.68L173.815 187.159C173.716 187.982 173.466 188.674 173.065 189.242C172.675 189.815 172.118 190.279 171.399 190.638V190.951C171.909 191.367 172.295 191.857 172.545 192.409C172.795 192.966 172.92 193.612 172.92 194.346C172.92 195.362 172.675 196.279 172.19 197.096C171.701 197.904 171.008 198.544 170.107 199.013C169.216 199.471 168.19 199.701 167.024 199.701C166.883 199.701 166.638 199.695 166.295 199.68C165.904 199.654 165.612 199.638 165.42 199.638C164.92 199.638 164.513 199.773 164.211 200.034C163.904 200.299 163.753 200.638 163.753 201.055C163.753 201.57 163.909 201.945 164.232 202.18C164.565 202.419 165.112 202.549 165.878 202.576L169.711 202.721C171.362 202.779 172.586 203.159 173.378 203.867C174.18 204.576 174.586 205.581 174.586 206.888C174.586 207.857 174.321 208.732 173.795 209.513C173.279 210.289 172.461 210.909 171.336 211.367C170.211 211.836 168.784 212.076 167.065 212.076ZM167.024 197.638C168.175 197.638 169.065 197.341 169.69 196.742C170.315 196.148 170.628 195.315 170.628 194.242C170.628 193.117 170.315 192.258 169.69 191.659C169.076 191.049 168.19 190.742 167.024 190.742C165.868 190.742 164.987 191.049 164.378 191.659C163.779 192.258 163.482 193.117 163.482 194.242C163.482 195.326 163.779 196.169 164.378 196.763C164.987 197.346 165.868 197.638 167.024 197.638ZM167.065 210.013C168.258 210.013 169.232 209.878 169.982 209.617C170.743 209.352 171.295 209.003 171.628 208.576C171.961 208.143 172.128 207.659 172.128 207.117C172.128 206.628 172.034 206.242 171.857 205.951C171.675 205.659 171.383 205.435 170.982 205.284C170.576 205.148 170.029 205.055 169.336 205.013L165.711 204.826H165.19C163.159 204.857 162.149 205.643 162.149 207.201C162.149 209.076 163.784 210.013 167.065 210.013Z" fill="black"/>
<path d="M184.384 205.513C182.852 205.513 181.519 205.195 180.384 204.555C179.259 203.904 178.384 202.945 177.759 201.68C177.144 200.419 176.842 198.888 176.842 197.096C176.842 195.305 177.144 193.779 177.759 192.513C178.384 191.253 179.259 190.299 180.384 189.659C181.519 189.008 182.852 188.68 184.384 188.68C185.91 188.68 187.238 189.008 188.363 189.659C189.498 190.299 190.373 191.253 190.988 192.513C191.597 193.779 191.905 195.305 191.905 197.096C191.905 198.888 191.597 200.419 190.988 201.68C190.373 202.945 189.498 203.904 188.363 204.555C187.238 205.195 185.91 205.513 184.384 205.513ZM184.384 203.367C185.993 203.367 187.227 202.862 188.092 201.846C188.951 200.82 189.384 199.237 189.384 197.096C189.384 194.961 188.951 193.383 188.092 192.367C187.227 191.341 185.993 190.826 184.384 190.826C182.759 190.826 181.514 191.341 180.655 192.367C179.79 193.383 179.363 194.961 179.363 197.096C179.363 199.237 179.79 200.82 180.655 201.846C181.514 202.862 182.759 203.367 184.384 203.367Z" fill="black"/>
<path d="M196.493 205.201V188.993H198.784V191.534L199.097 191.597C199.847 189.763 201.264 188.847 203.347 188.847C204.456 188.847 205.29 189.05 205.847 189.451L205.222 191.472L204.93 191.534C204.316 191.232 203.649 191.076 202.93 191.076C201.639 191.076 200.639 191.565 199.93 192.534C199.232 193.508 198.889 195.076 198.889 197.243V205.201H196.493Z" fill="black"/>
<path d="M83.196 357.601V336.101H85.7169V345.496H86.1752L95.0085 336.101H97.7585V336.476L88.4669 346.517L98.4877 357.226V357.601H95.5919L86.1752 347.705H85.7169V357.601H83.196Z" fill="black"/>
<path d="M105.595 357.912C103.996 357.912 102.746 357.496 101.845 356.662C100.955 355.829 100.512 354.636 100.512 353.079C100.512 352.121 100.705 351.319 101.095 350.662C101.496 349.996 102.116 349.454 102.949 349.037C103.783 348.621 104.871 348.303 106.22 348.079C107.387 347.886 108.272 347.662 108.887 347.412C109.512 347.162 109.929 346.892 110.137 346.6C110.345 346.298 110.449 345.907 110.449 345.433C110.449 344.715 110.189 344.157 109.679 343.767C109.179 343.366 108.371 343.162 107.262 343.162C106.205 343.162 105.304 343.371 104.554 343.787C103.804 344.194 103.116 344.798 102.491 345.6H102.199L101.033 343.933C101.71 343.058 102.58 342.366 103.637 341.85C104.689 341.34 105.897 341.079 107.262 341.079C109.163 341.079 110.564 341.506 111.47 342.35C112.387 343.183 112.845 344.34 112.845 345.808V354.412C112.845 355.319 113.226 355.767 113.991 355.767C114.241 355.767 114.481 355.72 114.72 355.621L114.929 355.683L115.199 357.35C115.033 357.465 114.804 357.553 114.512 357.621C114.22 357.688 113.918 357.725 113.616 357.725C112.726 357.725 112.054 357.532 111.595 357.142C111.137 356.741 110.845 356.157 110.72 355.392L110.408 355.371C109.949 356.22 109.324 356.86 108.533 357.287C107.752 357.704 106.772 357.912 105.595 357.912ZM106.116 355.996C107.017 355.996 107.804 355.787 108.47 355.371C109.137 354.954 109.642 354.371 109.991 353.621C110.335 352.86 110.512 351.985 110.512 350.996V348.933L110.241 348.892C109.877 349.142 109.434 349.36 108.908 349.537C108.392 349.704 107.668 349.86 106.741 349.996C105.793 350.121 105.043 350.319 104.491 350.579C103.949 350.845 103.559 351.178 103.324 351.579C103.085 351.985 102.97 352.485 102.97 353.079C102.97 354.037 103.246 354.767 103.804 355.267C104.356 355.756 105.127 355.996 106.116 355.996Z" fill="black"/>
<path d="M118.492 357.6V341.392H120.784V343.787L121.096 343.85C121.638 342.933 122.294 342.246 123.075 341.787C123.851 341.319 124.789 341.079 125.888 341.079C127.138 341.079 128.101 341.319 128.784 341.787C129.476 342.261 130.013 343.032 130.388 344.1H130.7C131.252 343.1 131.94 342.35 132.763 341.85C133.58 341.34 134.586 341.079 135.784 341.079C137.45 341.079 138.69 341.532 139.513 342.433C140.33 343.34 140.742 344.704 140.742 346.537V357.6H138.346V346.6C138.346 345.433 138.096 344.574 137.596 344.017C137.107 343.449 136.315 343.162 135.221 343.162C133.929 343.162 132.872 343.636 132.054 344.579C131.232 345.527 130.825 347.074 130.825 349.225V357.6H128.429V346.6C128.429 345.433 128.179 344.574 127.679 344.017C127.179 343.449 126.377 343.162 125.284 343.162C123.992 343.162 122.935 343.621 122.117 344.537C121.294 345.444 120.888 346.923 120.888 348.975V357.6H118.492Z" fill="black"/>
<path d="M147.335 338.246C146.835 338.246 146.423 338.095 146.105 337.788C145.782 337.47 145.626 337.059 145.626 336.559C145.626 336.074 145.782 335.673 146.105 335.35C146.423 335.033 146.835 334.871 147.335 334.871C147.845 334.871 148.262 335.033 148.585 335.35C148.902 335.673 149.064 336.074 149.064 336.559C149.064 337.059 148.902 337.47 148.585 337.788C148.262 338.095 147.845 338.246 147.335 338.246ZM146.126 357.6V341.392H148.522V357.6H146.126Z" fill="black"/>
<path d="M154.167 357.6V341.392H156.458V343.933L156.771 343.996C157.297 343.053 157.979 342.329 158.812 341.829C159.656 341.329 160.687 341.079 161.896 341.079C163.838 341.079 165.25 341.579 166.125 342.579C167.01 343.569 167.458 345.095 167.458 347.162V357.6H165.062V347.225C165.062 346.241 164.937 345.454 164.687 344.871C164.437 344.277 164.047 343.845 163.521 343.579C162.989 343.303 162.302 343.162 161.458 343.162C160 343.162 158.818 343.652 157.917 344.621C157.01 345.579 156.562 347.136 156.562 349.287V357.6H154.167Z" fill="black"/>
<path d="M176.71 357.912C175.111 357.912 173.861 357.496 172.96 356.662C172.069 355.829 171.626 354.636 171.626 353.079C171.626 352.121 171.819 351.319 172.21 350.662C172.611 349.996 173.23 349.454 174.064 349.037C174.897 348.621 175.986 348.303 177.335 348.079C178.501 347.886 179.387 347.662 180.001 347.412C180.626 347.162 181.043 346.892 181.251 346.6C181.46 346.298 181.564 345.907 181.564 345.433C181.564 344.715 181.303 344.157 180.793 343.767C180.293 343.366 179.486 343.162 178.376 343.162C177.319 343.162 176.418 343.371 175.668 343.787C174.918 344.194 174.23 344.798 173.605 345.6H173.314L172.147 343.933C172.824 343.058 173.694 342.366 174.751 341.85C175.803 341.34 177.012 341.079 178.376 341.079C180.277 341.079 181.678 341.506 182.585 342.35C183.501 343.183 183.96 344.34 183.96 345.808V354.412C183.96 355.319 184.34 355.767 185.105 355.767C185.355 355.767 185.595 355.72 185.835 355.621L186.043 355.683L186.314 357.35C186.147 357.465 185.918 357.553 185.626 357.621C185.335 357.688 185.032 357.725 184.73 357.725C183.84 357.725 183.168 357.532 182.71 357.142C182.251 356.741 181.96 356.157 181.835 355.392L181.522 355.371C181.064 356.22 180.439 356.86 179.647 357.287C178.866 357.704 177.887 357.912 176.71 357.912ZM177.23 355.996C178.131 355.996 178.918 355.787 179.585 355.371C180.251 354.954 180.756 354.371 181.105 353.621C181.449 352.86 181.626 351.985 181.626 350.996V348.933L181.355 348.892C180.991 349.142 180.548 349.36 180.022 349.537C179.506 349.704 178.782 349.86 177.855 349.996C176.907 350.121 176.157 350.319 175.605 350.579C175.064 350.845 174.673 351.178 174.439 351.579C174.199 351.985 174.085 352.485 174.085 353.079C174.085 354.037 174.361 354.767 174.918 355.267C175.47 355.756 176.241 355.996 177.23 355.996Z" fill="black"/>
<path d="M189.606 357.6V341.392H191.898V343.934L192.21 343.996C192.96 342.163 194.377 341.246 196.46 341.246C197.569 341.246 198.403 341.449 198.96 341.85L198.335 343.871L198.043 343.934C197.429 343.632 196.762 343.475 196.043 343.475C194.752 343.475 193.752 343.965 193.043 344.934C192.346 345.908 192.002 347.475 192.002 349.642V357.6H189.606Z" fill="black"/>
<path d="M203.338 338.246C202.838 338.246 202.427 338.095 202.109 337.788C201.786 337.47 201.63 337.059 201.63 336.559C201.63 336.074 201.786 335.673 202.109 335.35C202.427 335.033 202.838 334.871 203.338 334.871C203.848 334.871 204.265 335.033 204.588 335.35C204.906 335.673 205.067 336.074 205.067 336.559C205.067 337.059 204.906 337.47 204.588 337.788C204.265 338.095 203.848 338.246 203.338 338.246ZM202.13 357.6V341.392H204.525V357.6H202.13Z" fill="black"/>
<path d="M38.1156 510.313C36.7511 510.313 35.5375 510.131 34.4698 509.771C33.3969 509.396 32.5011 508.912 31.7823 508.313C31.074 507.719 30.5427 507.058 30.199 506.334L31.574 504.667H31.949C33.2667 506.907 35.324 508.021 38.1156 508.021C39.725 508.021 40.9281 507.688 41.7198 507.021C42.5115 506.344 42.9073 505.396 42.9073 504.188C42.9073 503.495 42.7719 502.907 42.5115 502.417C42.2458 501.917 41.8136 501.495 41.2198 501.146C40.6208 500.803 39.8083 500.501 38.7823 500.251L36.2823 499.626C34.4073 499.167 33.0219 498.454 32.1365 497.48C31.2458 496.495 30.8031 495.245 30.8031 493.73C30.8031 492.662 31.074 491.709 31.6156 490.876C32.1677 490.032 32.975 489.376 34.0323 488.917C35.1 488.449 36.3656 488.209 37.824 488.209C39.449 488.209 40.8136 488.438 41.9281 488.896C43.0375 489.344 43.9281 490.021 44.5948 490.938L43.3656 492.605H42.9906C42.3761 491.844 41.6469 491.287 40.8031 490.938C39.9542 490.579 38.9594 490.396 37.824 490.396C36.3344 490.396 35.2094 490.688 34.449 491.271C33.699 491.855 33.324 492.657 33.324 493.667C33.324 494.641 33.6 495.417 34.1573 496.001C34.7094 496.574 35.6573 497.011 36.9906 497.313L39.5531 497.938C41.6365 498.428 43.1417 499.178 44.074 500.188C45.0167 501.204 45.4906 502.501 45.4906 504.084C45.4906 505.292 45.2198 506.37 44.6781 507.313C44.1365 508.245 43.3083 508.98 42.199 509.521C41.0844 510.048 39.725 510.313 38.1156 510.313Z" fill="black"/>
<path d="M49.9502 510.001V487.271H52.346V496.105L52.6585 496.146C53.8252 494.37 55.4971 493.48 57.6794 493.48C59.6221 493.48 61.0335 493.98 61.9085 494.98C62.7939 495.969 63.2419 497.495 63.2419 499.563V510.001H60.846V499.626C60.846 498.641 60.721 497.855 60.471 497.271C60.221 496.678 59.8304 496.245 59.3044 495.98C58.7731 495.704 58.0856 495.563 57.2419 495.563C55.7679 495.563 54.5804 496.042 53.6794 497.001C52.7887 497.949 52.346 499.511 52.346 501.688V510.001H49.9502Z" fill="black"/>
<path d="M72.493 510.313C70.894 510.313 69.644 509.896 68.743 509.063C67.8524 508.229 67.4097 507.037 67.4097 505.479C67.4097 504.521 67.6024 503.719 67.993 503.063C68.394 502.396 69.0138 501.854 69.8472 501.438C70.6805 501.021 71.769 500.703 73.118 500.479C74.2847 500.287 75.1701 500.063 75.7847 499.813C76.4097 499.563 76.8263 499.292 77.0347 499C77.243 498.698 77.3472 498.308 77.3472 497.834C77.3472 497.115 77.0868 496.558 76.5763 496.167C76.0763 495.766 75.269 495.563 74.1597 495.563C73.1024 495.563 72.2013 495.771 71.4513 496.188C70.7013 496.594 70.0138 497.198 69.3888 498H69.0972L67.9305 496.334C68.6076 495.459 69.4774 494.766 70.5347 494.25C71.5868 493.74 72.7951 493.479 74.1597 493.479C76.0607 493.479 77.4618 493.907 78.368 494.75C79.2847 495.584 79.743 496.74 79.743 498.209V506.813C79.743 507.719 80.1232 508.167 80.8888 508.167C81.1388 508.167 81.3784 508.12 81.618 508.021L81.8263 508.084L82.0972 509.75C81.9305 509.865 81.7013 509.953 81.4097 510.021C81.118 510.089 80.8159 510.125 80.5138 510.125C79.6232 510.125 78.9513 509.933 78.493 509.542C78.0347 509.141 77.743 508.558 77.618 507.792L77.3055 507.771C76.8472 508.62 76.2222 509.261 75.4305 509.688C74.6493 510.104 73.6701 510.313 72.493 510.313ZM73.0138 508.396C73.9149 508.396 74.7013 508.188 75.368 507.771C76.0347 507.354 76.5399 506.771 76.8888 506.021C77.2326 505.261 77.4097 504.386 77.4097 503.396V501.334L77.1388 501.292C76.7743 501.542 76.3315 501.761 75.8055 501.938C75.2899 502.104 74.5659 502.261 73.6388 502.396C72.6909 502.521 71.9409 502.719 71.3888 502.979C70.8472 503.245 70.4565 503.578 70.2222 503.979C69.9826 504.386 69.868 504.886 69.868 505.479C69.868 506.438 70.144 507.167 70.7013 507.667C71.2534 508.157 72.0243 508.396 73.0138 508.396Z" fill="black"/>
<path d="M85.3896 510V493.792H87.6813V496.188L87.9938 496.25C88.5355 495.334 89.1917 494.646 89.973 494.188C90.749 493.719 91.6865 493.479 92.7855 493.479C94.0355 493.479 94.999 493.719 95.6813 494.188C96.374 494.662 96.9105 495.433 97.2855 496.5H97.598C98.1501 495.5 98.8376 494.75 99.6605 494.25C100.478 493.74 101.483 493.479 102.681 493.479C104.348 493.479 105.588 493.933 106.41 494.834C107.228 495.74 107.64 497.104 107.64 498.938V510H105.244V499C105.244 497.834 104.994 496.974 104.494 496.417C104.004 495.849 103.213 495.563 102.119 495.563C100.827 495.563 99.7699 496.037 98.9521 496.979C98.1292 497.927 97.723 499.474 97.723 501.625V510H95.3271V499C95.3271 497.834 95.0771 496.974 94.5771 496.417C94.0771 495.849 93.2751 495.563 92.1813 495.563C90.8896 495.563 89.8324 496.021 89.0146 496.938C88.1917 497.844 87.7855 499.323 87.7855 501.375V510H85.3896Z" fill="black"/>
<path d="M120.982 510.313C119.774 510.313 118.722 510.084 117.836 509.626C116.961 509.157 116.258 508.537 115.732 507.771L115.42 507.834V510.001H113.024V487.271H115.42V496.209L115.732 496.271C116.967 494.412 118.764 493.48 121.128 493.48C122.446 493.48 123.607 493.792 124.607 494.417C125.607 495.032 126.383 495.969 126.941 497.23C127.493 498.48 127.774 500.037 127.774 501.896C127.774 503.745 127.482 505.303 126.899 506.563C126.316 507.813 125.508 508.751 124.482 509.376C123.467 510.001 122.3 510.313 120.982 510.313ZM120.42 508.167C123.654 508.167 125.274 506.079 125.274 501.896C125.274 499.73 124.847 498.146 124.003 497.146C123.154 496.136 121.961 495.626 120.42 495.626C118.889 495.626 117.675 496.146 116.774 497.188C115.868 498.219 115.42 499.787 115.42 501.896C115.42 504.011 115.868 505.584 116.774 506.626C117.675 507.657 118.889 508.167 120.42 508.167Z" fill="black"/>
<path d="M136.243 510.313C134.644 510.313 133.394 509.896 132.493 509.063C131.602 508.229 131.16 507.037 131.16 505.479C131.16 504.521 131.352 503.719 131.743 503.063C132.144 502.396 132.764 501.854 133.597 501.438C134.431 501.021 135.519 500.703 136.868 500.479C138.035 500.287 138.92 500.063 139.535 499.813C140.16 499.563 140.576 499.292 140.785 499C140.993 498.698 141.097 498.308 141.097 497.834C141.097 497.115 140.837 496.558 140.326 496.167C139.826 495.766 139.019 495.563 137.91 495.563C136.852 495.563 135.951 495.771 135.201 496.188C134.451 496.594 133.764 497.198 133.139 498H132.847L131.681 496.334C132.358 495.459 133.227 494.766 134.285 494.25C135.337 493.74 136.545 493.479 137.91 493.479C139.811 493.479 141.212 493.907 142.118 494.75C143.035 495.584 143.493 496.74 143.493 498.209V506.813C143.493 507.719 143.873 508.167 144.639 508.167C144.889 508.167 145.128 508.12 145.368 508.021L145.576 508.084L145.847 509.75C145.681 509.865 145.451 509.953 145.16 510.021C144.868 510.089 144.566 510.125 144.264 510.125C143.373 510.125 142.701 509.933 142.243 509.542C141.785 509.141 141.493 508.558 141.368 507.792L141.056 507.771C140.597 508.62 139.972 509.261 139.181 509.688C138.399 510.104 137.42 510.313 136.243 510.313ZM136.764 508.396C137.665 508.396 138.451 508.188 139.118 507.771C139.785 507.354 140.29 506.771 140.639 506.021C140.983 505.261 141.16 504.386 141.16 503.396V501.334L140.889 501.292C140.524 501.542 140.082 501.761 139.556 501.938C139.04 502.104 138.316 502.261 137.389 502.396C136.441 502.521 135.691 502.719 135.139 502.979C134.597 503.245 134.207 503.578 133.972 503.979C133.733 504.386 133.618 504.886 133.618 505.479C133.618 506.438 133.894 507.167 134.451 507.667C135.003 508.157 135.774 508.396 136.764 508.396Z" fill="black"/>
<path d="M153.723 510.313C152.707 510.313 151.765 510.177 150.89 509.917C150.025 509.641 149.296 509.266 148.702 508.792C148.103 508.323 147.681 507.792 147.431 507.209L148.848 505.729H149.14C149.681 506.537 150.317 507.146 151.056 507.563C151.806 507.969 152.692 508.167 153.723 508.167C154.916 508.167 155.827 507.938 156.452 507.479C157.077 507.011 157.39 506.354 157.39 505.521C157.39 504.886 157.192 504.354 156.806 503.938C156.431 503.521 155.827 503.209 154.994 503L152.244 502.334C150.786 501.974 149.723 501.412 149.056 500.646C148.39 499.886 148.056 498.938 148.056 497.813C148.056 496.938 148.275 496.177 148.723 495.521C149.166 494.87 149.812 494.37 150.661 494.021C151.52 493.662 152.525 493.479 153.681 493.479C155.181 493.479 156.353 493.688 157.202 494.104C158.062 494.521 158.733 495.104 159.223 495.854L157.869 497.167H157.577C157.046 496.573 156.478 496.141 155.869 495.875C155.254 495.615 154.525 495.479 153.681 495.479C152.624 495.479 151.812 495.677 151.244 496.063C150.671 496.438 150.39 496.99 150.39 497.709C150.39 498.365 150.588 498.891 150.994 499.292C151.395 499.698 152.098 500.021 153.098 500.271L155.786 500.917C157.187 501.25 158.202 501.808 158.827 502.584C159.463 503.349 159.786 504.313 159.786 505.479C159.786 506.438 159.556 507.282 159.098 508C158.65 508.724 157.973 509.292 157.056 509.709C156.14 510.11 155.025 510.313 153.723 510.313Z" fill="black"/>
<path d="M164.133 510.001V487.271H166.528V496.105L166.841 496.146C168.008 494.37 169.679 493.48 171.862 493.48C173.804 493.48 175.216 493.98 176.091 494.98C176.976 495.969 177.424 497.495 177.424 499.563V510.001H175.028V499.626C175.028 498.641 174.903 497.855 174.653 497.271C174.403 496.678 174.013 496.245 173.487 495.98C172.955 495.704 172.268 495.563 171.424 495.563C169.95 495.563 168.763 496.042 167.862 497.001C166.971 497.949 166.528 499.511 166.528 501.688V510.001H164.133Z" fill="black"/>
<path d="M184.009 490.646C183.509 490.646 183.097 490.495 182.78 490.188C182.457 489.87 182.301 489.459 182.301 488.959C182.301 488.475 182.457 488.074 182.78 487.751C183.097 487.433 183.509 487.271 184.009 487.271C184.519 487.271 184.936 487.433 185.259 487.751C185.577 488.074 185.738 488.475 185.738 488.959C185.738 489.459 185.577 489.87 185.259 490.188C184.936 490.495 184.519 490.646 184.009 490.646ZM182.801 510.001V493.792H185.196V510.001H182.801Z" fill="black"/>
<path d="M198.799 510.313C197.591 510.313 196.539 510.084 195.653 509.626C194.778 509.157 194.075 508.537 193.549 507.771L193.237 507.834V510.001H190.841V487.271H193.237V496.209L193.549 496.271C194.784 494.412 196.58 493.48 198.945 493.48C200.263 493.48 201.424 493.792 202.424 494.417C203.424 495.032 204.2 495.969 204.757 497.23C205.31 498.48 205.591 500.037 205.591 501.896C205.591 503.745 205.299 505.303 204.716 506.563C204.132 507.813 203.325 508.751 202.299 509.376C201.284 510.001 200.117 510.313 198.799 510.313ZM198.237 508.167C201.471 508.167 203.091 506.079 203.091 501.896C203.091 499.73 202.664 498.146 201.82 497.146C200.971 496.136 199.778 495.626 198.237 495.626C196.705 495.626 195.492 496.146 194.591 497.188C193.685 498.219 193.237 499.787 193.237 501.896C193.237 504.011 193.685 505.584 194.591 506.626C195.492 507.657 196.705 508.167 198.237 508.167Z" fill="black"/>
<path d="M125.336 640.9V643.046H118.607V662.4H116.086V643.046H109.357V640.9H125.336Z" fill="black"/>
<path d="M132.843 662.712C131.01 662.712 129.64 662.228 128.739 661.254C127.833 660.285 127.385 658.858 127.385 656.983V646.191H129.781V656.941C129.781 659.4 130.937 660.629 133.26 660.629C134.729 660.629 135.89 660.15 136.739 659.191C137.598 658.223 138.031 656.66 138.031 654.504V646.191H140.426V662.4H138.156V659.858L137.843 659.775C137.286 660.775 136.619 661.52 135.843 662.004C135.062 662.473 134.062 662.712 132.843 662.712Z" fill="black"/>
<path d="M150.636 662.712C149.621 662.712 148.678 662.577 147.803 662.316C146.938 662.04 146.209 661.665 145.615 661.191C145.016 660.723 144.594 660.191 144.344 659.608L145.761 658.129H146.053C146.594 658.936 147.23 659.546 147.969 659.962C148.719 660.368 149.605 660.566 150.636 660.566C151.829 660.566 152.74 660.337 153.365 659.879C153.99 659.41 154.303 658.754 154.303 657.921C154.303 657.285 154.105 656.754 153.719 656.337C153.344 655.921 152.74 655.608 151.907 655.4L149.157 654.733C147.699 654.374 146.636 653.811 145.969 653.046C145.303 652.285 144.969 651.337 144.969 650.212C144.969 649.337 145.188 648.577 145.636 647.921C146.079 647.27 146.725 646.77 147.574 646.421C148.433 646.061 149.438 645.879 150.594 645.879C152.094 645.879 153.266 646.087 154.115 646.504C154.975 646.921 155.647 647.504 156.136 648.254L154.782 649.566H154.49C153.959 648.973 153.391 648.54 152.782 648.275C152.167 648.014 151.438 647.879 150.594 647.879C149.537 647.879 148.725 648.077 148.157 648.462C147.584 648.837 147.303 649.389 147.303 650.108C147.303 650.764 147.501 651.29 147.907 651.691C148.308 652.098 149.011 652.421 150.011 652.671L152.699 653.316C154.1 653.65 155.115 654.207 155.74 654.983C156.376 655.749 156.699 656.712 156.699 657.879C156.699 658.837 156.469 659.681 156.011 660.4C155.563 661.124 154.886 661.691 153.969 662.108C153.053 662.509 151.938 662.712 150.636 662.712Z" fill="black"/>
<path d="M161.046 662.4V639.671H163.442V648.504L163.754 648.546C164.921 646.77 166.593 645.879 168.775 645.879C170.718 645.879 172.129 646.379 173.004 647.379C173.89 648.369 174.338 649.895 174.338 651.963V662.4H171.942V652.025C171.942 651.041 171.817 650.254 171.567 649.671C171.317 649.077 170.926 648.645 170.4 648.379C169.869 648.103 169.181 647.963 168.338 647.963C166.864 647.963 165.676 648.442 164.775 649.4C163.884 650.348 163.442 651.91 163.442 654.088V662.4H161.046Z" fill="black"/>
<path d="M183.589 662.712C181.99 662.712 180.74 662.296 179.839 661.462C178.948 660.629 178.505 659.436 178.505 657.879C178.505 656.921 178.698 656.118 179.089 655.462C179.49 654.796 180.11 654.254 180.943 653.837C181.776 653.421 182.865 653.103 184.214 652.879C185.38 652.686 186.266 652.462 186.88 652.212C187.505 651.962 187.922 651.691 188.13 651.4C188.339 651.098 188.443 650.707 188.443 650.233C188.443 649.514 188.182 648.957 187.672 648.566C187.172 648.165 186.365 647.962 185.255 647.962C184.198 647.962 183.297 648.171 182.547 648.587C181.797 648.993 181.11 649.598 180.485 650.4H180.193L179.026 648.733C179.703 647.858 180.573 647.165 181.63 646.65C182.682 646.139 183.891 645.879 185.255 645.879C187.156 645.879 188.557 646.306 189.464 647.15C190.38 647.983 190.839 649.139 190.839 650.608V659.212C190.839 660.118 191.219 660.566 191.985 660.566C192.235 660.566 192.474 660.52 192.714 660.421L192.922 660.483L193.193 662.15C193.026 662.264 192.797 662.353 192.505 662.421C192.214 662.488 191.912 662.525 191.61 662.525C190.719 662.525 190.047 662.332 189.589 661.941C189.13 661.54 188.839 660.957 188.714 660.191L188.401 660.171C187.943 661.02 187.318 661.66 186.526 662.087C185.745 662.504 184.766 662.712 183.589 662.712ZM184.11 660.796C185.011 660.796 185.797 660.587 186.464 660.171C187.13 659.754 187.636 659.171 187.985 658.421C188.328 657.66 188.505 656.785 188.505 655.796V653.733L188.235 653.691C187.87 653.941 187.427 654.16 186.901 654.337C186.386 654.504 185.662 654.66 184.735 654.796C183.787 654.921 183.037 655.118 182.485 655.379C181.943 655.645 181.552 655.978 181.318 656.379C181.078 656.785 180.964 657.285 180.964 657.879C180.964 658.837 181.24 659.566 181.797 660.066C182.349 660.556 183.12 660.796 184.11 660.796Z" fill="black"/>
<path d="M196.485 662.4V646.192H198.777V648.733L199.09 648.796C199.84 646.963 201.256 646.046 203.34 646.046C204.449 646.046 205.282 646.249 205.84 646.65L205.215 648.671L204.923 648.733C204.308 648.431 203.642 648.275 202.923 648.275C201.631 648.275 200.631 648.765 199.923 649.733C199.225 650.707 198.881 652.275 198.881 654.442V662.4H196.485Z" fill="black"/>
<path d="M103.584 814.801V793.301H111.396C112.823 793.301 114.026 793.546 115 794.03C115.985 794.504 116.719 795.176 117.209 796.051C117.709 796.915 117.959 797.936 117.959 799.113C117.959 800.447 117.625 801.551 116.959 802.426C116.292 803.29 115.25 803.936 113.834 804.363V804.676C114.542 804.957 115.11 805.384 115.542 805.967C115.985 806.551 116.396 807.426 116.771 808.592L118.75 814.801H116.146L114 808.238C113.75 807.462 113.459 806.853 113.125 806.405C112.792 805.962 112.365 805.645 111.855 805.447C111.339 805.254 110.693 805.155 109.917 805.155H106.105V814.801H103.584ZM111.334 803.009C112.667 803.009 113.657 802.707 114.313 802.092C114.98 801.467 115.313 800.52 115.313 799.238C115.313 797.962 114.98 797.009 114.313 796.384C113.657 795.759 112.667 795.447 111.334 795.447H106.105V803.009H111.334Z" fill="black"/>
<path d="M124.257 795.446C123.757 795.446 123.346 795.295 123.028 794.988C122.705 794.67 122.549 794.259 122.549 793.759C122.549 793.274 122.705 792.873 123.028 792.55C123.346 792.233 123.757 792.071 124.257 792.071C124.768 792.071 125.184 792.233 125.507 792.55C125.825 792.873 125.986 793.274 125.986 793.759C125.986 794.259 125.825 794.67 125.507 794.988C125.184 795.295 124.768 795.446 124.257 795.446ZM123.049 814.8V798.592H125.445V814.8H123.049Z" fill="black"/>
<path d="M139.235 812.238L140.006 813.946C139.631 814.337 139.131 814.629 138.506 814.821C137.881 815.014 137.204 815.113 136.485 815.113C133.386 815.113 131.839 813.545 131.839 810.405V800.55H129.006V798.571H131.839V795.155L134.235 794.759V798.571H139.443V800.55H134.235V810.175C134.235 812.04 135.037 812.967 136.652 812.967C137.537 812.967 138.303 812.728 138.943 812.238H139.235Z" fill="black"/>
<path d="M143.437 814.8V792.071H145.832V800.905L146.145 800.946C147.312 799.17 148.983 798.28 151.166 798.28C153.108 798.28 154.52 798.78 155.395 799.78C156.28 800.769 156.728 802.295 156.728 804.363V814.8H154.332V804.425C154.332 803.441 154.207 802.655 153.957 802.071C153.707 801.478 153.317 801.045 152.791 800.78C152.259 800.504 151.572 800.363 150.728 800.363C149.254 800.363 148.067 800.842 147.166 801.8C146.275 802.748 145.832 804.311 145.832 806.488V814.8H143.437Z" fill="black"/>
<path d="M167.216 814.8H164.195L160.216 798.592H162.591L165.653 812.008H165.966L169.737 798.592H172.257L176.153 812.008H176.466L179.466 798.592H181.757L177.841 814.8H174.799L171.091 802.217H170.778L167.216 814.8Z" fill="black"/>
<path d="M186.831 795.446C186.331 795.446 185.92 795.295 185.602 794.988C185.279 794.67 185.123 794.259 185.123 793.759C185.123 793.274 185.279 792.873 185.602 792.55C185.92 792.233 186.331 792.071 186.831 792.071C187.342 792.071 187.758 792.233 188.081 792.55C188.399 792.873 188.56 793.274 188.56 793.759C188.56 794.259 188.399 794.67 188.081 794.988C187.758 795.295 187.342 795.446 186.831 795.446ZM185.623 814.8V798.592H188.019V814.8H185.623Z" fill="black"/>
<path d="M193.663 814.8V792.071H196.059V805.342H196.476L202.496 798.592H204.996V798.925L198.58 806.196L205.621 814.425V814.8H202.955L196.476 807.3H196.059V814.8H193.663Z" fill="black"/>
<path d="M1013.35 55.1523V53.069H1019.23V36.6315L1018.89 36.5482C1017.93 37.0221 1017.09 37.3815 1016.37 37.6315C1015.66 37.8815 1014.75 38.1263 1013.64 38.3607V36.0273C1014.75 35.793 1015.84 35.4753 1016.91 35.069C1018 34.668 1018.98 34.194 1019.87 33.6523H1021.68V53.069H1026.93V55.1523H1013.35Z" fill="black"/>
<path d="M1037.86 55.4645C1036.28 55.4645 1034.87 55.0843 1033.61 54.3187C1032.36 53.5583 1031.36 52.3551 1030.61 50.7145C1029.87 49.0635 1029.5 46.9593 1029.5 44.402C1029.5 41.8604 1029.87 39.7666 1030.61 38.1104C1031.36 36.4593 1032.36 35.2562 1033.61 34.5062C1034.87 33.7458 1036.28 33.3604 1037.86 33.3604C1039.44 33.3604 1040.86 33.7458 1042.11 34.5062C1043.37 35.2562 1044.37 36.4593 1045.11 38.1104C1045.84 39.7666 1046.21 41.8604 1046.21 44.402C1046.21 46.9593 1045.84 49.0635 1045.11 50.7145C1044.37 52.3551 1043.37 53.5583 1042.11 54.3187C1040.86 55.0843 1039.44 55.4645 1037.86 55.4645ZM1037.86 53.1312C1039.73 53.1312 1041.15 52.4593 1042.11 51.1104C1043.08 49.7666 1043.56 47.527 1043.56 44.402C1043.56 41.2926 1043.08 39.0635 1042.11 37.7145C1041.15 36.3708 1039.73 35.6937 1037.86 35.6937C1036.62 35.6937 1035.58 35.9801 1034.73 36.5479C1033.9 37.1208 1033.26 38.0479 1032.81 39.3395C1032.37 40.6208 1032.15 42.3083 1032.15 44.402C1032.15 46.5166 1032.37 48.2145 1032.81 49.5062C1033.26 50.7874 1033.9 51.7093 1034.73 52.277C1035.58 52.8499 1036.62 53.1312 1037.86 53.1312Z" fill="black"/>
<path d="M1058.99 55.4645C1057.42 55.4645 1056 55.0843 1054.74 54.3187C1053.49 53.5583 1052.49 52.3551 1051.74 50.7145C1051 49.0635 1050.64 46.9593 1050.64 44.402C1050.64 41.8604 1051 39.7666 1051.74 38.1104C1052.49 36.4593 1053.49 35.2562 1054.74 34.5062C1056 33.7458 1057.42 33.3604 1058.99 33.3604C1060.58 33.3604 1061.99 33.7458 1063.24 34.5062C1064.5 35.2562 1065.5 36.4593 1066.24 38.1104C1066.98 39.7666 1067.35 41.8604 1067.35 44.402C1067.35 46.9593 1066.98 49.0635 1066.24 50.7145C1065.5 52.3551 1064.5 53.5583 1063.24 54.3187C1061.99 55.0843 1060.58 55.4645 1058.99 55.4645ZM1058.99 53.1312C1060.87 53.1312 1062.29 52.4593 1063.24 51.1104C1064.21 49.7666 1064.7 47.527 1064.7 44.402C1064.7 41.2926 1064.21 39.0635 1063.24 37.7145C1062.29 36.3708 1060.87 35.6937 1058.99 35.6937C1057.75 35.6937 1056.71 35.9801 1055.87 36.5479C1055.04 37.1208 1054.39 38.0479 1053.95 39.3395C1053.5 40.6208 1053.29 42.3083 1053.29 44.402C1053.29 46.5166 1053.5 48.2145 1053.95 49.5062C1054.39 50.7874 1055.04 51.7093 1055.87 52.277C1056.71 52.8499 1057.75 53.1312 1058.99 53.1312Z" fill="black"/>
<path d="M1075.69 45.3395C1074.72 45.3395 1073.87 45.126 1073.13 44.6937C1072.41 44.2666 1071.84 43.6051 1071.42 42.7145C1071.01 41.8135 1070.8 40.6885 1070.8 39.3395C1070.8 37.3395 1071.24 35.8499 1072.11 34.8604C1073 33.8604 1074.19 33.3604 1075.69 33.3604C1076.65 33.3604 1077.49 33.5791 1078.21 34.0062C1078.93 34.4229 1079.5 35.0791 1079.9 35.9645C1080.32 36.8551 1080.53 37.9801 1080.53 39.3395C1080.53 40.6885 1080.32 41.8135 1079.9 42.7145C1079.5 43.6051 1078.93 44.2666 1078.21 44.6937C1077.49 45.126 1076.65 45.3395 1075.69 45.3395ZM1076.17 55.152H1074.03L1073.96 54.8395L1088.32 33.652H1090.49L1090.55 33.9645L1076.17 55.152ZM1075.69 43.4854C1076.61 43.4854 1077.28 43.1729 1077.71 42.5479C1078.16 41.9124 1078.38 40.8395 1078.38 39.3395C1078.38 37.8395 1078.16 36.777 1077.71 36.152C1077.28 35.5166 1076.61 35.1937 1075.69 35.1937C1075.05 35.1937 1074.53 35.3291 1074.13 35.5895C1073.74 35.8551 1073.44 36.2926 1073.24 36.902C1073.04 37.501 1072.94 38.3135 1072.94 39.3395C1072.94 40.3551 1073.04 41.1676 1073.24 41.777C1073.44 42.3916 1073.74 42.8291 1074.13 43.0895C1074.53 43.3551 1075.05 43.4854 1075.69 43.4854ZM1088.88 55.4645C1087.39 55.4645 1086.2 54.9749 1085.32 53.9854C1084.44 52.9854 1084.01 51.4854 1084.01 49.4854C1084.01 47.4749 1084.44 45.9749 1085.32 44.9854C1086.2 43.9854 1087.39 43.4854 1088.88 43.4854C1089.84 43.4854 1090.68 43.7041 1091.4 44.1312C1092.14 44.5479 1092.7 45.2093 1093.11 46.1104C1093.53 47.001 1093.74 48.126 1093.74 49.4854C1093.74 50.8343 1093.53 51.9541 1093.11 52.8395C1092.7 53.7301 1092.14 54.3916 1091.4 54.8187C1090.68 55.2458 1089.84 55.4645 1088.88 55.4645ZM1088.88 53.6312C1089.8 53.6312 1090.47 53.3187 1090.92 52.6937C1091.37 52.0583 1091.59 50.9854 1091.59 49.4854C1091.59 47.9854 1091.37 46.9229 1090.92 46.2979C1090.47 45.6624 1089.8 45.3395 1088.88 45.3395C1087.95 45.3395 1087.26 45.652 1086.82 46.277C1086.37 46.902 1086.15 47.9749 1086.15 49.4854C1086.15 50.9854 1086.37 52.0583 1086.82 52.6937C1087.26 53.3187 1087.95 53.6312 1088.88 53.6312Z" fill="black"/>
<path d="M1020.91 207.865C1019.33 207.865 1018 207.615 1016.89 207.115C1015.77 206.604 1014.93 205.881 1014.34 204.948C1013.77 204.006 1013.49 202.901 1013.49 201.636C1013.49 200.276 1013.82 199.136 1014.49 198.219C1015.17 197.302 1016.17 196.589 1017.49 196.073V195.761C1016.56 195.209 1015.84 194.563 1015.34 193.823C1014.84 193.073 1014.59 192.198 1014.59 191.198C1014.59 190.104 1014.85 189.146 1015.36 188.323C1015.88 187.506 1016.61 186.875 1017.57 186.427C1018.53 185.985 1019.64 185.761 1020.91 185.761C1022.17 185.761 1023.28 185.985 1024.24 186.427C1025.2 186.875 1025.93 187.506 1026.45 188.323C1026.97 189.146 1027.24 190.104 1027.24 191.198C1027.24 192.198 1026.98 193.073 1026.47 193.823C1025.97 194.563 1025.25 195.209 1024.32 195.761V196.073C1025.66 196.589 1026.66 197.302 1027.32 198.219C1028 199.136 1028.34 200.276 1028.34 201.636C1028.34 202.917 1028.05 204.021 1027.47 204.948C1026.9 205.881 1026.05 206.604 1024.93 207.115C1023.81 207.615 1022.47 207.865 1020.91 207.865ZM1020.91 195.094C1021.67 195.094 1022.34 194.948 1022.93 194.657C1023.51 194.365 1023.96 193.948 1024.28 193.407C1024.61 192.865 1024.78 192.229 1024.78 191.49C1024.78 190.74 1024.61 190.094 1024.28 189.552C1023.96 189 1023.5 188.573 1022.91 188.282C1022.32 187.99 1021.66 187.844 1020.91 187.844C1019.72 187.844 1018.78 188.172 1018.07 188.823C1017.38 189.479 1017.03 190.365 1017.03 191.49C1017.03 192.604 1017.38 193.485 1018.07 194.136C1018.78 194.776 1019.72 195.094 1020.91 195.094ZM1020.91 205.636C1022.46 205.636 1023.65 205.271 1024.47 204.532C1025.29 203.797 1025.7 202.776 1025.7 201.469C1025.7 200.167 1025.29 199.146 1024.47 198.407C1023.65 197.672 1022.46 197.302 1020.91 197.302C1019.36 197.302 1018.18 197.672 1017.34 198.407C1016.52 199.146 1016.11 200.167 1016.11 201.469C1016.11 202.776 1016.52 203.797 1017.34 204.532C1018.18 205.271 1019.36 205.636 1020.91 205.636Z" fill="black"/>
<path d="M1038.86 207.865C1036.84 207.865 1035.24 207.423 1034.03 206.532C1032.83 205.631 1032.05 204.365 1031.69 202.74L1033.57 201.886L1033.9 201.928C1034.15 202.761 1034.47 203.449 1034.86 203.99C1035.26 204.521 1035.78 204.917 1036.42 205.178C1037.07 205.443 1037.89 205.574 1038.86 205.574C1040.3 205.574 1041.43 205.146 1042.24 204.282C1043.05 203.423 1043.46 202.157 1043.46 200.49C1043.46 198.813 1043.06 197.532 1042.26 196.657C1041.46 195.782 1040.37 195.344 1038.96 195.344C1037.89 195.344 1037.03 195.563 1036.36 195.99C1035.7 196.423 1035.12 197.084 1034.61 197.969L1032.57 197.803L1032.99 186.053H1045.03V188.199H1035.19L1034.94 195.344L1035.26 195.386C1035.77 194.652 1036.39 194.105 1037.11 193.74C1037.84 193.365 1038.72 193.178 1039.74 193.178C1041.03 193.178 1042.14 193.469 1043.09 194.053C1044.05 194.626 1044.79 195.459 1045.32 196.553C1045.84 197.652 1046.11 198.964 1046.11 200.49C1046.11 202.021 1045.8 203.339 1045.19 204.449C1044.59 205.563 1043.75 206.407 1042.65 206.99C1041.55 207.574 1040.29 207.865 1038.86 207.865Z" fill="black"/>
<path d="M1053.36 197.74C1052.38 197.74 1051.53 197.526 1050.8 197.094C1050.07 196.667 1049.5 196.006 1049.09 195.115C1048.67 194.214 1048.46 193.089 1048.46 191.74C1048.46 189.74 1048.9 188.25 1049.78 187.261C1050.66 186.261 1051.86 185.761 1053.36 185.761C1054.32 185.761 1055.16 185.979 1055.88 186.407C1056.6 186.823 1057.16 187.479 1057.57 188.365C1057.98 189.256 1058.19 190.381 1058.19 191.74C1058.19 193.089 1057.98 194.214 1057.57 195.115C1057.16 196.006 1056.6 196.667 1055.88 197.094C1055.16 197.526 1054.32 197.74 1053.36 197.74ZM1053.84 207.552H1051.69L1051.63 207.24L1065.98 186.052H1068.15L1068.21 186.365L1053.84 207.552ZM1053.36 195.886C1054.28 195.886 1054.95 195.573 1055.38 194.948C1055.82 194.313 1056.05 193.24 1056.05 191.74C1056.05 190.24 1055.82 189.177 1055.38 188.552C1054.95 187.917 1054.28 187.594 1053.36 187.594C1052.72 187.594 1052.2 187.729 1051.8 187.99C1051.41 188.256 1051.11 188.693 1050.9 189.302C1050.7 189.901 1050.61 190.714 1050.61 191.74C1050.61 192.756 1050.7 193.568 1050.9 194.177C1051.11 194.792 1051.41 195.229 1051.8 195.49C1052.2 195.756 1052.72 195.886 1053.36 195.886ZM1066.55 207.865C1065.06 207.865 1063.87 207.375 1062.98 206.386C1062.11 205.386 1061.67 203.886 1061.67 201.886C1061.67 199.875 1062.11 198.375 1062.98 197.386C1063.87 196.386 1065.06 195.886 1066.55 195.886C1067.5 195.886 1068.34 196.104 1069.07 196.532C1069.8 196.948 1070.37 197.61 1070.78 198.511C1071.19 199.401 1071.4 200.526 1071.4 201.886C1071.4 203.235 1071.19 204.354 1070.78 205.24C1070.37 206.131 1069.8 206.792 1069.07 207.219C1068.34 207.646 1067.5 207.865 1066.55 207.865ZM1066.55 206.032C1067.46 206.032 1068.14 205.719 1068.59 205.094C1069.03 204.459 1069.25 203.386 1069.25 201.886C1069.25 200.386 1069.03 199.323 1068.59 198.698C1068.14 198.063 1067.46 197.74 1066.55 197.74C1065.61 197.74 1064.93 198.052 1064.48 198.677C1064.04 199.302 1063.82 200.375 1063.82 201.886C1063.82 203.386 1064.04 204.459 1064.48 205.094C1064.93 205.719 1065.61 206.032 1066.55 206.032Z" fill="black"/>
<path d="M1025.29 359.952H1022.89V354.827H1012.81V352.785L1022.29 338.452H1025.29V352.785H1029V354.827H1025.29V359.952ZM1015.79 352.494L1015.91 352.785H1022.89V341.952L1022.54 341.91L1015.79 352.494Z" fill="black"/>
<path d="M1034.58 359.952H1032.12L1040.1 340.91L1040.02 340.598H1029.54V338.452H1042.64V340.785L1034.58 359.952Z" fill="black"/>
<path d="M1050.65 350.139C1049.67 350.139 1048.82 349.926 1048.08 349.493C1047.36 349.066 1046.79 348.405 1046.38 347.514C1045.96 346.613 1045.75 345.488 1045.75 344.139C1045.75 342.139 1046.19 340.65 1047.06 339.66C1047.95 338.66 1049.15 338.16 1050.65 338.16C1051.6 338.16 1052.44 338.379 1053.17 338.806C1053.89 339.223 1054.45 339.879 1054.85 340.764C1055.27 341.655 1055.48 342.78 1055.48 344.139C1055.48 345.488 1055.27 346.613 1054.85 347.514C1054.45 348.405 1053.89 349.066 1053.17 349.493C1052.44 349.926 1051.6 350.139 1050.65 350.139ZM1051.13 359.952H1048.98L1048.92 359.639L1063.27 338.452H1065.44L1065.5 338.764L1051.13 359.952ZM1050.65 348.285C1051.56 348.285 1052.23 347.973 1052.67 347.348C1053.11 346.712 1053.33 345.639 1053.33 344.139C1053.33 342.639 1053.11 341.577 1052.67 340.952C1052.23 340.316 1051.56 339.993 1050.65 339.993C1050.01 339.993 1049.48 340.129 1049.08 340.389C1048.69 340.655 1048.4 341.092 1048.19 341.702C1047.99 342.301 1047.9 343.113 1047.9 344.139C1047.9 345.155 1047.99 345.967 1048.19 346.577C1048.4 347.191 1048.69 347.629 1049.08 347.889C1049.48 348.155 1050.01 348.285 1050.65 348.285ZM1063.83 360.264C1062.34 360.264 1061.16 359.775 1060.27 358.785C1059.4 357.785 1058.96 356.285 1058.96 354.285C1058.96 352.275 1059.4 350.775 1060.27 349.785C1061.16 348.785 1062.34 348.285 1063.83 348.285C1064.79 348.285 1065.63 348.504 1066.35 348.931C1067.09 349.348 1067.66 350.009 1068.06 350.91C1068.48 351.801 1068.69 352.926 1068.69 354.285C1068.69 355.634 1068.48 356.754 1068.06 357.639C1067.66 358.53 1067.09 359.191 1066.35 359.618C1065.63 360.046 1064.79 360.264 1063.83 360.264ZM1063.83 358.431C1064.75 358.431 1065.43 358.118 1065.88 357.493C1066.32 356.858 1066.54 355.785 1066.54 354.285C1066.54 352.785 1066.32 351.723 1065.88 351.098C1065.43 350.462 1064.75 350.139 1063.83 350.139C1062.9 350.139 1062.21 350.452 1061.77 351.077C1061.32 351.702 1061.1 352.775 1061.1 354.285C1061.1 355.785 1061.32 356.858 1061.77 357.493C1062.21 358.118 1062.9 358.431 1063.83 358.431Z" fill="black"/>
<path d="M1013.12 511.373C1013.12 510.18 1013.25 509.222 1013.5 508.498C1013.76 507.779 1014.21 507.102 1014.83 506.477C1015.47 505.852 1016.48 505.04 1017.85 504.04L1020.21 502.311C1021.08 501.675 1021.79 501.092 1022.33 500.561C1022.88 500.019 1023.32 499.436 1023.64 498.811C1023.96 498.175 1024.12 497.456 1024.12 496.665C1024.12 495.389 1023.78 494.43 1023.1 493.79C1022.42 493.139 1021.36 492.811 1019.93 492.811C1018.79 492.811 1017.78 493.081 1016.89 493.623C1016.02 494.154 1015.32 494.894 1014.79 495.852L1014.46 495.915L1012.93 494.331C1013.65 493.154 1014.61 492.227 1015.79 491.561C1016.97 490.894 1018.35 490.561 1019.93 490.561C1021.46 490.561 1022.73 490.821 1023.73 491.331C1024.74 491.847 1025.48 492.561 1025.96 493.477C1026.44 494.394 1026.68 495.456 1026.68 496.665C1026.68 497.623 1026.48 498.519 1026.08 499.352C1025.67 500.186 1025.11 500.972 1024.37 501.706C1023.65 502.446 1022.73 503.222 1021.62 504.04L1019.23 505.79C1018.34 506.446 1017.65 506.998 1017.16 507.456C1016.69 507.915 1016.34 508.368 1016.12 508.811C1015.9 509.243 1015.79 509.727 1015.79 510.269H1026.68V512.352H1013.12V511.373Z" fill="black"/>
<path d="M1037.21 512.665C1035.19 512.665 1033.58 512.222 1032.37 511.332C1031.18 510.431 1030.4 509.165 1030.04 507.54L1031.92 506.686L1032.25 506.728C1032.5 507.561 1032.82 508.248 1033.21 508.79C1033.61 509.321 1034.13 509.717 1034.77 509.978C1035.42 510.243 1036.23 510.373 1037.21 510.373C1038.65 510.373 1039.77 509.946 1040.58 509.082C1041.4 508.222 1041.81 506.957 1041.81 505.29C1041.81 503.613 1041.4 502.332 1040.6 501.457C1039.81 500.582 1038.71 500.144 1037.31 500.144C1036.24 500.144 1035.37 500.363 1034.71 500.79C1034.05 501.222 1033.47 501.884 1032.96 502.769L1030.92 502.603L1031.33 490.853H1043.37V492.998H1033.54L1033.29 500.144L1033.6 500.186C1034.11 499.451 1034.73 498.905 1035.46 498.54C1036.19 498.165 1037.07 497.978 1038.08 497.978C1039.37 497.978 1040.49 498.269 1041.44 498.853C1042.39 499.425 1043.13 500.259 1043.67 501.353C1044.19 502.451 1044.46 503.764 1044.46 505.29C1044.46 506.821 1044.15 508.139 1043.54 509.248C1042.94 510.363 1042.09 511.207 1041 511.79C1039.9 512.373 1038.63 512.665 1037.21 512.665Z" fill="black"/>
<path d="M1051.7 502.54C1050.73 502.54 1049.88 502.326 1049.14 501.894C1048.42 501.467 1047.85 500.805 1047.43 499.915C1047.02 499.014 1046.81 497.889 1046.81 496.54C1046.81 494.54 1047.25 493.05 1048.12 492.061C1049.01 491.061 1050.2 490.561 1051.7 490.561C1052.66 490.561 1053.5 490.779 1054.23 491.206C1054.94 491.623 1055.51 492.279 1055.91 493.165C1056.33 494.055 1056.54 495.18 1056.54 496.54C1056.54 497.889 1056.33 499.014 1055.91 499.915C1055.51 500.805 1054.94 501.467 1054.23 501.894C1053.5 502.326 1052.66 502.54 1051.7 502.54ZM1052.18 512.352H1050.04L1049.98 512.04L1064.33 490.852H1066.5L1066.56 491.165L1052.18 512.352ZM1051.7 500.686C1052.62 500.686 1053.29 500.373 1053.73 499.748C1054.17 499.113 1054.39 498.04 1054.39 496.54C1054.39 495.04 1054.17 493.977 1053.73 493.352C1053.29 492.717 1052.62 492.394 1051.7 492.394C1051.06 492.394 1050.54 492.529 1050.14 492.79C1049.75 493.055 1049.45 493.493 1049.25 494.102C1049.05 494.701 1048.95 495.514 1048.95 496.54C1048.95 497.555 1049.05 498.368 1049.25 498.977C1049.45 499.592 1049.75 500.029 1050.14 500.29C1050.54 500.555 1051.06 500.686 1051.7 500.686ZM1064.89 512.665C1063.4 512.665 1062.22 512.175 1061.33 511.186C1060.45 510.186 1060.02 508.686 1060.02 506.686C1060.02 504.675 1060.45 503.175 1061.33 502.186C1062.22 501.186 1063.4 500.686 1064.89 500.686C1065.85 500.686 1066.69 500.904 1067.41 501.331C1068.15 501.748 1068.72 502.41 1069.12 503.311C1069.54 504.201 1069.75 505.326 1069.75 506.686C1069.75 508.035 1069.54 509.154 1069.12 510.04C1068.72 510.93 1068.15 511.592 1067.41 512.019C1066.69 512.446 1065.85 512.665 1064.89 512.665ZM1064.89 510.831C1065.81 510.831 1066.49 510.519 1066.93 509.894C1067.38 509.258 1067.6 508.186 1067.6 506.686C1067.6 505.186 1067.38 504.123 1066.93 503.498C1066.49 502.863 1065.81 502.54 1064.89 502.54C1063.96 502.54 1063.27 502.852 1062.83 503.477C1062.38 504.102 1062.16 505.175 1062.16 506.686C1062.16 508.186 1062.38 509.258 1062.83 509.894C1063.27 510.519 1063.96 510.831 1064.89 510.831Z" fill="black"/>
<path d="M1013.35 664.752V662.669H1019.23V646.231L1018.89 646.148C1017.93 646.622 1017.09 646.981 1016.37 647.231C1015.66 647.481 1014.75 647.726 1013.64 647.96V645.627C1014.75 645.393 1015.84 645.075 1016.91 644.669C1018 644.268 1018.98 643.794 1019.87 643.252H1021.68V662.669H1026.93V664.752H1013.35Z" fill="black"/>
<path d="M1036.71 665.064C1034.69 665.064 1033.08 664.622 1031.87 663.731C1030.68 662.83 1029.9 661.564 1029.54 659.939L1031.42 659.085L1031.75 659.127C1032 659.96 1032.32 660.648 1032.71 661.189C1033.11 661.721 1033.63 662.117 1034.27 662.377C1034.92 662.643 1035.73 662.773 1036.71 662.773C1038.15 662.773 1039.27 662.346 1040.08 661.481C1040.9 660.622 1041.31 659.356 1041.31 657.689C1041.31 656.012 1040.9 654.731 1040.1 653.856C1039.31 652.981 1038.21 652.544 1036.81 652.544C1035.74 652.544 1034.87 652.762 1034.21 653.189C1033.55 653.622 1032.97 654.283 1032.46 655.169L1030.42 655.002L1030.83 643.252H1042.87V645.398H1033.04L1032.79 652.544L1033.1 652.585C1033.61 651.851 1034.23 651.304 1034.96 650.939C1035.69 650.564 1036.57 650.377 1037.58 650.377C1038.87 650.377 1039.99 650.669 1040.94 651.252C1041.89 651.825 1042.63 652.658 1043.17 653.752C1043.69 654.851 1043.96 656.163 1043.96 657.689C1043.96 659.221 1043.65 660.538 1043.04 661.648C1042.44 662.762 1041.59 663.606 1040.5 664.189C1039.4 664.773 1038.13 665.064 1036.71 665.064Z" fill="black"/>
<path d="M1051.2 654.94C1050.23 654.94 1049.38 654.727 1048.64 654.294C1047.92 653.867 1047.35 653.206 1046.93 652.315C1046.52 651.414 1046.31 650.289 1046.31 648.94C1046.31 646.94 1046.75 645.451 1047.62 644.461C1048.51 643.461 1049.7 642.961 1051.2 642.961C1052.16 642.961 1053 643.18 1053.73 643.607C1054.44 644.023 1055.01 644.68 1055.41 645.565C1055.83 646.456 1056.04 647.581 1056.04 648.94C1056.04 650.289 1055.83 651.414 1055.41 652.315C1055.01 653.206 1054.44 653.867 1053.73 654.294C1053 654.727 1052.16 654.94 1051.2 654.94ZM1051.68 664.753H1049.54L1049.48 664.44L1063.83 643.253H1066L1066.06 643.565L1051.68 664.753ZM1051.2 653.086C1052.12 653.086 1052.79 652.773 1053.23 652.148C1053.67 651.513 1053.89 650.44 1053.89 648.94C1053.89 647.44 1053.67 646.378 1053.23 645.753C1052.79 645.117 1052.12 644.794 1051.2 644.794C1050.56 644.794 1050.04 644.93 1049.64 645.19C1049.25 645.456 1048.95 645.893 1048.75 646.503C1048.55 647.102 1048.45 647.914 1048.45 648.94C1048.45 649.956 1048.55 650.768 1048.75 651.378C1048.95 651.992 1049.25 652.43 1049.64 652.69C1050.04 652.956 1050.56 653.086 1051.2 653.086ZM1064.39 665.065C1062.9 665.065 1061.72 664.576 1060.83 663.586C1059.95 662.586 1059.52 661.086 1059.52 659.086C1059.52 657.076 1059.95 655.576 1060.83 654.586C1061.72 653.586 1062.9 653.086 1064.39 653.086C1065.35 653.086 1066.19 653.305 1066.91 653.732C1067.65 654.148 1068.22 654.81 1068.62 655.711C1069.04 656.602 1069.25 657.727 1069.25 659.086C1069.25 660.435 1069.04 661.555 1068.62 662.44C1068.22 663.331 1067.65 663.992 1066.91 664.419C1066.19 664.846 1065.35 665.065 1064.39 665.065ZM1064.39 663.232C1065.31 663.232 1065.99 662.919 1066.43 662.294C1066.88 661.659 1067.1 660.586 1067.1 659.086C1067.1 657.586 1066.88 656.523 1066.43 655.898C1065.99 655.263 1065.31 654.94 1064.39 654.94C1063.46 654.94 1062.77 655.253 1062.33 655.878C1061.88 656.503 1061.66 657.576 1061.66 659.086C1061.66 660.586 1061.88 661.659 1062.33 662.294C1062.77 662.919 1063.46 663.232 1064.39 663.232Z" fill="black"/>
<path d="M1020.91 817.465C1019.34 817.465 1018 817.215 1016.89 816.715C1015.78 816.204 1014.93 815.48 1014.35 814.548C1013.78 813.605 1013.5 812.501 1013.5 811.235C1013.5 809.876 1013.83 808.735 1014.5 807.819C1015.17 806.902 1016.17 806.188 1017.5 805.673V805.36C1016.57 804.808 1015.85 804.162 1015.35 803.423C1014.85 802.673 1014.6 801.798 1014.6 800.798C1014.6 799.704 1014.86 798.746 1015.37 797.923C1015.88 797.105 1016.62 796.475 1017.58 796.027C1018.54 795.584 1019.65 795.36 1020.91 795.36C1022.17 795.36 1023.29 795.584 1024.25 796.027C1025.21 796.475 1025.94 797.105 1026.46 797.923C1026.98 798.746 1027.25 799.704 1027.25 800.798C1027.25 801.798 1026.99 802.673 1026.48 803.423C1025.98 804.162 1025.26 804.808 1024.33 805.36V805.673C1025.66 806.188 1026.66 806.902 1027.33 807.819C1028.01 808.735 1028.35 809.876 1028.35 811.235C1028.35 812.517 1028.06 813.621 1027.48 814.548C1026.9 815.48 1026.06 816.204 1024.93 816.715C1023.82 817.215 1022.48 817.465 1020.91 817.465ZM1020.91 804.694C1021.67 804.694 1022.35 804.548 1022.93 804.256C1023.52 803.965 1023.97 803.548 1024.29 803.006C1024.62 802.465 1024.79 801.829 1024.79 801.09C1024.79 800.34 1024.62 799.694 1024.29 799.152C1023.97 798.6 1023.51 798.173 1022.91 797.881C1022.33 797.59 1021.66 797.444 1020.91 797.444C1019.73 797.444 1018.79 797.772 1018.08 798.423C1017.38 799.079 1017.04 799.965 1017.04 801.09C1017.04 802.204 1017.38 803.084 1018.08 803.735C1018.79 804.376 1019.73 804.694 1020.91 804.694ZM1020.91 815.235C1022.47 815.235 1023.65 814.871 1024.48 814.131C1025.29 813.397 1025.71 812.376 1025.71 811.069C1025.71 809.767 1025.29 808.746 1024.48 808.006C1023.65 807.272 1022.47 806.902 1020.91 806.902C1019.37 806.902 1018.18 807.272 1017.35 808.006C1016.53 808.746 1016.12 809.767 1016.12 811.069C1016.12 812.376 1016.53 813.397 1017.35 814.131C1018.18 814.871 1019.37 815.235 1020.91 815.235Z" fill="black"/>
<path d="M1035.83 807.34C1034.86 807.34 1034 807.126 1033.27 806.694C1032.54 806.267 1031.98 805.605 1031.56 804.715C1031.14 803.813 1030.93 802.688 1030.93 801.34C1030.93 799.34 1031.37 797.85 1032.25 796.86C1033.13 795.86 1034.33 795.36 1035.83 795.36C1036.79 795.36 1037.63 795.579 1038.35 796.006C1039.07 796.423 1039.63 797.079 1040.04 797.965C1040.45 798.855 1040.66 799.98 1040.66 801.34C1040.66 802.688 1040.45 803.813 1040.04 804.715C1039.63 805.605 1039.07 806.267 1038.35 806.694C1037.63 807.126 1036.79 807.34 1035.83 807.34ZM1036.31 817.152H1034.16L1034.1 816.84L1048.45 795.652H1050.62L1050.68 795.965L1036.31 817.152ZM1035.83 805.485C1036.75 805.485 1037.42 805.173 1037.85 804.548C1038.29 803.912 1038.52 802.84 1038.52 801.34C1038.52 799.84 1038.29 798.777 1037.85 798.152C1037.42 797.517 1036.75 797.194 1035.83 797.194C1035.19 797.194 1034.67 797.329 1034.27 797.59C1033.88 797.855 1033.58 798.293 1033.37 798.902C1033.17 799.501 1033.08 800.313 1033.08 801.34C1033.08 802.355 1033.17 803.168 1033.37 803.777C1033.58 804.392 1033.88 804.829 1034.27 805.09C1034.67 805.355 1035.19 805.485 1035.83 805.485ZM1049.02 817.465C1047.53 817.465 1046.34 816.975 1045.45 815.985C1044.58 814.985 1044.14 813.485 1044.14 811.485C1044.14 809.475 1044.58 807.975 1045.45 806.985C1046.34 805.985 1047.53 805.485 1049.02 805.485C1049.98 805.485 1050.81 805.704 1051.54 806.131C1052.27 806.548 1052.84 807.209 1053.25 808.11C1053.66 809.001 1053.87 810.126 1053.87 811.485C1053.87 812.834 1053.66 813.954 1053.25 814.84C1052.84 815.73 1052.27 816.392 1051.54 816.819C1050.81 817.246 1049.98 817.465 1049.02 817.465ZM1049.02 815.631C1049.93 815.631 1050.61 815.319 1051.06 814.694C1051.5 814.058 1051.73 812.985 1051.73 811.485C1051.73 809.985 1051.5 808.923 1051.06 808.298C1050.61 807.662 1049.93 807.34 1049.02 807.34C1048.08 807.34 1047.4 807.652 1046.95 808.277C1046.51 808.902 1046.29 809.975 1046.29 811.485C1046.29 812.985 1046.51 814.058 1046.95 814.694C1047.4 815.319 1048.08 815.631 1049.02 815.631Z" fill="black"/>
<path d="M228.333 44.334H990.333L933.182 196.735H285.484" fill="#E86C6C"/>
<path d="M285.484 196.734H933.182L788.401 349.135H430.266" fill="#D45C5C"/>
<path d="M430.266 349.136H788.401L704.583 501.532H514.083" fill="#AD4949"/>
<path d="M514.083 501.531H704.583L666.484 653.932H552.182" fill="#923E3E"/>
<path d="M552.182 653.933H666.484L639.812 806.334H578.854" fill="#6D3636"/>
</g>
</svg>
