<svg xmlns="http://www.w3.org/2000/svg" xmlns:xlink="http://www.w3.org/1999/xlink" width="540" zoomAndPan="magnify" viewBox="0 0 404.88 202.499994" height="270" preserveAspectRatio="xMidYMid meet" version="1.0"><defs><clipPath id="6c13eb5a22"><path d="M 0.4375 0 L 404.320312 0 L 404.320312 202 L 0.4375 202 Z M 0.4375 0 " clip-rule="nonzero"/></clipPath><clipPath id="52af48e5dc"><path d="M 0.4375 0 L 404.320312 0 L 404.320312 202 L 0.4375 202 Z M 0.4375 0 " clip-rule="nonzero"/></clipPath><clipPath id="ba2148f8eb"><path d="M 0.4375 202 C 0.4375 90.4375 90.878906 0 202.441406 0 C 314.003906 0 404.441406 90.4375 404.441406 202 L 331.722656 202 C 331.722656 130.601562 273.839844 72.71875 202.441406 72.71875 C 131.039062 72.71875 73.160156 130.601562 73.160156 202 Z M 0.4375 202 " clip-rule="nonzero"/></clipPath><clipPath id="651eafd6b5"><path d="M 0.4375 0 L 404.320312 0 L 404.320312 202 L 0.4375 202 Z M 0.4375 0 " clip-rule="nonzero"/></clipPath><clipPath id="29e497608b"><path d="M 0.4375 202 C 0.4375 90.4375 90.878906 0 202.441406 0 C 314.003906 0 404.441406 90.4375 404.441406 202 L 331.722656 202 C 331.722656 130.601562 273.839844 72.71875 202.441406 72.71875 C 131.039062 72.71875 73.160156 130.601562 73.160156 202 Z M 0.4375 202 " clip-rule="nonzero"/></clipPath><clipPath id="969b87f28e"><rect x="0" width="405" y="0" height="202"/></clipPath><clipPath id="796c61a32d"><path d="M 182 44.1875 L 296 44.1875 L 296 202 L 182 202 Z M 182 44.1875 " clip-rule="nonzero"/></clipPath><clipPath id="82121b751b"><path d="M 219.230469 193.03125 C 213.027344 202.304688 200.480469 204.792969 191.207031 198.589844 C 181.9375 192.386719 179.445312 179.84375 185.648438 170.570312 L 288.382812 46.054688 C 289.1875 44.855469 290.570312 44.171875 292.007812 44.269531 C 293.449219 44.363281 294.730469 45.21875 295.367188 46.515625 C 296.003906 47.808594 295.902344 49.347656 295.101562 50.546875 Z M 219.230469 193.03125 " clip-rule="nonzero"/></clipPath><clipPath id="a4b1ff3680"><path d="M 0 0.1875 L 114 0.1875 L 114 158 L 0 158 Z M 0 0.1875 " clip-rule="nonzero"/></clipPath><clipPath id="2cb5542bf4"><path d="M 37.230469 149.03125 C 31.027344 158.304688 18.480469 160.792969 9.207031 154.589844 C -0.0625 148.386719 -2.554688 135.84375 3.648438 126.570312 L 106.382812 2.054688 C 107.1875 0.855469 108.570312 0.171875 110.007812 0.269531 C 111.449219 0.363281 112.730469 1.21875 113.367188 2.515625 C 114.003906 3.808594 113.902344 5.347656 113.101562 6.546875 Z M 37.230469 149.03125 " clip-rule="nonzero"/></clipPath><clipPath id="6c9d300b33"><rect x="0" width="114" y="0" height="158"/></clipPath><clipPath id="eaeda600f5"><rect x="0" width="405" y="0" height="202"/></clipPath></defs><g clip-path="url(#6c13eb5a22)"><g transform="matrix(1, 0, 0, 1, 0.000000000000000056, 0)"><g clip-path="url(#eaeda600f5)"><g clip-path="url(#52af48e5dc)"><g clip-path="url(#ba2148f8eb)"><g transform="matrix(1, 0, 0, 1, 0.000000000000000056, 0)"><g clip-path="url(#969b87f28e)"><g clip-path="url(#651eafd6b5)"><g clip-path="url(#29e497608b)"><path fill="#e86c6c" d="M 0.4375 0 L 404.441406 0 L 404.441406 202 L 0.4375 202 Z M 0.4375 0 " fill-opacity="1" fill-rule="nonzero"/></g></g></g></g></g></g><g clip-path="url(#796c61a32d)"><g clip-path="url(#82121b751b)"><g transform="matrix(1, 0, 0, 1, 182, 44)"><g clip-path="url(#6c9d300b33)"><g clip-path="url(#a4b1ff3680)"><g clip-path="url(#2cb5542bf4)"><rect x="-329.37632" width="699.63264" fill="#ad4949" y="-117.709998" height="349.91999" fill-opacity="1"/></g></g></g></g></g></g></g></g></g></svg>