<svg xmlns="http://www.w3.org/2000/svg" xmlns:xlink="http://www.w3.org/1999/xlink" width="1920" zoomAndPan="magnify" viewBox="0 0 1440 809.999993" height="1080" preserveAspectRatio="xMidYMid meet" version="1.0"><defs><g/><clipPath id="2499905680"><rect x="0" width="843" y="0" height="635"/></clipPath></defs><g transform="matrix(1, 0, 0, 1, 263, 86)"><g clip-path="url(#2499905680)"><path stroke-linecap="butt" transform="matrix(0.705556, 0, 0, 0.705556, 171.249984, 33.250014)" fill="none" stroke-linejoin="miter" d="M 0.0000221447 -0.0000198435 L 810.000067 -0.0000198435 " stroke="#000000" stroke-width="1" stroke-opacity="0.251" stroke-miterlimit="4"/><path stroke-linecap="butt" transform="matrix(0.705556, 0, 0, 0.705556, 171.249984, 33.250014)" fill="none" stroke-linejoin="miter" d="M 0.0000221447 162.001096 L 810.000067 162.001096 " stroke="#000000" stroke-width="1" stroke-opacity="0.251" stroke-miterlimit="4"/><path stroke-linecap="butt" transform="matrix(0.705556, 0, 0, 0.705556, 171.249984, 33.250014)" fill="none" stroke-linejoin="miter" d="M 0.0000221447 324.002213 L 810.000067 324.002213 " stroke="#000000" stroke-width="1" stroke-opacity="0.251" stroke-miterlimit="4"/><path stroke-linecap="butt" transform="matrix(0.705556, 0, 0, 0.705556, 171.249984, 33.250014)" fill="none" stroke-linejoin="miter" d="M 0.0000221447 485.997792 L 810.000067 485.997792 " stroke="#000000" stroke-width="1" stroke-opacity="0.251" stroke-miterlimit="4"/><path stroke-linecap="butt" transform="matrix(0.705556, 0, 0, 0.705556, 171.249984, 33.250014)" fill="none" stroke-linejoin="miter" d="M 0.0000221447 647.998909 L 810.000067 647.998909 " stroke="#000000" stroke-width="1" stroke-opacity="0.251" stroke-miterlimit="4"/><path stroke-linecap="butt" transform="matrix(0.705556, 0, 0, 0.705556, 171.249984, 33.250014)" fill="none" stroke-linejoin="miter" d="M 0.0000221447 810.000025 L 810.000067 810.000025 " stroke="#000000" stroke-width="1" stroke-opacity="0.251" stroke-miterlimit="4"/><g fill="#000000" fill-opacity="1"><g transform="translate(63.608653, 39.600023)"><g><path d="M 14.515625 0 L 12.484375 0 L 10.984375 -4.421875 L 4.125 -4.421875 L 2.625 0 L 0.640625 0 L 6.265625 -16.125 L 8.890625 -16.125 Z M 7.421875 -14.171875 L 4.65625 -6.015625 L 10.453125 -6.015625 L 7.6875 -14.171875 Z M 7.421875 -14.171875 "/></g></g><g transform="translate(78.756048, 39.600023)"><g><path d="M 8.078125 0.234375 C 7.171875 0.234375 6.382812 0.0625 5.71875 -0.28125 C 5.0625 -0.632812 4.535156 -1.097656 4.140625 -1.671875 L 3.90625 -1.625 L 3.90625 0 L 2.109375 0 L 2.109375 -17.046875 L 3.90625 -17.046875 L 3.90625 -10.34375 L 4.140625 -10.296875 C 5.066406 -11.691406 6.414062 -12.390625 8.1875 -12.390625 C 9.175781 -12.390625 10.046875 -12.15625 10.796875 -11.6875 C 11.546875 -11.226562 12.128906 -10.523438 12.546875 -9.578125 C 12.960938 -8.640625 13.171875 -7.472656 13.171875 -6.078125 C 13.171875 -4.691406 12.953125 -3.523438 12.515625 -2.578125 C 12.078125 -1.640625 11.472656 -0.9375 10.703125 -0.46875 C 9.941406 0 9.066406 0.234375 8.078125 0.234375 Z M 7.65625 -1.375 C 10.082031 -1.375 11.296875 -2.941406 11.296875 -6.078125 C 11.296875 -7.703125 10.976562 -8.890625 10.34375 -9.640625 C 9.707031 -10.398438 8.8125 -10.78125 7.65625 -10.78125 C 6.507812 -10.78125 5.597656 -10.390625 4.921875 -9.609375 C 4.242188 -8.835938 3.90625 -7.660156 3.90625 -6.078125 C 3.90625 -4.492188 4.242188 -3.3125 4.921875 -2.53125 C 5.597656 -1.757812 6.507812 -1.375 7.65625 -1.375 Z M 7.65625 -1.375 "/></g></g><g transform="translate(93.264033, 39.600023)"><g><path d="M 2.109375 0 L 2.109375 -17.046875 L 3.90625 -17.046875 L 3.90625 -10.421875 L 4.140625 -10.390625 C 5.015625 -11.722656 6.269531 -12.390625 7.90625 -12.390625 C 9.363281 -12.390625 10.421875 -12.015625 11.078125 -11.265625 C 11.742188 -10.523438 12.078125 -9.378906 12.078125 -7.828125 L 12.078125 0 L 10.28125 0 L 10.28125 -7.78125 C 10.28125 -8.519531 10.1875 -9.109375 10 -9.546875 C 9.8125 -9.992188 9.519531 -10.316406 9.125 -10.515625 C 8.726562 -10.722656 8.210938 -10.828125 7.578125 -10.828125 C 6.472656 -10.828125 5.582031 -10.46875 4.90625 -9.75 C 4.238281 -9.039062 3.90625 -7.867188 3.90625 -6.234375 L 3.90625 0 Z M 2.109375 0 "/></g></g><g transform="translate(107.2649, 39.600023)"><g><path d="M 3.015625 -14.515625 C 2.640625 -14.515625 2.332031 -14.628906 2.09375 -14.859375 C 1.851562 -15.097656 1.734375 -15.40625 1.734375 -15.78125 C 1.734375 -16.144531 1.851562 -16.445312 2.09375 -16.6875 C 2.332031 -16.925781 2.640625 -17.046875 3.015625 -17.046875 C 3.398438 -17.046875 3.710938 -16.925781 3.953125 -16.6875 C 4.191406 -16.445312 4.3125 -16.144531 4.3125 -15.78125 C 4.3125 -15.40625 4.191406 -15.097656 3.953125 -14.859375 C 3.710938 -14.628906 3.398438 -14.515625 3.015625 -14.515625 Z M 2.109375 0 L 2.109375 -12.15625 L 3.90625 -12.15625 L 3.90625 0 Z M 2.109375 0 "/></g></g><g transform="translate(113.295195, 39.600023)"><g><path d="M 3.015625 -14.515625 C 2.640625 -14.515625 2.332031 -14.628906 2.09375 -14.859375 C 1.851562 -15.097656 1.734375 -15.40625 1.734375 -15.78125 C 1.734375 -16.144531 1.851562 -16.445312 2.09375 -16.6875 C 2.332031 -16.925781 2.640625 -17.046875 3.015625 -17.046875 C 3.398438 -17.046875 3.710938 -16.925781 3.953125 -16.6875 C 4.191406 -16.445312 4.3125 -16.144531 4.3125 -15.78125 C 4.3125 -15.40625 4.191406 -15.097656 3.953125 -14.859375 C 3.710938 -14.628906 3.398438 -14.515625 3.015625 -14.515625 Z M 0.59375 5.15625 C 0.207031 5.15625 -0.128906 5.128906 -0.421875 5.078125 C -0.710938 5.023438 -0.992188 4.945312 -1.265625 4.84375 L -1 3.453125 L -0.78125 3.390625 C -0.414062 3.523438 -0.0390625 3.59375 0.34375 3.59375 C 0.914062 3.59375 1.351562 3.398438 1.65625 3.015625 C 1.957031 2.640625 2.109375 2.101562 2.109375 1.40625 L 2.109375 -12.15625 L 3.90625 -12.15625 L 3.90625 1.328125 C 3.90625 2.546875 3.613281 3.488281 3.03125 4.15625 C 2.457031 4.820312 1.644531 5.15625 0.59375 5.15625 Z M 0.59375 5.15625 "/></g></g><g transform="translate(119.32549, 39.600023)"><g><path d="M 11.59375 -5.671875 L 3.234375 -5.671875 C 3.285156 -4.191406 3.640625 -3.101562 4.296875 -2.40625 C 4.953125 -1.71875 5.851562 -1.375 7 -1.375 C 7.863281 -1.375 8.5625 -1.523438 9.09375 -1.828125 C 9.625 -2.140625 10.039062 -2.628906 10.34375 -3.296875 L 10.578125 -3.296875 L 11.734375 -2.609375 C 11.390625 -1.722656 10.828125 -1.023438 10.046875 -0.515625 C 9.273438 -0.015625 8.257812 0.234375 7 0.234375 C 5.820312 0.234375 4.8125 0.00390625 3.96875 -0.453125 C 3.125 -0.921875 2.472656 -1.625 2.015625 -2.5625 C 1.554688 -3.507812 1.328125 -4.679688 1.328125 -6.078125 C 1.328125 -7.453125 1.566406 -8.613281 2.046875 -9.5625 C 2.535156 -10.507812 3.195312 -11.21875 4.03125 -11.6875 C 4.863281 -12.15625 5.816406 -12.390625 6.890625 -12.390625 C 8.453125 -12.390625 9.664062 -11.945312 10.53125 -11.0625 C 11.40625 -10.1875 11.847656 -8.890625 11.859375 -7.171875 C 11.859375 -6.492188 11.84375 -6.035156 11.8125 -5.796875 Z M 10.09375 -7.171875 C 10.0625 -8.460938 9.769531 -9.398438 9.21875 -9.984375 C 8.675781 -10.578125 7.898438 -10.875 6.890625 -10.875 C 5.828125 -10.875 4.988281 -10.578125 4.375 -9.984375 C 3.769531 -9.390625 3.40625 -8.453125 3.28125 -7.171875 Z M 10.09375 -7.171875 "/></g></g><g transform="translate(132.290072, 39.600023)"><g><path d="M 11.59375 -5.671875 L 3.234375 -5.671875 C 3.285156 -4.191406 3.640625 -3.101562 4.296875 -2.40625 C 4.953125 -1.71875 5.851562 -1.375 7 -1.375 C 7.863281 -1.375 8.5625 -1.523438 9.09375 -1.828125 C 9.625 -2.140625 10.039062 -2.628906 10.34375 -3.296875 L 10.578125 -3.296875 L 11.734375 -2.609375 C 11.390625 -1.722656 10.828125 -1.023438 10.046875 -0.515625 C 9.273438 -0.015625 8.257812 0.234375 7 0.234375 C 5.820312 0.234375 4.8125 0.00390625 3.96875 -0.453125 C 3.125 -0.921875 2.472656 -1.625 2.015625 -2.5625 C 1.554688 -3.507812 1.328125 -4.679688 1.328125 -6.078125 C 1.328125 -7.453125 1.566406 -8.613281 2.046875 -9.5625 C 2.535156 -10.507812 3.195312 -11.21875 4.03125 -11.6875 C 4.863281 -12.15625 5.816406 -12.390625 6.890625 -12.390625 C 8.453125 -12.390625 9.664062 -11.945312 10.53125 -11.0625 C 11.40625 -10.1875 11.847656 -8.890625 11.859375 -7.171875 C 11.859375 -6.492188 11.84375 -6.035156 11.8125 -5.796875 Z M 10.09375 -7.171875 C 10.0625 -8.460938 9.769531 -9.398438 9.21875 -9.984375 C 8.675781 -10.578125 7.898438 -10.875 6.890625 -10.875 C 5.828125 -10.875 4.988281 -10.578125 4.375 -9.984375 C 3.769531 -9.390625 3.40625 -8.453125 3.28125 -7.171875 Z M 10.09375 -7.171875 "/></g></g><g transform="translate(145.254655, 39.600023)"><g><path d="M 8.21875 -1.921875 L 8.796875 -0.640625 C 8.515625 -0.347656 8.140625 -0.128906 7.671875 0.015625 C 7.203125 0.160156 6.695312 0.234375 6.15625 0.234375 C 3.832031 0.234375 2.671875 -0.941406 2.671875 -3.296875 L 2.671875 -10.6875 L 0.546875 -10.6875 L 0.546875 -12.171875 L 2.671875 -12.171875 L 2.671875 -14.734375 L 4.46875 -15.03125 L 4.46875 -12.171875 L 8.375 -12.171875 L 8.375 -10.6875 L 4.46875 -10.6875 L 4.46875 -3.46875 C 4.46875 -2.070312 5.070312 -1.375 6.28125 -1.375 C 6.945312 -1.375 7.519531 -1.554688 8 -1.921875 Z M 8.21875 -1.921875 "/></g></g></g><g fill="#000000" fill-opacity="1"><g transform="translate(92.641165, 153.900017)"><g><path d="M 7.046875 0.234375 C 6.023438 0.234375 5.113281 0.0976562 4.3125 -0.171875 C 3.507812 -0.453125 2.835938 -0.816406 2.296875 -1.265625 C 1.765625 -1.710938 1.367188 -2.207031 1.109375 -2.75 L 2.140625 -4 L 2.421875 -4 C 3.410156 -2.320312 4.953125 -1.484375 7.046875 -1.484375 C 8.253906 -1.484375 9.15625 -1.734375 9.75 -2.234375 C 10.34375 -2.742188 10.640625 -3.453125 10.640625 -4.359375 C 10.640625 -4.878906 10.539062 -5.320312 10.34375 -5.6875 C 10.144531 -6.0625 9.820312 -6.378906 9.375 -6.640625 C 8.925781 -6.898438 8.316406 -7.125 7.546875 -7.3125 L 5.671875 -7.78125 C 4.265625 -8.125 3.226562 -8.660156 2.5625 -9.390625 C 1.894531 -10.128906 1.5625 -11.066406 1.5625 -12.203125 C 1.5625 -13.003906 1.765625 -13.71875 2.171875 -14.34375 C 2.585938 -14.976562 3.191406 -15.46875 3.984375 -15.8125 C 4.785156 -16.164062 5.734375 -16.34375 6.828125 -16.34375 C 8.046875 -16.34375 9.070312 -16.171875 9.90625 -15.828125 C 10.738281 -15.492188 11.40625 -14.984375 11.90625 -14.296875 L 10.984375 -13.046875 L 10.703125 -13.046875 C 10.242188 -13.617188 9.695312 -14.035156 9.0625 -14.296875 C 8.425781 -14.566406 7.679688 -14.703125 6.828125 -14.703125 C 5.710938 -14.703125 4.867188 -14.484375 4.296875 -14.046875 C 3.734375 -13.609375 3.453125 -13.007812 3.453125 -12.25 C 3.453125 -11.519531 3.660156 -10.9375 4.078125 -10.5 C 4.492188 -10.070312 5.203125 -9.742188 6.203125 -9.515625 L 8.125 -9.046875 C 9.6875 -8.679688 10.816406 -8.117188 11.515625 -7.359375 C 12.222656 -6.597656 12.578125 -5.625 12.578125 -4.4375 C 12.578125 -3.53125 12.375 -2.722656 11.96875 -2.015625 C 11.5625 -1.316406 10.941406 -0.765625 10.109375 -0.359375 C 9.273438 0.0351562 8.253906 0.234375 7.046875 0.234375 Z M 7.046875 0.234375 "/></g></g><g transform="translate(106.454619, 153.900017)"><g><path d="M 5.015625 0.234375 C 3.816406 0.234375 2.878906 -0.078125 2.203125 -0.703125 C 1.535156 -1.328125 1.203125 -2.222656 1.203125 -3.390625 C 1.203125 -4.109375 1.347656 -4.710938 1.640625 -5.203125 C 1.941406 -5.703125 2.40625 -6.109375 3.03125 -6.421875 C 3.65625 -6.734375 4.472656 -6.972656 5.484375 -7.140625 C 6.359375 -7.285156 7.023438 -7.453125 7.484375 -7.640625 C 7.953125 -7.828125 8.265625 -8.03125 8.421875 -8.25 C 8.578125 -8.476562 8.65625 -8.769531 8.65625 -9.125 C 8.65625 -9.664062 8.460938 -10.082031 8.078125 -10.375 C 7.703125 -10.675781 7.097656 -10.828125 6.265625 -10.828125 C 5.472656 -10.828125 4.796875 -10.671875 4.234375 -10.359375 C 3.671875 -10.054688 3.15625 -9.601562 2.6875 -9 L 2.46875 -9 L 1.59375 -10.25 C 2.101562 -10.90625 2.753906 -11.425781 3.546875 -11.8125 C 4.335938 -12.195312 5.242188 -12.390625 6.265625 -12.390625 C 7.691406 -12.390625 8.742188 -12.070312 9.421875 -11.4375 C 10.109375 -10.8125 10.453125 -9.945312 10.453125 -8.84375 L 10.453125 -2.390625 C 10.453125 -1.710938 10.738281 -1.375 11.3125 -1.375 C 11.5 -1.375 11.679688 -1.410156 11.859375 -1.484375 L 12.015625 -1.4375 L 12.21875 -0.1875 C 12.09375 -0.101562 11.921875 -0.0351562 11.703125 0.015625 C 11.484375 0.0664062 11.257812 0.09375 11.03125 0.09375 C 10.363281 0.09375 9.859375 -0.0507812 9.515625 -0.34375 C 9.171875 -0.644531 8.953125 -1.082031 8.859375 -1.65625 L 8.625 -1.671875 C 8.28125 -1.035156 7.8125 -0.554688 7.21875 -0.234375 C 6.632812 0.078125 5.898438 0.234375 5.015625 0.234375 Z M 5.40625 -1.203125 C 6.082031 -1.203125 6.671875 -1.359375 7.171875 -1.671875 C 7.671875 -1.984375 8.050781 -2.421875 8.3125 -2.984375 C 8.570312 -3.554688 8.703125 -4.210938 8.703125 -4.953125 L 8.703125 -6.5 L 8.5 -6.53125 C 8.226562 -6.34375 7.894531 -6.179688 7.5 -6.046875 C 7.113281 -5.921875 6.570312 -5.804688 5.875 -5.703125 C 5.164062 -5.609375 4.601562 -5.460938 4.1875 -5.265625 C 3.78125 -5.066406 3.488281 -4.816406 3.3125 -4.515625 C 3.132812 -4.210938 3.046875 -3.835938 3.046875 -3.390625 C 3.046875 -2.671875 3.253906 -2.125 3.671875 -1.75 C 4.085938 -1.382812 4.664062 -1.203125 5.40625 -1.203125 Z M 5.40625 -1.203125 "/></g></g><g transform="translate(119.033351, 153.900017)"><g><path d="M 6.265625 5.15625 C 4.347656 5.15625 2.945312 4.832031 2.0625 4.1875 C 1.175781 3.550781 0.734375 2.707031 0.734375 1.65625 C 0.734375 0.96875 0.9375 0.421875 1.34375 0.015625 C 1.757812 -0.378906 2.363281 -0.664062 3.15625 -0.84375 L 3.15625 -1.078125 C 2.78125 -1.296875 2.5 -1.546875 2.3125 -1.828125 C 2.125 -2.117188 2.03125 -2.460938 2.03125 -2.859375 C 2.03125 -3.328125 2.175781 -3.707031 2.46875 -4 C 2.769531 -4.289062 3.210938 -4.515625 3.796875 -4.671875 L 3.796875 -4.90625 C 2.472656 -5.601562 1.8125 -6.738281 1.8125 -8.3125 C 1.8125 -9.101562 1.992188 -9.804688 2.359375 -10.421875 C 2.722656 -11.046875 3.238281 -11.53125 3.90625 -11.875 C 4.570312 -12.21875 5.347656 -12.390625 6.234375 -12.390625 C 7.253906 -12.390625 8.109375 -12.164062 8.796875 -11.71875 C 9.054688 -12.007812 9.25 -12.316406 9.375 -12.640625 C 9.5 -12.960938 9.582031 -13.332031 9.625 -13.75 L 9.859375 -13.890625 L 11.328125 -13.53125 C 11.253906 -12.914062 11.066406 -12.394531 10.765625 -11.96875 C 10.472656 -11.539062 10.054688 -11.191406 9.515625 -10.921875 L 9.515625 -10.6875 C 9.898438 -10.375 10.1875 -10.007812 10.375 -9.59375 C 10.5625 -9.175781 10.65625 -8.691406 10.65625 -8.140625 C 10.65625 -7.378906 10.472656 -6.691406 10.109375 -6.078125 C 9.742188 -5.472656 9.222656 -4.992188 8.546875 -4.640625 C 7.878906 -4.296875 7.109375 -4.125 6.234375 -4.125 C 6.128906 -4.125 5.945312 -4.128906 5.6875 -4.140625 C 5.394531 -4.160156 5.175781 -4.171875 5.03125 -4.171875 C 4.65625 -4.171875 4.351562 -4.070312 4.125 -3.875 C 3.894531 -3.675781 3.78125 -3.421875 3.78125 -3.109375 C 3.78125 -2.722656 3.898438 -2.441406 4.140625 -2.265625 C 4.390625 -2.085938 4.800781 -1.988281 5.375 -1.96875 L 8.25 -1.859375 C 9.488281 -1.816406 10.40625 -1.53125 11 -1 C 11.601562 -0.46875 11.90625 0.285156 11.90625 1.265625 C 11.90625 1.992188 11.707031 2.648438 11.3125 3.234375 C 10.925781 3.816406 10.3125 4.28125 9.46875 4.625 C 8.625 4.976562 7.554688 5.15625 6.265625 5.15625 Z M 6.234375 -5.671875 C 7.097656 -5.671875 7.765625 -5.894531 8.234375 -6.34375 C 8.703125 -6.789062 8.9375 -7.414062 8.9375 -8.21875 C 8.9375 -9.0625 8.703125 -9.707031 8.234375 -10.15625 C 7.773438 -10.613281 7.109375 -10.84375 6.234375 -10.84375 C 5.367188 -10.84375 4.707031 -10.613281 4.25 -10.15625 C 3.800781 -9.707031 3.578125 -9.0625 3.578125 -8.21875 C 3.578125 -7.40625 3.800781 -6.773438 4.25 -6.328125 C 4.707031 -5.890625 5.367188 -5.671875 6.234375 -5.671875 Z M 6.265625 3.609375 C 7.160156 3.609375 7.890625 3.507812 8.453125 3.3125 C 9.023438 3.113281 9.4375 2.851562 9.6875 2.53125 C 9.9375 2.207031 10.0625 1.84375 10.0625 1.4375 C 10.0625 1.070312 9.992188 0.78125 9.859375 0.5625 C 9.722656 0.34375 9.503906 0.175781 9.203125 0.0625 C 8.898438 -0.0390625 8.488281 -0.109375 7.96875 -0.140625 L 5.25 -0.28125 L 4.859375 -0.28125 C 3.335938 -0.257812 2.578125 0.332031 2.578125 1.5 C 2.578125 2.90625 3.804688 3.609375 6.265625 3.609375 Z M 6.265625 3.609375 "/></g></g></g><g fill="#000000" fill-opacity="1"><g transform="translate(131.303403, 153.900017)"><g><path d="M 6.984375 0.234375 C 5.835938 0.234375 4.835938 -0.00390625 3.984375 -0.484375 C 3.140625 -0.972656 2.484375 -1.691406 2.015625 -2.640625 C 1.554688 -3.585938 1.328125 -4.734375 1.328125 -6.078125 C 1.328125 -7.421875 1.554688 -8.566406 2.015625 -9.515625 C 2.484375 -10.460938 3.140625 -11.175781 3.984375 -11.65625 C 4.835938 -12.144531 5.835938 -12.390625 6.984375 -12.390625 C 8.128906 -12.390625 9.125 -12.144531 9.96875 -11.65625 C 10.820312 -11.175781 11.476562 -10.460938 11.9375 -9.515625 C 12.394531 -8.566406 12.625 -7.421875 12.625 -6.078125 C 12.625 -4.734375 12.394531 -3.585938 11.9375 -2.640625 C 11.476562 -1.691406 10.820312 -0.972656 9.96875 -0.484375 C 9.125 -0.00390625 8.128906 0.234375 6.984375 0.234375 Z M 6.984375 -1.375 C 8.191406 -1.375 9.117188 -1.753906 9.765625 -2.515625 C 10.410156 -3.285156 10.734375 -4.472656 10.734375 -6.078125 C 10.734375 -7.679688 10.410156 -8.863281 9.765625 -9.625 C 9.117188 -10.394531 8.191406 -10.78125 6.984375 -10.78125 C 5.765625 -10.78125 4.832031 -10.394531 4.1875 -9.625 C 3.539062 -8.863281 3.21875 -7.679688 3.21875 -6.078125 C 3.21875 -4.472656 3.539062 -3.285156 4.1875 -2.515625 C 4.832031 -1.753906 5.765625 -1.375 6.984375 -1.375 Z M 6.984375 -1.375 "/></g></g><g transform="translate(145.260173, 153.900017)"><g><path d="M 2.109375 0 L 2.109375 -12.15625 L 3.828125 -12.15625 L 3.828125 -10.25 L 4.0625 -10.203125 C 4.625 -11.578125 5.6875 -12.265625 7.25 -12.265625 C 8.082031 -12.265625 8.707031 -12.113281 9.125 -11.8125 L 8.65625 -10.296875 L 8.4375 -10.25 C 7.976562 -10.476562 7.476562 -10.59375 6.9375 -10.59375 C 5.96875 -10.59375 5.21875 -10.226562 4.6875 -9.5 C 4.164062 -8.769531 3.90625 -7.59375 3.90625 -5.96875 L 3.90625 0 Z M 2.109375 0 "/></g></g></g><g fill="#000000" fill-opacity="1"><g transform="translate(59.959625, 268.199982)"><g><path d="M 2.4375 0 L 2.4375 -16.125 L 4.328125 -16.125 L 4.328125 -9.078125 L 4.671875 -9.078125 L 11.296875 -16.125 L 13.359375 -16.125 L 13.359375 -15.84375 L 6.390625 -8.3125 L 13.90625 -0.28125 L 13.90625 0 L 11.734375 0 L 4.671875 -7.421875 L 4.328125 -7.421875 L 4.328125 0 Z M 2.4375 0 "/></g></g><g transform="translate(74.180978, 268.199982)"><g><path d="M 5.015625 0.234375 C 3.816406 0.234375 2.878906 -0.078125 2.203125 -0.703125 C 1.535156 -1.328125 1.203125 -2.222656 1.203125 -3.390625 C 1.203125 -4.109375 1.347656 -4.710938 1.640625 -5.203125 C 1.941406 -5.703125 2.40625 -6.109375 3.03125 -6.421875 C 3.65625 -6.734375 4.472656 -6.972656 5.484375 -7.140625 C 6.359375 -7.285156 7.023438 -7.453125 7.484375 -7.640625 C 7.953125 -7.828125 8.265625 -8.03125 8.421875 -8.25 C 8.578125 -8.476562 8.65625 -8.769531 8.65625 -9.125 C 8.65625 -9.664062 8.460938 -10.082031 8.078125 -10.375 C 7.703125 -10.675781 7.097656 -10.828125 6.265625 -10.828125 C 5.472656 -10.828125 4.796875 -10.671875 4.234375 -10.359375 C 3.671875 -10.054688 3.15625 -9.601562 2.6875 -9 L 2.46875 -9 L 1.59375 -10.25 C 2.101562 -10.90625 2.753906 -11.425781 3.546875 -11.8125 C 4.335938 -12.195312 5.242188 -12.390625 6.265625 -12.390625 C 7.691406 -12.390625 8.742188 -12.070312 9.421875 -11.4375 C 10.109375 -10.8125 10.453125 -9.945312 10.453125 -8.84375 L 10.453125 -2.390625 C 10.453125 -1.710938 10.738281 -1.375 11.3125 -1.375 C 11.5 -1.375 11.679688 -1.410156 11.859375 -1.484375 L 12.015625 -1.4375 L 12.21875 -0.1875 C 12.09375 -0.101562 11.921875 -0.0351562 11.703125 0.015625 C 11.484375 0.0664062 11.257812 0.09375 11.03125 0.09375 C 10.363281 0.09375 9.859375 -0.0507812 9.515625 -0.34375 C 9.171875 -0.644531 8.953125 -1.082031 8.859375 -1.65625 L 8.625 -1.671875 C 8.28125 -1.035156 7.8125 -0.554688 7.21875 -0.234375 C 6.632812 0.078125 5.898438 0.234375 5.015625 0.234375 Z M 5.40625 -1.203125 C 6.082031 -1.203125 6.671875 -1.359375 7.171875 -1.671875 C 7.671875 -1.984375 8.050781 -2.421875 8.3125 -2.984375 C 8.570312 -3.554688 8.703125 -4.210938 8.703125 -4.953125 L 8.703125 -6.5 L 8.5 -6.53125 C 8.226562 -6.34375 7.894531 -6.179688 7.5 -6.046875 C 7.113281 -5.921875 6.570312 -5.804688 5.875 -5.703125 C 5.164062 -5.609375 4.601562 -5.460938 4.1875 -5.265625 C 3.78125 -5.066406 3.488281 -4.816406 3.3125 -4.515625 C 3.132812 -4.210938 3.046875 -3.835938 3.046875 -3.390625 C 3.046875 -2.671875 3.253906 -2.125 3.671875 -1.75 C 4.085938 -1.382812 4.664062 -1.203125 5.40625 -1.203125 Z M 5.40625 -1.203125 "/></g></g><g transform="translate(86.75971, 268.199982)"><g><path d="M 2.109375 0 L 2.109375 -12.15625 L 3.828125 -12.15625 L 3.828125 -10.359375 L 4.0625 -10.3125 C 4.46875 -11 4.960938 -11.515625 5.546875 -11.859375 C 6.128906 -12.210938 6.832031 -12.390625 7.65625 -12.390625 C 8.59375 -12.390625 9.316406 -12.210938 9.828125 -11.859375 C 10.347656 -11.503906 10.75 -10.925781 11.03125 -10.125 L 11.265625 -10.125 C 11.679688 -10.875 12.195312 -11.4375 12.8125 -11.8125 C 13.425781 -12.195312 14.179688 -12.390625 15.078125 -12.390625 C 16.328125 -12.390625 17.257812 -12.050781 17.875 -11.375 C 18.488281 -10.695312 18.796875 -9.671875 18.796875 -8.296875 L 18.796875 0 L 17 0 L 17 -8.25 C 17 -9.125 16.8125 -9.769531 16.4375 -10.1875 C 16.070312 -10.613281 15.476562 -10.828125 14.65625 -10.828125 C 13.6875 -10.828125 12.894531 -10.472656 12.28125 -9.765625 C 11.664062 -9.054688 11.359375 -7.894531 11.359375 -6.28125 L 11.359375 0 L 9.5625 0 L 9.5625 -8.25 C 9.5625 -9.125 9.375 -9.769531 9 -10.1875 C 8.625 -10.613281 8.023438 -10.828125 7.203125 -10.828125 C 6.234375 -10.828125 5.441406 -10.484375 4.828125 -9.796875 C 4.210938 -9.117188 3.90625 -8.007812 3.90625 -6.46875 L 3.90625 0 Z M 2.109375 0 "/></g></g><g transform="translate(107.485404, 268.199982)"><g><path d="M 3.015625 -14.515625 C 2.640625 -14.515625 2.332031 -14.628906 2.09375 -14.859375 C 1.851562 -15.097656 1.734375 -15.40625 1.734375 -15.78125 C 1.734375 -16.144531 1.851562 -16.445312 2.09375 -16.6875 C 2.332031 -16.925781 2.640625 -17.046875 3.015625 -17.046875 C 3.398438 -17.046875 3.710938 -16.925781 3.953125 -16.6875 C 4.191406 -16.445312 4.3125 -16.144531 4.3125 -15.78125 C 4.3125 -15.40625 4.191406 -15.097656 3.953125 -14.859375 C 3.710938 -14.628906 3.398438 -14.515625 3.015625 -14.515625 Z M 2.109375 0 L 2.109375 -12.15625 L 3.90625 -12.15625 L 3.90625 0 Z M 2.109375 0 "/></g></g><g transform="translate(113.515699, 268.199982)"><g><path d="M 2.109375 0 L 2.109375 -12.15625 L 3.828125 -12.15625 L 3.828125 -10.25 L 4.0625 -10.203125 C 4.457031 -10.910156 4.96875 -11.453125 5.59375 -11.828125 C 6.226562 -12.203125 7 -12.390625 7.90625 -12.390625 C 9.363281 -12.390625 10.421875 -12.015625 11.078125 -11.265625 C 11.742188 -10.523438 12.078125 -9.378906 12.078125 -7.828125 L 12.078125 0 L 10.28125 0 L 10.28125 -7.78125 C 10.28125 -8.519531 10.1875 -9.109375 10 -9.546875 C 9.8125 -9.992188 9.519531 -10.316406 9.125 -10.515625 C 8.726562 -10.722656 8.210938 -10.828125 7.578125 -10.828125 C 6.484375 -10.828125 5.597656 -10.460938 4.921875 -9.734375 C 4.242188 -9.015625 3.90625 -7.847656 3.90625 -6.234375 L 3.90625 0 Z M 2.109375 0 "/></g></g><g transform="translate(127.516566, 268.199982)"><g><path d="M 5.015625 0.234375 C 3.816406 0.234375 2.878906 -0.078125 2.203125 -0.703125 C 1.535156 -1.328125 1.203125 -2.222656 1.203125 -3.390625 C 1.203125 -4.109375 1.347656 -4.710938 1.640625 -5.203125 C 1.941406 -5.703125 2.40625 -6.109375 3.03125 -6.421875 C 3.65625 -6.734375 4.472656 -6.972656 5.484375 -7.140625 C 6.359375 -7.285156 7.023438 -7.453125 7.484375 -7.640625 C 7.953125 -7.828125 8.265625 -8.03125 8.421875 -8.25 C 8.578125 -8.476562 8.65625 -8.769531 8.65625 -9.125 C 8.65625 -9.664062 8.460938 -10.082031 8.078125 -10.375 C 7.703125 -10.675781 7.097656 -10.828125 6.265625 -10.828125 C 5.472656 -10.828125 4.796875 -10.671875 4.234375 -10.359375 C 3.671875 -10.054688 3.15625 -9.601562 2.6875 -9 L 2.46875 -9 L 1.59375 -10.25 C 2.101562 -10.90625 2.753906 -11.425781 3.546875 -11.8125 C 4.335938 -12.195312 5.242188 -12.390625 6.265625 -12.390625 C 7.691406 -12.390625 8.742188 -12.070312 9.421875 -11.4375 C 10.109375 -10.8125 10.453125 -9.945312 10.453125 -8.84375 L 10.453125 -2.390625 C 10.453125 -1.710938 10.738281 -1.375 11.3125 -1.375 C 11.5 -1.375 11.679688 -1.410156 11.859375 -1.484375 L 12.015625 -1.4375 L 12.21875 -0.1875 C 12.09375 -0.101562 11.921875 -0.0351562 11.703125 0.015625 C 11.484375 0.0664062 11.257812 0.09375 11.03125 0.09375 C 10.363281 0.09375 9.859375 -0.0507812 9.515625 -0.34375 C 9.171875 -0.644531 8.953125 -1.082031 8.859375 -1.65625 L 8.625 -1.671875 C 8.28125 -1.035156 7.8125 -0.554688 7.21875 -0.234375 C 6.632812 0.078125 5.898438 0.234375 5.015625 0.234375 Z M 5.40625 -1.203125 C 6.082031 -1.203125 6.671875 -1.359375 7.171875 -1.671875 C 7.671875 -1.984375 8.050781 -2.421875 8.3125 -2.984375 C 8.570312 -3.554688 8.703125 -4.210938 8.703125 -4.953125 L 8.703125 -6.5 L 8.5 -6.53125 C 8.226562 -6.34375 7.894531 -6.179688 7.5 -6.046875 C 7.113281 -5.921875 6.570312 -5.804688 5.875 -5.703125 C 5.164062 -5.609375 4.601562 -5.460938 4.1875 -5.265625 C 3.78125 -5.066406 3.488281 -4.816406 3.3125 -4.515625 C 3.132812 -4.210938 3.046875 -3.835938 3.046875 -3.390625 C 3.046875 -2.671875 3.253906 -2.125 3.671875 -1.75 C 4.085938 -1.382812 4.664062 -1.203125 5.40625 -1.203125 Z M 5.40625 -1.203125 "/></g></g><g transform="translate(140.095298, 268.199982)"><g><path d="M 2.109375 0 L 2.109375 -12.15625 L 3.828125 -12.15625 L 3.828125 -10.25 L 4.0625 -10.203125 C 4.625 -11.578125 5.6875 -12.265625 7.25 -12.265625 C 8.082031 -12.265625 8.707031 -12.113281 9.125 -11.8125 L 8.65625 -10.296875 L 8.4375 -10.25 C 7.976562 -10.476562 7.476562 -10.59375 6.9375 -10.59375 C 5.96875 -10.59375 5.21875 -10.226562 4.6875 -9.5 C 4.164062 -8.769531 3.90625 -7.59375 3.90625 -5.96875 L 3.90625 0 Z M 2.109375 0 "/></g></g><g transform="translate(149.488006, 268.199982)"><g><path d="M 3.015625 -14.515625 C 2.640625 -14.515625 2.332031 -14.628906 2.09375 -14.859375 C 1.851562 -15.097656 1.734375 -15.40625 1.734375 -15.78125 C 1.734375 -16.144531 1.851562 -16.445312 2.09375 -16.6875 C 2.332031 -16.925781 2.640625 -17.046875 3.015625 -17.046875 C 3.398438 -17.046875 3.710938 -16.925781 3.953125 -16.6875 C 4.191406 -16.445312 4.3125 -16.144531 4.3125 -15.78125 C 4.3125 -15.40625 4.191406 -15.097656 3.953125 -14.859375 C 3.710938 -14.628906 3.398438 -14.515625 3.015625 -14.515625 Z M 2.109375 0 L 2.109375 -12.15625 L 3.90625 -12.15625 L 3.90625 0 Z M 2.109375 0 "/></g></g></g><g fill="#000000" fill-opacity="1"><g transform="translate(21.539926, 382.500036)"><g><path d="M 7.046875 0.234375 C 6.023438 0.234375 5.113281 0.0976562 4.3125 -0.171875 C 3.507812 -0.453125 2.835938 -0.816406 2.296875 -1.265625 C 1.765625 -1.710938 1.367188 -2.207031 1.109375 -2.75 L 2.140625 -4 L 2.421875 -4 C 3.410156 -2.320312 4.953125 -1.484375 7.046875 -1.484375 C 8.253906 -1.484375 9.15625 -1.734375 9.75 -2.234375 C 10.34375 -2.742188 10.640625 -3.453125 10.640625 -4.359375 C 10.640625 -4.878906 10.539062 -5.320312 10.34375 -5.6875 C 10.144531 -6.0625 9.820312 -6.378906 9.375 -6.640625 C 8.925781 -6.898438 8.316406 -7.125 7.546875 -7.3125 L 5.671875 -7.78125 C 4.265625 -8.125 3.226562 -8.660156 2.5625 -9.390625 C 1.894531 -10.128906 1.5625 -11.066406 1.5625 -12.203125 C 1.5625 -13.003906 1.765625 -13.71875 2.171875 -14.34375 C 2.585938 -14.976562 3.191406 -15.46875 3.984375 -15.8125 C 4.785156 -16.164062 5.734375 -16.34375 6.828125 -16.34375 C 8.046875 -16.34375 9.070312 -16.171875 9.90625 -15.828125 C 10.738281 -15.492188 11.40625 -14.984375 11.90625 -14.296875 L 10.984375 -13.046875 L 10.703125 -13.046875 C 10.242188 -13.617188 9.695312 -14.035156 9.0625 -14.296875 C 8.425781 -14.566406 7.679688 -14.703125 6.828125 -14.703125 C 5.710938 -14.703125 4.867188 -14.484375 4.296875 -14.046875 C 3.734375 -13.609375 3.453125 -13.007812 3.453125 -12.25 C 3.453125 -11.519531 3.660156 -10.9375 4.078125 -10.5 C 4.492188 -10.070312 5.203125 -9.742188 6.203125 -9.515625 L 8.125 -9.046875 C 9.6875 -8.679688 10.816406 -8.117188 11.515625 -7.359375 C 12.222656 -6.597656 12.578125 -5.625 12.578125 -4.4375 C 12.578125 -3.53125 12.375 -2.722656 11.96875 -2.015625 C 11.5625 -1.316406 10.941406 -0.765625 10.109375 -0.359375 C 9.273438 0.0351562 8.253906 0.234375 7.046875 0.234375 Z M 7.046875 0.234375 "/></g></g><g transform="translate(35.35338, 382.500036)"><g><path d="M 2.109375 0 L 2.109375 -17.046875 L 3.90625 -17.046875 L 3.90625 -10.421875 L 4.140625 -10.390625 C 5.015625 -11.722656 6.269531 -12.390625 7.90625 -12.390625 C 9.363281 -12.390625 10.421875 -12.015625 11.078125 -11.265625 C 11.742188 -10.523438 12.078125 -9.378906 12.078125 -7.828125 L 12.078125 0 L 10.28125 0 L 10.28125 -7.78125 C 10.28125 -8.519531 10.1875 -9.109375 10 -9.546875 C 9.8125 -9.992188 9.519531 -10.316406 9.125 -10.515625 C 8.726562 -10.722656 8.210938 -10.828125 7.578125 -10.828125 C 6.472656 -10.828125 5.582031 -10.46875 4.90625 -9.75 C 4.238281 -9.039062 3.90625 -7.867188 3.90625 -6.234375 L 3.90625 0 Z M 2.109375 0 "/></g></g><g transform="translate(49.354247, 382.500036)"><g><path d="M 5.015625 0.234375 C 3.816406 0.234375 2.878906 -0.078125 2.203125 -0.703125 C 1.535156 -1.328125 1.203125 -2.222656 1.203125 -3.390625 C 1.203125 -4.109375 1.347656 -4.710938 1.640625 -5.203125 C 1.941406 -5.703125 2.40625 -6.109375 3.03125 -6.421875 C 3.65625 -6.734375 4.472656 -6.972656 5.484375 -7.140625 C 6.359375 -7.285156 7.023438 -7.453125 7.484375 -7.640625 C 7.953125 -7.828125 8.265625 -8.03125 8.421875 -8.25 C 8.578125 -8.476562 8.65625 -8.769531 8.65625 -9.125 C 8.65625 -9.664062 8.460938 -10.082031 8.078125 -10.375 C 7.703125 -10.675781 7.097656 -10.828125 6.265625 -10.828125 C 5.472656 -10.828125 4.796875 -10.671875 4.234375 -10.359375 C 3.671875 -10.054688 3.15625 -9.601562 2.6875 -9 L 2.46875 -9 L 1.59375 -10.25 C 2.101562 -10.90625 2.753906 -11.425781 3.546875 -11.8125 C 4.335938 -12.195312 5.242188 -12.390625 6.265625 -12.390625 C 7.691406 -12.390625 8.742188 -12.070312 9.421875 -11.4375 C 10.109375 -10.8125 10.453125 -9.945312 10.453125 -8.84375 L 10.453125 -2.390625 C 10.453125 -1.710938 10.738281 -1.375 11.3125 -1.375 C 11.5 -1.375 11.679688 -1.410156 11.859375 -1.484375 L 12.015625 -1.4375 L 12.21875 -0.1875 C 12.09375 -0.101562 11.921875 -0.0351562 11.703125 0.015625 C 11.484375 0.0664062 11.257812 0.09375 11.03125 0.09375 C 10.363281 0.09375 9.859375 -0.0507812 9.515625 -0.34375 C 9.171875 -0.644531 8.953125 -1.082031 8.859375 -1.65625 L 8.625 -1.671875 C 8.28125 -1.035156 7.8125 -0.554688 7.21875 -0.234375 C 6.632812 0.078125 5.898438 0.234375 5.015625 0.234375 Z M 5.40625 -1.203125 C 6.082031 -1.203125 6.671875 -1.359375 7.171875 -1.671875 C 7.671875 -1.984375 8.050781 -2.421875 8.3125 -2.984375 C 8.570312 -3.554688 8.703125 -4.210938 8.703125 -4.953125 L 8.703125 -6.5 L 8.5 -6.53125 C 8.226562 -6.34375 7.894531 -6.179688 7.5 -6.046875 C 7.113281 -5.921875 6.570312 -5.804688 5.875 -5.703125 C 5.164062 -5.609375 4.601562 -5.460938 4.1875 -5.265625 C 3.78125 -5.066406 3.488281 -4.816406 3.3125 -4.515625 C 3.132812 -4.210938 3.046875 -3.835938 3.046875 -3.390625 C 3.046875 -2.671875 3.253906 -2.125 3.671875 -1.75 C 4.085938 -1.382812 4.664062 -1.203125 5.40625 -1.203125 Z M 5.40625 -1.203125 "/></g></g><g transform="translate(61.932979, 382.500036)"><g><path d="M 2.109375 0 L 2.109375 -12.15625 L 3.828125 -12.15625 L 3.828125 -10.359375 L 4.0625 -10.3125 C 4.46875 -11 4.960938 -11.515625 5.546875 -11.859375 C 6.128906 -12.210938 6.832031 -12.390625 7.65625 -12.390625 C 8.59375 -12.390625 9.316406 -12.210938 9.828125 -11.859375 C 10.347656 -11.503906 10.75 -10.925781 11.03125 -10.125 L 11.265625 -10.125 C 11.679688 -10.875 12.195312 -11.4375 12.8125 -11.8125 C 13.425781 -12.195312 14.179688 -12.390625 15.078125 -12.390625 C 16.328125 -12.390625 17.257812 -12.050781 17.875 -11.375 C 18.488281 -10.695312 18.796875 -9.671875 18.796875 -8.296875 L 18.796875 0 L 17 0 L 17 -8.25 C 17 -9.125 16.8125 -9.769531 16.4375 -10.1875 C 16.070312 -10.613281 15.476562 -10.828125 14.65625 -10.828125 C 13.6875 -10.828125 12.894531 -10.472656 12.28125 -9.765625 C 11.664062 -9.054688 11.359375 -7.894531 11.359375 -6.28125 L 11.359375 0 L 9.5625 0 L 9.5625 -8.25 C 9.5625 -9.125 9.375 -9.769531 9 -10.1875 C 8.625 -10.613281 8.023438 -10.828125 7.203125 -10.828125 C 6.234375 -10.828125 5.441406 -10.484375 4.828125 -9.796875 C 4.210938 -9.117188 3.90625 -8.007812 3.90625 -6.46875 L 3.90625 0 Z M 2.109375 0 "/></g></g><g transform="translate(82.658673, 382.500036)"><g><path d="M 8.078125 0.234375 C 7.171875 0.234375 6.382812 0.0625 5.71875 -0.28125 C 5.0625 -0.632812 4.535156 -1.097656 4.140625 -1.671875 L 3.90625 -1.625 L 3.90625 0 L 2.109375 0 L 2.109375 -17.046875 L 3.90625 -17.046875 L 3.90625 -10.34375 L 4.140625 -10.296875 C 5.066406 -11.691406 6.414062 -12.390625 8.1875 -12.390625 C 9.175781 -12.390625 10.046875 -12.15625 10.796875 -11.6875 C 11.546875 -11.226562 12.128906 -10.523438 12.546875 -9.578125 C 12.960938 -8.640625 13.171875 -7.472656 13.171875 -6.078125 C 13.171875 -4.691406 12.953125 -3.523438 12.515625 -2.578125 C 12.078125 -1.640625 11.472656 -0.9375 10.703125 -0.46875 C 9.941406 0 9.066406 0.234375 8.078125 0.234375 Z M 7.65625 -1.375 C 10.082031 -1.375 11.296875 -2.941406 11.296875 -6.078125 C 11.296875 -7.703125 10.976562 -8.890625 10.34375 -9.640625 C 9.707031 -10.398438 8.8125 -10.78125 7.65625 -10.78125 C 6.507812 -10.78125 5.597656 -10.390625 4.921875 -9.609375 C 4.242188 -8.835938 3.90625 -7.660156 3.90625 -6.078125 C 3.90625 -4.492188 4.242188 -3.3125 4.921875 -2.53125 C 5.597656 -1.757812 6.507812 -1.375 7.65625 -1.375 Z M 7.65625 -1.375 "/></g></g><g transform="translate(97.166658, 382.500036)"><g><path d="M 5.015625 0.234375 C 3.816406 0.234375 2.878906 -0.078125 2.203125 -0.703125 C 1.535156 -1.328125 1.203125 -2.222656 1.203125 -3.390625 C 1.203125 -4.109375 1.347656 -4.710938 1.640625 -5.203125 C 1.941406 -5.703125 2.40625 -6.109375 3.03125 -6.421875 C 3.65625 -6.734375 4.472656 -6.972656 5.484375 -7.140625 C 6.359375 -7.285156 7.023438 -7.453125 7.484375 -7.640625 C 7.953125 -7.828125 8.265625 -8.03125 8.421875 -8.25 C 8.578125 -8.476562 8.65625 -8.769531 8.65625 -9.125 C 8.65625 -9.664062 8.460938 -10.082031 8.078125 -10.375 C 7.703125 -10.675781 7.097656 -10.828125 6.265625 -10.828125 C 5.472656 -10.828125 4.796875 -10.671875 4.234375 -10.359375 C 3.671875 -10.054688 3.15625 -9.601562 2.6875 -9 L 2.46875 -9 L 1.59375 -10.25 C 2.101562 -10.90625 2.753906 -11.425781 3.546875 -11.8125 C 4.335938 -12.195312 5.242188 -12.390625 6.265625 -12.390625 C 7.691406 -12.390625 8.742188 -12.070312 9.421875 -11.4375 C 10.109375 -10.8125 10.453125 -9.945312 10.453125 -8.84375 L 10.453125 -2.390625 C 10.453125 -1.710938 10.738281 -1.375 11.3125 -1.375 C 11.5 -1.375 11.679688 -1.410156 11.859375 -1.484375 L 12.015625 -1.4375 L 12.21875 -0.1875 C 12.09375 -0.101562 11.921875 -0.0351562 11.703125 0.015625 C 11.484375 0.0664062 11.257812 0.09375 11.03125 0.09375 C 10.363281 0.09375 9.859375 -0.0507812 9.515625 -0.34375 C 9.171875 -0.644531 8.953125 -1.082031 8.859375 -1.65625 L 8.625 -1.671875 C 8.28125 -1.035156 7.8125 -0.554688 7.21875 -0.234375 C 6.632812 0.078125 5.898438 0.234375 5.015625 0.234375 Z M 5.40625 -1.203125 C 6.082031 -1.203125 6.671875 -1.359375 7.171875 -1.671875 C 7.671875 -1.984375 8.050781 -2.421875 8.3125 -2.984375 C 8.570312 -3.554688 8.703125 -4.210938 8.703125 -4.953125 L 8.703125 -6.5 L 8.5 -6.53125 C 8.226562 -6.34375 7.894531 -6.179688 7.5 -6.046875 C 7.113281 -5.921875 6.570312 -5.804688 5.875 -5.703125 C 5.164062 -5.609375 4.601562 -5.460938 4.1875 -5.265625 C 3.78125 -5.066406 3.488281 -4.816406 3.3125 -4.515625 C 3.132812 -4.210938 3.046875 -3.835938 3.046875 -3.390625 C 3.046875 -2.671875 3.253906 -2.125 3.671875 -1.75 C 4.085938 -1.382812 4.664062 -1.203125 5.40625 -1.203125 Z M 5.40625 -1.203125 "/></g></g><g transform="translate(109.74539, 382.500036)"><g><path d="M 5.546875 0.234375 C 4.785156 0.234375 4.078125 0.132812 3.421875 -0.0625 C 2.773438 -0.269531 2.226562 -0.550781 1.78125 -0.90625 C 1.332031 -1.257812 1.015625 -1.65625 0.828125 -2.09375 L 1.890625 -3.203125 L 2.109375 -3.203125 C 2.515625 -2.597656 2.992188 -2.140625 3.546875 -1.828125 C 4.109375 -1.523438 4.773438 -1.375 5.546875 -1.375 C 6.441406 -1.375 7.125 -1.546875 7.59375 -1.890625 C 8.0625 -2.242188 8.296875 -2.734375 8.296875 -3.359375 C 8.296875 -3.835938 8.148438 -4.234375 7.859375 -4.546875 C 7.578125 -4.859375 7.125 -5.09375 6.5 -5.25 L 4.4375 -5.75 C 3.34375 -6.019531 2.546875 -6.441406 2.046875 -7.015625 C 1.546875 -7.585938 1.296875 -8.296875 1.296875 -9.140625 C 1.296875 -9.796875 1.460938 -10.367188 1.796875 -10.859375 C 2.128906 -11.347656 2.613281 -11.722656 3.25 -11.984375 C 3.894531 -12.253906 4.648438 -12.390625 5.515625 -12.390625 C 6.640625 -12.390625 7.519531 -12.234375 8.15625 -11.921875 C 8.800781 -11.609375 9.304688 -11.171875 9.671875 -10.609375 L 8.65625 -9.625 L 8.4375 -9.625 C 8.039062 -10.070312 7.613281 -10.394531 7.15625 -10.59375 C 6.695312 -10.789062 6.148438 -10.890625 5.515625 -10.890625 C 4.722656 -10.890625 4.113281 -10.742188 3.6875 -10.453125 C 3.257812 -10.171875 3.046875 -9.757812 3.046875 -9.21875 C 3.046875 -8.726562 3.195312 -8.332031 3.5 -8.03125 C 3.800781 -7.726562 4.328125 -7.484375 5.078125 -7.296875 L 7.09375 -6.8125 C 8.144531 -6.5625 8.90625 -6.144531 9.375 -5.5625 C 9.851562 -4.988281 10.09375 -4.265625 10.09375 -3.390625 C 10.09375 -2.671875 9.921875 -2.039062 9.578125 -1.5 C 9.242188 -0.957031 8.734375 -0.53125 8.046875 -0.21875 C 7.359375 0.0820312 6.523438 0.234375 5.546875 0.234375 Z M 5.546875 0.234375 "/></g></g><g transform="translate(120.990181, 382.500036)"><g><path d="M 2.109375 0 L 2.109375 -17.046875 L 3.90625 -17.046875 L 3.90625 -10.421875 L 4.140625 -10.390625 C 5.015625 -11.722656 6.269531 -12.390625 7.90625 -12.390625 C 9.363281 -12.390625 10.421875 -12.015625 11.078125 -11.265625 C 11.742188 -10.523438 12.078125 -9.378906 12.078125 -7.828125 L 12.078125 0 L 10.28125 0 L 10.28125 -7.78125 C 10.28125 -8.519531 10.1875 -9.109375 10 -9.546875 C 9.8125 -9.992188 9.519531 -10.316406 9.125 -10.515625 C 8.726562 -10.722656 8.210938 -10.828125 7.578125 -10.828125 C 6.472656 -10.828125 5.582031 -10.46875 4.90625 -9.75 C 4.238281 -9.039062 3.90625 -7.867188 3.90625 -6.234375 L 3.90625 0 Z M 2.109375 0 "/></g></g><g transform="translate(134.991049, 382.500036)"><g><path d="M 3.015625 -14.515625 C 2.640625 -14.515625 2.332031 -14.628906 2.09375 -14.859375 C 1.851562 -15.097656 1.734375 -15.40625 1.734375 -15.78125 C 1.734375 -16.144531 1.851562 -16.445312 2.09375 -16.6875 C 2.332031 -16.925781 2.640625 -17.046875 3.015625 -17.046875 C 3.398438 -17.046875 3.710938 -16.925781 3.953125 -16.6875 C 4.191406 -16.445312 4.3125 -16.144531 4.3125 -15.78125 C 4.3125 -15.40625 4.191406 -15.097656 3.953125 -14.859375 C 3.710938 -14.628906 3.398438 -14.515625 3.015625 -14.515625 Z M 2.109375 0 L 2.109375 -12.15625 L 3.90625 -12.15625 L 3.90625 0 Z M 2.109375 0 "/></g></g><g transform="translate(141.021343, 382.500036)"><g><path d="M 8.078125 0.234375 C 7.171875 0.234375 6.382812 0.0625 5.71875 -0.28125 C 5.0625 -0.632812 4.535156 -1.097656 4.140625 -1.671875 L 3.90625 -1.625 L 3.90625 0 L 2.109375 0 L 2.109375 -17.046875 L 3.90625 -17.046875 L 3.90625 -10.34375 L 4.140625 -10.296875 C 5.066406 -11.691406 6.414062 -12.390625 8.1875 -12.390625 C 9.175781 -12.390625 10.046875 -12.15625 10.796875 -11.6875 C 11.546875 -11.226562 12.128906 -10.523438 12.546875 -9.578125 C 12.960938 -8.640625 13.171875 -7.472656 13.171875 -6.078125 C 13.171875 -4.691406 12.953125 -3.523438 12.515625 -2.578125 C 12.078125 -1.640625 11.472656 -0.9375 10.703125 -0.46875 C 9.941406 0 9.066406 0.234375 8.078125 0.234375 Z M 7.65625 -1.375 C 10.082031 -1.375 11.296875 -2.941406 11.296875 -6.078125 C 11.296875 -7.703125 10.976562 -8.890625 10.34375 -9.640625 C 9.707031 -10.398438 8.8125 -10.78125 7.65625 -10.78125 C 6.507812 -10.78125 5.597656 -10.390625 4.921875 -9.609375 C 4.242188 -8.835938 3.90625 -7.660156 3.90625 -6.078125 C 3.90625 -4.492188 4.242188 -3.3125 4.921875 -2.53125 C 5.597656 -1.757812 6.507812 -1.375 7.65625 -1.375 Z M 7.65625 -1.375 "/></g></g></g><g fill="#000000" fill-opacity="1"><g transform="translate(81.423954, 496.799983)"><g><path d="M 12.578125 -16.125 L 12.578125 -14.515625 L 7.53125 -14.515625 L 7.53125 0 L 5.640625 0 L 5.640625 -14.515625 L 0.59375 -14.515625 L 0.59375 -16.125 Z M 12.578125 -16.125 "/></g></g></g><g fill="#000000" fill-opacity="1"><g transform="translate(93.616835, 496.799983)"><g><path d="M 6.015625 0.234375 C 4.640625 0.234375 3.613281 -0.128906 2.9375 -0.859375 C 2.257812 -1.585938 1.921875 -2.65625 1.921875 -4.0625 L 1.921875 -12.15625 L 3.71875 -12.15625 L 3.71875 -4.09375 C 3.71875 -2.25 4.585938 -1.328125 6.328125 -1.328125 C 7.429688 -1.328125 8.300781 -1.6875 8.9375 -2.40625 C 9.582031 -3.132812 9.90625 -4.304688 9.90625 -5.921875 L 9.90625 -12.15625 L 11.703125 -12.15625 L 11.703125 0 L 10 0 L 10 -1.90625 L 9.765625 -1.96875 C 9.347656 -1.21875 8.847656 -0.660156 8.265625 -0.296875 C 7.679688 0.0546875 6.929688 0.234375 6.015625 0.234375 Z M 6.015625 0.234375 "/></g></g><g transform="translate(107.430289, 496.799983)"><g><path d="M 5.546875 0.234375 C 4.785156 0.234375 4.078125 0.132812 3.421875 -0.0625 C 2.773438 -0.269531 2.226562 -0.550781 1.78125 -0.90625 C 1.332031 -1.257812 1.015625 -1.65625 0.828125 -2.09375 L 1.890625 -3.203125 L 2.109375 -3.203125 C 2.515625 -2.597656 2.992188 -2.140625 3.546875 -1.828125 C 4.109375 -1.523438 4.773438 -1.375 5.546875 -1.375 C 6.441406 -1.375 7.125 -1.546875 7.59375 -1.890625 C 8.0625 -2.242188 8.296875 -2.734375 8.296875 -3.359375 C 8.296875 -3.835938 8.148438 -4.234375 7.859375 -4.546875 C 7.578125 -4.859375 7.125 -5.09375 6.5 -5.25 L 4.4375 -5.75 C 3.34375 -6.019531 2.546875 -6.441406 2.046875 -7.015625 C 1.546875 -7.585938 1.296875 -8.296875 1.296875 -9.140625 C 1.296875 -9.796875 1.460938 -10.367188 1.796875 -10.859375 C 2.128906 -11.347656 2.613281 -11.722656 3.25 -11.984375 C 3.894531 -12.253906 4.648438 -12.390625 5.515625 -12.390625 C 6.640625 -12.390625 7.519531 -12.234375 8.15625 -11.921875 C 8.800781 -11.609375 9.304688 -11.171875 9.671875 -10.609375 L 8.65625 -9.625 L 8.4375 -9.625 C 8.039062 -10.070312 7.613281 -10.394531 7.15625 -10.59375 C 6.695312 -10.789062 6.148438 -10.890625 5.515625 -10.890625 C 4.722656 -10.890625 4.113281 -10.742188 3.6875 -10.453125 C 3.257812 -10.171875 3.046875 -9.757812 3.046875 -9.21875 C 3.046875 -8.726562 3.195312 -8.332031 3.5 -8.03125 C 3.800781 -7.726562 4.328125 -7.484375 5.078125 -7.296875 L 7.09375 -6.8125 C 8.144531 -6.5625 8.90625 -6.144531 9.375 -5.5625 C 9.851562 -4.988281 10.09375 -4.265625 10.09375 -3.390625 C 10.09375 -2.671875 9.921875 -2.039062 9.578125 -1.5 C 9.242188 -0.957031 8.734375 -0.53125 8.046875 -0.21875 C 7.359375 0.0820312 6.523438 0.234375 5.546875 0.234375 Z M 5.546875 0.234375 "/></g></g><g transform="translate(118.67508, 496.799983)"><g><path d="M 2.109375 0 L 2.109375 -17.046875 L 3.90625 -17.046875 L 3.90625 -10.421875 L 4.140625 -10.390625 C 5.015625 -11.722656 6.269531 -12.390625 7.90625 -12.390625 C 9.363281 -12.390625 10.421875 -12.015625 11.078125 -11.265625 C 11.742188 -10.523438 12.078125 -9.378906 12.078125 -7.828125 L 12.078125 0 L 10.28125 0 L 10.28125 -7.78125 C 10.28125 -8.519531 10.1875 -9.109375 10 -9.546875 C 9.8125 -9.992188 9.519531 -10.316406 9.125 -10.515625 C 8.726562 -10.722656 8.210938 -10.828125 7.578125 -10.828125 C 6.472656 -10.828125 5.582031 -10.46875 4.90625 -9.75 C 4.238281 -9.039062 3.90625 -7.867188 3.90625 -6.234375 L 3.90625 0 Z M 2.109375 0 "/></g></g><g transform="translate(132.675947, 496.799983)"><g><path d="M 5.015625 0.234375 C 3.816406 0.234375 2.878906 -0.078125 2.203125 -0.703125 C 1.535156 -1.328125 1.203125 -2.222656 1.203125 -3.390625 C 1.203125 -4.109375 1.347656 -4.710938 1.640625 -5.203125 C 1.941406 -5.703125 2.40625 -6.109375 3.03125 -6.421875 C 3.65625 -6.734375 4.472656 -6.972656 5.484375 -7.140625 C 6.359375 -7.285156 7.023438 -7.453125 7.484375 -7.640625 C 7.953125 -7.828125 8.265625 -8.03125 8.421875 -8.25 C 8.578125 -8.476562 8.65625 -8.769531 8.65625 -9.125 C 8.65625 -9.664062 8.460938 -10.082031 8.078125 -10.375 C 7.703125 -10.675781 7.097656 -10.828125 6.265625 -10.828125 C 5.472656 -10.828125 4.796875 -10.671875 4.234375 -10.359375 C 3.671875 -10.054688 3.15625 -9.601562 2.6875 -9 L 2.46875 -9 L 1.59375 -10.25 C 2.101562 -10.90625 2.753906 -11.425781 3.546875 -11.8125 C 4.335938 -12.195312 5.242188 -12.390625 6.265625 -12.390625 C 7.691406 -12.390625 8.742188 -12.070312 9.421875 -11.4375 C 10.109375 -10.8125 10.453125 -9.945312 10.453125 -8.84375 L 10.453125 -2.390625 C 10.453125 -1.710938 10.738281 -1.375 11.3125 -1.375 C 11.5 -1.375 11.679688 -1.410156 11.859375 -1.484375 L 12.015625 -1.4375 L 12.21875 -0.1875 C 12.09375 -0.101562 11.921875 -0.0351562 11.703125 0.015625 C 11.484375 0.0664062 11.257812 0.09375 11.03125 0.09375 C 10.363281 0.09375 9.859375 -0.0507812 9.515625 -0.34375 C 9.171875 -0.644531 8.953125 -1.082031 8.859375 -1.65625 L 8.625 -1.671875 C 8.28125 -1.035156 7.8125 -0.554688 7.21875 -0.234375 C 6.632812 0.078125 5.898438 0.234375 5.015625 0.234375 Z M 5.40625 -1.203125 C 6.082031 -1.203125 6.671875 -1.359375 7.171875 -1.671875 C 7.671875 -1.984375 8.050781 -2.421875 8.3125 -2.984375 C 8.570312 -3.554688 8.703125 -4.210938 8.703125 -4.953125 L 8.703125 -6.5 L 8.5 -6.53125 C 8.226562 -6.34375 7.894531 -6.179688 7.5 -6.046875 C 7.113281 -5.921875 6.570312 -5.804688 5.875 -5.703125 C 5.164062 -5.609375 4.601562 -5.460938 4.1875 -5.265625 C 3.78125 -5.066406 3.488281 -4.816406 3.3125 -4.515625 C 3.132812 -4.210938 3.046875 -3.835938 3.046875 -3.390625 C 3.046875 -2.671875 3.253906 -2.125 3.671875 -1.75 C 4.085938 -1.382812 4.664062 -1.203125 5.40625 -1.203125 Z M 5.40625 -1.203125 "/></g></g><g transform="translate(145.25468, 496.799983)"><g><path d="M 2.109375 0 L 2.109375 -12.15625 L 3.828125 -12.15625 L 3.828125 -10.25 L 4.0625 -10.203125 C 4.625 -11.578125 5.6875 -12.265625 7.25 -12.265625 C 8.082031 -12.265625 8.707031 -12.113281 9.125 -11.8125 L 8.65625 -10.296875 L 8.4375 -10.25 C 7.976562 -10.476562 7.476562 -10.59375 6.9375 -10.59375 C 5.96875 -10.59375 5.21875 -10.226562 4.6875 -9.5 C 4.164062 -8.769531 3.90625 -7.59375 3.90625 -5.96875 L 3.90625 0 Z M 2.109375 0 "/></g></g></g><g fill="#000000" fill-opacity="1"><g transform="translate(75.250333, 611.099977)"><g><path d="M 2.4375 0 L 2.4375 -16.125 L 8.296875 -16.125 C 9.367188 -16.125 10.269531 -15.941406 11 -15.578125 C 11.738281 -15.222656 12.289062 -14.71875 12.65625 -14.0625 C 13.03125 -13.414062 13.21875 -12.648438 13.21875 -11.765625 C 13.21875 -10.765625 12.96875 -9.9375 12.46875 -9.28125 C 11.96875 -8.632812 11.1875 -8.148438 10.125 -7.828125 L 10.125 -7.59375 C 10.65625 -7.382812 11.082031 -7.0625 11.40625 -6.625 C 11.738281 -6.1875 12.046875 -5.53125 12.328125 -4.65625 L 13.8125 0 L 11.859375 0 L 10.25 -4.921875 C 10.0625 -5.503906 9.84375 -5.960938 9.59375 -6.296875 C 9.34375 -6.628906 9.023438 -6.867188 8.640625 -7.015625 C 8.253906 -7.160156 7.769531 -7.234375 7.1875 -7.234375 L 4.328125 -7.234375 L 4.328125 0 Z M 8.25 -8.84375 C 9.25 -8.84375 9.992188 -9.070312 10.484375 -9.53125 C 10.984375 -10 11.234375 -10.710938 11.234375 -11.671875 C 11.234375 -12.628906 10.984375 -13.34375 10.484375 -13.8125 C 9.992188 -14.28125 9.25 -14.515625 8.25 -14.515625 L 4.328125 -14.515625 L 4.328125 -8.84375 Z M 8.25 -8.84375 "/></g></g><g transform="translate(90.177242, 611.099977)"><g><path d="M 3.015625 -14.515625 C 2.640625 -14.515625 2.332031 -14.628906 2.09375 -14.859375 C 1.851562 -15.097656 1.734375 -15.40625 1.734375 -15.78125 C 1.734375 -16.144531 1.851562 -16.445312 2.09375 -16.6875 C 2.332031 -16.925781 2.640625 -17.046875 3.015625 -17.046875 C 3.398438 -17.046875 3.710938 -16.925781 3.953125 -16.6875 C 4.191406 -16.445312 4.3125 -16.144531 4.3125 -15.78125 C 4.3125 -15.40625 4.191406 -15.097656 3.953125 -14.859375 C 3.710938 -14.628906 3.398438 -14.515625 3.015625 -14.515625 Z M 2.109375 0 L 2.109375 -12.15625 L 3.90625 -12.15625 L 3.90625 0 Z M 2.109375 0 "/></g></g><g transform="translate(96.207537, 611.099977)"><g><path d="M 8.21875 -1.921875 L 8.796875 -0.640625 C 8.515625 -0.347656 8.140625 -0.128906 7.671875 0.015625 C 7.203125 0.160156 6.695312 0.234375 6.15625 0.234375 C 3.832031 0.234375 2.671875 -0.941406 2.671875 -3.296875 L 2.671875 -10.6875 L 0.546875 -10.6875 L 0.546875 -12.171875 L 2.671875 -12.171875 L 2.671875 -14.734375 L 4.46875 -15.03125 L 4.46875 -12.171875 L 8.375 -12.171875 L 8.375 -10.6875 L 4.46875 -10.6875 L 4.46875 -3.46875 C 4.46875 -2.070312 5.070312 -1.375 6.28125 -1.375 C 6.945312 -1.375 7.519531 -1.554688 8 -1.921875 Z M 8.21875 -1.921875 "/></g></g><g transform="translate(105.467953, 611.099977)"><g><path d="M 2.109375 0 L 2.109375 -17.046875 L 3.90625 -17.046875 L 3.90625 -10.421875 L 4.140625 -10.390625 C 5.015625 -11.722656 6.269531 -12.390625 7.90625 -12.390625 C 9.363281 -12.390625 10.421875 -12.015625 11.078125 -11.265625 C 11.742188 -10.523438 12.078125 -9.378906 12.078125 -7.828125 L 12.078125 0 L 10.28125 0 L 10.28125 -7.78125 C 10.28125 -8.519531 10.1875 -9.109375 10 -9.546875 C 9.8125 -9.992188 9.519531 -10.316406 9.125 -10.515625 C 8.726562 -10.722656 8.210938 -10.828125 7.578125 -10.828125 C 6.472656 -10.828125 5.582031 -10.46875 4.90625 -9.75 C 4.238281 -9.039062 3.90625 -7.867188 3.90625 -6.234375 L 3.90625 0 Z M 2.109375 0 "/></g></g></g><g fill="#000000" fill-opacity="1"><g transform="translate(119.380626, 611.099977)"><g><path d="M 6.03125 0 L 3.765625 0 L 0.78125 -12.15625 L 2.5625 -12.15625 L 4.859375 -2.09375 L 5.09375 -2.09375 L 7.921875 -12.15625 L 9.8125 -12.15625 L 12.734375 -2.09375 L 12.96875 -2.09375 L 15.21875 -12.15625 L 16.9375 -12.15625 L 14 0 L 11.71875 0 L 8.9375 -9.4375 L 8.703125 -9.4375 Z M 6.03125 0 "/></g></g><g transform="translate(137.107708, 611.099977)"><g><path d="M 3.015625 -14.515625 C 2.640625 -14.515625 2.332031 -14.628906 2.09375 -14.859375 C 1.851562 -15.097656 1.734375 -15.40625 1.734375 -15.78125 C 1.734375 -16.144531 1.851562 -16.445312 2.09375 -16.6875 C 2.332031 -16.925781 2.640625 -17.046875 3.015625 -17.046875 C 3.398438 -17.046875 3.710938 -16.925781 3.953125 -16.6875 C 4.191406 -16.445312 4.3125 -16.144531 4.3125 -15.78125 C 4.3125 -15.40625 4.191406 -15.097656 3.953125 -14.859375 C 3.710938 -14.628906 3.398438 -14.515625 3.015625 -14.515625 Z M 2.109375 0 L 2.109375 -12.15625 L 3.90625 -12.15625 L 3.90625 0 Z M 2.109375 0 "/></g></g><g transform="translate(143.138003, 611.099977)"><g><path d="M 2.109375 0 L 2.109375 -17.046875 L 3.90625 -17.046875 L 3.90625 -7.09375 L 4.21875 -7.09375 L 8.734375 -12.15625 L 10.609375 -12.15625 L 10.609375 -11.90625 L 5.796875 -6.453125 L 11.078125 -0.28125 L 11.078125 0 L 9.078125 0 L 4.21875 -5.625 L 3.90625 -5.625 L 3.90625 0 Z M 2.109375 0 "/></g></g></g><g fill="#000000" fill-opacity="1"><g transform="translate(758.873019, 41.3639)"><g><path d="M 1.140625 0 L 1.140625 -1.5625 L 5.546875 -1.5625 L 5.546875 -13.890625 L 5.296875 -13.953125 C 4.578125 -13.597656 3.945312 -13.328125 3.40625 -13.140625 C 2.875 -12.953125 2.191406 -12.769531 1.359375 -12.59375 L 1.359375 -14.34375 C 2.191406 -14.519531 3.007812 -14.757812 3.8125 -15.0625 C 4.625 -15.363281 5.363281 -15.71875 6.03125 -16.125 L 7.390625 -16.125 L 7.390625 -1.5625 L 11.328125 -1.5625 L 11.328125 0 Z M 1.140625 0 "/></g></g></g><g fill="#000000" fill-opacity="1"><g transform="translate(770.470588, 41.3639)"><g><path d="M 7.921875 0.234375 C 6.742188 0.234375 5.679688 -0.0507812 4.734375 -0.625 C 3.796875 -1.195312 3.046875 -2.097656 2.484375 -3.328125 C 1.929688 -4.566406 1.65625 -6.144531 1.65625 -8.0625 C 1.65625 -9.96875 1.929688 -11.539062 2.484375 -12.78125 C 3.046875 -14.019531 3.796875 -14.921875 4.734375 -15.484375 C 5.679688 -16.054688 6.742188 -16.34375 7.921875 -16.34375 C 9.109375 -16.34375 10.171875 -16.054688 11.109375 -15.484375 C 12.054688 -14.921875 12.804688 -14.019531 13.359375 -12.78125 C 13.910156 -11.539062 14.1875 -9.96875 14.1875 -8.0625 C 14.1875 -6.144531 13.910156 -4.566406 13.359375 -3.328125 C 12.804688 -2.097656 12.054688 -1.195312 11.109375 -0.625 C 10.171875 -0.0507812 9.109375 0.234375 7.921875 0.234375 Z M 7.921875 -1.515625 C 9.328125 -1.515625 10.390625 -2.019531 11.109375 -3.03125 C 11.835938 -4.039062 12.203125 -5.71875 12.203125 -8.0625 C 12.203125 -10.394531 11.835938 -12.066406 11.109375 -13.078125 C 10.390625 -14.085938 9.328125 -14.59375 7.921875 -14.59375 C 6.992188 -14.59375 6.210938 -14.378906 5.578125 -13.953125 C 4.953125 -13.523438 4.472656 -12.828125 4.140625 -11.859375 C 3.804688 -10.898438 3.640625 -9.632812 3.640625 -8.0625 C 3.640625 -6.476562 3.804688 -5.203125 4.140625 -4.234375 C 4.472656 -3.273438 4.953125 -2.582031 5.578125 -2.15625 C 6.210938 -1.726562 6.992188 -1.515625 7.921875 -1.515625 Z M 7.921875 -1.515625 "/></g></g><g transform="translate(786.323538, 41.3639)"><g><path d="M 7.921875 0.234375 C 6.742188 0.234375 5.679688 -0.0507812 4.734375 -0.625 C 3.796875 -1.195312 3.046875 -2.097656 2.484375 -3.328125 C 1.929688 -4.566406 1.65625 -6.144531 1.65625 -8.0625 C 1.65625 -9.96875 1.929688 -11.539062 2.484375 -12.78125 C 3.046875 -14.019531 3.796875 -14.921875 4.734375 -15.484375 C 5.679688 -16.054688 6.742188 -16.34375 7.921875 -16.34375 C 9.109375 -16.34375 10.171875 -16.054688 11.109375 -15.484375 C 12.054688 -14.921875 12.804688 -14.019531 13.359375 -12.78125 C 13.910156 -11.539062 14.1875 -9.96875 14.1875 -8.0625 C 14.1875 -6.144531 13.910156 -4.566406 13.359375 -3.328125 C 12.804688 -2.097656 12.054688 -1.195312 11.109375 -0.625 C 10.171875 -0.0507812 9.109375 0.234375 7.921875 0.234375 Z M 7.921875 -1.515625 C 9.328125 -1.515625 10.390625 -2.019531 11.109375 -3.03125 C 11.835938 -4.039062 12.203125 -5.71875 12.203125 -8.0625 C 12.203125 -10.394531 11.835938 -12.066406 11.109375 -13.078125 C 10.390625 -14.085938 9.328125 -14.59375 7.921875 -14.59375 C 6.992188 -14.59375 6.210938 -14.378906 5.578125 -13.953125 C 4.953125 -13.523438 4.472656 -12.828125 4.140625 -11.859375 C 3.804688 -10.898438 3.640625 -9.632812 3.640625 -8.0625 C 3.640625 -6.476562 3.804688 -5.203125 4.140625 -4.234375 C 4.472656 -3.273438 4.953125 -2.582031 5.578125 -2.15625 C 6.210938 -1.726562 6.992188 -1.515625 7.921875 -1.515625 Z M 7.921875 -1.515625 "/></g></g><g transform="translate(802.176489, 41.3639)"><g><path d="M 4.59375 -7.359375 C 3.863281 -7.359375 3.222656 -7.519531 2.671875 -7.84375 C 2.128906 -8.164062 1.703125 -8.660156 1.390625 -9.328125 C 1.078125 -10.003906 0.921875 -10.847656 0.921875 -11.859375 C 0.921875 -13.359375 1.25 -14.476562 1.90625 -15.21875 C 2.570312 -15.96875 3.46875 -16.34375 4.59375 -16.34375 C 5.3125 -16.34375 5.941406 -16.179688 6.484375 -15.859375 C 7.023438 -15.546875 7.445312 -15.054688 7.75 -14.390625 C 8.0625 -13.722656 8.21875 -12.878906 8.21875 -11.859375 C 8.21875 -10.847656 8.0625 -10.003906 7.75 -9.328125 C 7.445312 -8.660156 7.023438 -8.164062 6.484375 -7.84375 C 5.941406 -7.519531 5.3125 -7.359375 4.59375 -7.359375 Z M 4.953125 0 L 3.34375 0 L 3.296875 -0.234375 L 14.0625 -16.125 L 15.6875 -16.125 L 15.734375 -15.890625 Z M 4.59375 -8.75 C 5.28125 -8.75 5.785156 -8.984375 6.109375 -9.453125 C 6.441406 -9.929688 6.609375 -10.734375 6.609375 -11.859375 C 6.609375 -12.984375 6.441406 -13.78125 6.109375 -14.25 C 5.785156 -14.726562 5.28125 -14.96875 4.59375 -14.96875 C 4.113281 -14.96875 3.722656 -14.867188 3.421875 -14.671875 C 3.128906 -14.472656 2.90625 -14.144531 2.75 -13.6875 C 2.601562 -13.238281 2.53125 -12.628906 2.53125 -11.859375 C 2.53125 -11.097656 2.601562 -10.488281 2.75 -10.03125 C 2.90625 -9.570312 3.128906 -9.242188 3.421875 -9.046875 C 3.722656 -8.847656 4.113281 -8.75 4.59375 -8.75 Z M 14.484375 0.234375 C 13.367188 0.234375 12.476562 -0.132812 11.8125 -0.875 C 11.15625 -1.625 10.828125 -2.75 10.828125 -4.25 C 10.828125 -5.757812 11.15625 -6.882812 11.8125 -7.625 C 12.476562 -8.375 13.367188 -8.75 14.484375 -8.75 C 15.203125 -8.75 15.832031 -8.585938 16.375 -8.265625 C 16.925781 -7.953125 17.351562 -7.457031 17.65625 -6.78125 C 17.96875 -6.113281 18.125 -5.269531 18.125 -4.25 C 18.125 -3.238281 17.96875 -2.398438 17.65625 -1.734375 C 17.351562 -1.066406 16.925781 -0.570312 16.375 -0.25 C 15.832031 0.0703125 15.203125 0.234375 14.484375 0.234375 Z M 14.484375 -1.140625 C 15.171875 -1.140625 15.679688 -1.375 16.015625 -1.84375 C 16.347656 -2.320312 16.515625 -3.125 16.515625 -4.25 C 16.515625 -5.375 16.347656 -6.171875 16.015625 -6.640625 C 15.679688 -7.117188 15.171875 -7.359375 14.484375 -7.359375 C 13.785156 -7.359375 13.269531 -7.125 12.9375 -6.65625 C 12.601562 -6.1875 12.4375 -5.382812 12.4375 -4.25 C 12.4375 -3.125 12.601562 -2.320312 12.9375 -1.84375 C 13.269531 -1.375 13.785156 -1.140625 14.484375 -1.140625 Z M 14.484375 -1.140625 "/></g></g></g><g fill="#000000" fill-opacity="1"><g transform="translate(758.867419, 155.663894)"><g><path d="M 6.8125 0.234375 C 5.632812 0.234375 4.628906 0.046875 3.796875 -0.328125 C 2.960938 -0.710938 2.328125 -1.253906 1.890625 -1.953125 C 1.460938 -2.660156 1.25 -3.488281 1.25 -4.4375 C 1.25 -5.457031 1.5 -6.3125 2 -7 C 2.507812 -7.6875 3.257812 -8.222656 4.25 -8.609375 L 4.25 -8.84375 C 3.550781 -9.257812 3.015625 -9.742188 2.640625 -10.296875 C 2.265625 -10.859375 2.078125 -11.515625 2.078125 -12.265625 C 2.078125 -13.085938 2.269531 -13.804688 2.65625 -14.421875 C 3.039062 -15.035156 3.59375 -15.507812 4.3125 -15.84375 C 5.03125 -16.175781 5.863281 -16.34375 6.8125 -16.34375 C 7.757812 -16.34375 8.59375 -16.175781 9.3125 -15.84375 C 10.03125 -15.507812 10.582031 -15.035156 10.96875 -14.421875 C 11.363281 -13.804688 11.5625 -13.085938 11.5625 -12.265625 C 11.5625 -11.515625 11.367188 -10.859375 10.984375 -10.296875 C 10.609375 -9.742188 10.070312 -9.257812 9.375 -8.84375 L 9.375 -8.609375 C 10.375 -8.222656 11.125 -7.6875 11.625 -7 C 12.132812 -6.3125 12.390625 -5.457031 12.390625 -4.4375 C 12.390625 -3.476562 12.171875 -2.648438 11.734375 -1.953125 C 11.304688 -1.253906 10.671875 -0.710938 9.828125 -0.328125 C 8.992188 0.046875 7.988281 0.234375 6.8125 0.234375 Z M 6.8125 -9.34375 C 7.382812 -9.34375 7.890625 -9.453125 8.328125 -9.671875 C 8.765625 -9.890625 9.101562 -10.203125 9.34375 -10.609375 C 9.59375 -11.015625 9.71875 -11.492188 9.71875 -12.046875 C 9.71875 -12.609375 9.59375 -13.09375 9.34375 -13.5 C 9.101562 -13.914062 8.757812 -14.234375 8.3125 -14.453125 C 7.875 -14.671875 7.375 -14.78125 6.8125 -14.78125 C 5.925781 -14.78125 5.21875 -14.535156 4.6875 -14.046875 C 4.164062 -13.554688 3.90625 -12.890625 3.90625 -12.046875 C 3.90625 -11.210938 4.164062 -10.550781 4.6875 -10.0625 C 5.21875 -9.582031 5.925781 -9.34375 6.8125 -9.34375 Z M 6.8125 -1.4375 C 7.976562 -1.4375 8.867188 -1.710938 9.484375 -2.265625 C 10.097656 -2.816406 10.40625 -3.582031 10.40625 -4.5625 C 10.40625 -5.539062 10.097656 -6.304688 9.484375 -6.859375 C 8.867188 -7.410156 7.976562 -7.6875 6.8125 -7.6875 C 5.65625 -7.6875 4.765625 -7.410156 4.140625 -6.859375 C 3.523438 -6.304688 3.21875 -5.539062 3.21875 -4.5625 C 3.21875 -3.582031 3.523438 -2.816406 4.140625 -2.265625 C 4.765625 -1.710938 5.65625 -1.4375 6.8125 -1.4375 Z M 6.8125 -1.4375 "/></g></g><g transform="translate(772.504484, 155.663894)"><g><path d="M 6.640625 0.234375 C 5.128906 0.234375 3.921875 -0.0976562 3.015625 -0.765625 C 2.117188 -1.441406 1.535156 -2.390625 1.265625 -3.609375 L 2.671875 -4.25 L 2.921875 -4.21875 C 3.109375 -3.59375 3.347656 -3.078125 3.640625 -2.671875 C 3.941406 -2.273438 4.332031 -1.976562 4.8125 -1.78125 C 5.300781 -1.582031 5.910156 -1.484375 6.640625 -1.484375 C 7.722656 -1.484375 8.566406 -1.804688 9.171875 -2.453125 C 9.785156 -3.097656 10.09375 -4.046875 10.09375 -5.296875 C 10.09375 -6.554688 9.789062 -7.515625 9.1875 -8.171875 C 8.59375 -8.828125 7.769531 -9.15625 6.71875 -9.15625 C 5.914062 -9.15625 5.265625 -8.992188 4.765625 -8.671875 C 4.273438 -8.347656 3.835938 -7.851562 3.453125 -7.1875 L 1.921875 -7.3125 L 2.234375 -16.125 L 11.265625 -16.125 L 11.265625 -14.515625 L 3.890625 -14.515625 L 3.703125 -9.15625 L 3.9375 -9.125 C 4.320312 -9.675781 4.785156 -10.085938 5.328125 -10.359375 C 5.878906 -10.640625 6.535156 -10.78125 7.296875 -10.78125 C 8.265625 -10.78125 9.101562 -10.5625 9.8125 -10.125 C 10.53125 -9.695312 11.085938 -9.070312 11.484375 -8.25 C 11.878906 -7.425781 12.078125 -6.441406 12.078125 -5.296875 C 12.078125 -4.148438 11.847656 -3.160156 11.390625 -2.328125 C 10.941406 -1.492188 10.304688 -0.859375 9.484375 -0.421875 C 8.660156 0.015625 7.710938 0.234375 6.640625 0.234375 Z M 6.640625 0.234375 "/></g></g></g><g fill="#000000" fill-opacity="1"><g transform="translate(785.424969, 155.663894)"><g><path d="M 4.59375 -7.359375 C 3.863281 -7.359375 3.222656 -7.519531 2.671875 -7.84375 C 2.128906 -8.164062 1.703125 -8.660156 1.390625 -9.328125 C 1.078125 -10.003906 0.921875 -10.847656 0.921875 -11.859375 C 0.921875 -13.359375 1.25 -14.476562 1.90625 -15.21875 C 2.570312 -15.96875 3.46875 -16.34375 4.59375 -16.34375 C 5.3125 -16.34375 5.941406 -16.179688 6.484375 -15.859375 C 7.023438 -15.546875 7.445312 -15.054688 7.75 -14.390625 C 8.0625 -13.722656 8.21875 -12.878906 8.21875 -11.859375 C 8.21875 -10.847656 8.0625 -10.003906 7.75 -9.328125 C 7.445312 -8.660156 7.023438 -8.164062 6.484375 -7.84375 C 5.941406 -7.519531 5.3125 -7.359375 4.59375 -7.359375 Z M 4.953125 0 L 3.34375 0 L 3.296875 -0.234375 L 14.0625 -16.125 L 15.6875 -16.125 L 15.734375 -15.890625 Z M 4.59375 -8.75 C 5.28125 -8.75 5.785156 -8.984375 6.109375 -9.453125 C 6.441406 -9.929688 6.609375 -10.734375 6.609375 -11.859375 C 6.609375 -12.984375 6.441406 -13.78125 6.109375 -14.25 C 5.785156 -14.726562 5.28125 -14.96875 4.59375 -14.96875 C 4.113281 -14.96875 3.722656 -14.867188 3.421875 -14.671875 C 3.128906 -14.472656 2.90625 -14.144531 2.75 -13.6875 C 2.601562 -13.238281 2.53125 -12.628906 2.53125 -11.859375 C 2.53125 -11.097656 2.601562 -10.488281 2.75 -10.03125 C 2.90625 -9.570312 3.128906 -9.242188 3.421875 -9.046875 C 3.722656 -8.847656 4.113281 -8.75 4.59375 -8.75 Z M 14.484375 0.234375 C 13.367188 0.234375 12.476562 -0.132812 11.8125 -0.875 C 11.15625 -1.625 10.828125 -2.75 10.828125 -4.25 C 10.828125 -5.757812 11.15625 -6.882812 11.8125 -7.625 C 12.476562 -8.375 13.367188 -8.75 14.484375 -8.75 C 15.203125 -8.75 15.832031 -8.585938 16.375 -8.265625 C 16.925781 -7.953125 17.351562 -7.457031 17.65625 -6.78125 C 17.96875 -6.113281 18.125 -5.269531 18.125 -4.25 C 18.125 -3.238281 17.96875 -2.398438 17.65625 -1.734375 C 17.351562 -1.066406 16.925781 -0.570312 16.375 -0.25 C 15.832031 0.0703125 15.203125 0.234375 14.484375 0.234375 Z M 14.484375 -1.140625 C 15.171875 -1.140625 15.679688 -1.375 16.015625 -1.84375 C 16.347656 -2.320312 16.515625 -3.125 16.515625 -4.25 C 16.515625 -5.375 16.347656 -6.171875 16.015625 -6.640625 C 15.679688 -7.117188 15.171875 -7.359375 14.484375 -7.359375 C 13.785156 -7.359375 13.269531 -7.125 12.9375 -6.65625 C 12.601562 -6.1875 12.4375 -5.382812 12.4375 -4.25 C 12.4375 -3.125 12.601562 -2.320312 12.9375 -1.84375 C 13.269531 -1.375 13.785156 -1.140625 14.484375 -1.140625 Z M 14.484375 -1.140625 "/></g></g></g><g fill="#000000" fill-opacity="1"><g transform="translate(758.872919, 269.963888)"><g><path d="M 10.09375 0 L 8.296875 0 L 8.296875 -3.84375 L 0.734375 -3.84375 L 0.734375 -5.375 L 7.84375 -16.125 L 10.09375 -16.125 L 10.09375 -5.375 L 12.875 -5.375 L 12.875 -3.84375 L 10.09375 -3.84375 Z M 2.96875 -5.59375 L 3.0625 -5.375 L 8.296875 -5.375 L 8.296875 -13.5 L 8.03125 -13.53125 Z M 2.96875 -5.59375 "/></g></g></g><g fill="#000000" fill-opacity="1"><g transform="translate(771.561894, 269.963888)"><g><path d="M 4.375 0 L 2.53125 0 L 8.515625 -14.28125 L 8.453125 -14.515625 L 0.59375 -14.515625 L 0.59375 -16.125 L 10.421875 -16.125 L 10.421875 -14.375 Z M 4.375 0 "/></g></g></g><g fill="#000000" fill-opacity="1"><g transform="translate(783.390973, 269.963888)"><g><path d="M 4.59375 -7.359375 C 3.863281 -7.359375 3.222656 -7.519531 2.671875 -7.84375 C 2.128906 -8.164062 1.703125 -8.660156 1.390625 -9.328125 C 1.078125 -10.003906 0.921875 -10.847656 0.921875 -11.859375 C 0.921875 -13.359375 1.25 -14.476562 1.90625 -15.21875 C 2.570312 -15.96875 3.46875 -16.34375 4.59375 -16.34375 C 5.3125 -16.34375 5.941406 -16.179688 6.484375 -15.859375 C 7.023438 -15.546875 7.445312 -15.054688 7.75 -14.390625 C 8.0625 -13.722656 8.21875 -12.878906 8.21875 -11.859375 C 8.21875 -10.847656 8.0625 -10.003906 7.75 -9.328125 C 7.445312 -8.660156 7.023438 -8.164062 6.484375 -7.84375 C 5.941406 -7.519531 5.3125 -7.359375 4.59375 -7.359375 Z M 4.953125 0 L 3.34375 0 L 3.296875 -0.234375 L 14.0625 -16.125 L 15.6875 -16.125 L 15.734375 -15.890625 Z M 4.59375 -8.75 C 5.28125 -8.75 5.785156 -8.984375 6.109375 -9.453125 C 6.441406 -9.929688 6.609375 -10.734375 6.609375 -11.859375 C 6.609375 -12.984375 6.441406 -13.78125 6.109375 -14.25 C 5.785156 -14.726562 5.28125 -14.96875 4.59375 -14.96875 C 4.113281 -14.96875 3.722656 -14.867188 3.421875 -14.671875 C 3.128906 -14.472656 2.90625 -14.144531 2.75 -13.6875 C 2.601562 -13.238281 2.53125 -12.628906 2.53125 -11.859375 C 2.53125 -11.097656 2.601562 -10.488281 2.75 -10.03125 C 2.90625 -9.570312 3.128906 -9.242188 3.421875 -9.046875 C 3.722656 -8.847656 4.113281 -8.75 4.59375 -8.75 Z M 14.484375 0.234375 C 13.367188 0.234375 12.476562 -0.132812 11.8125 -0.875 C 11.15625 -1.625 10.828125 -2.75 10.828125 -4.25 C 10.828125 -5.757812 11.15625 -6.882812 11.8125 -7.625 C 12.476562 -8.375 13.367188 -8.75 14.484375 -8.75 C 15.203125 -8.75 15.832031 -8.585938 16.375 -8.265625 C 16.925781 -7.953125 17.351562 -7.457031 17.65625 -6.78125 C 17.96875 -6.113281 18.125 -5.269531 18.125 -4.25 C 18.125 -3.238281 17.96875 -2.398438 17.65625 -1.734375 C 17.351562 -1.066406 16.925781 -0.570312 16.375 -0.25 C 15.832031 0.0703125 15.203125 0.234375 14.484375 0.234375 Z M 14.484375 -1.140625 C 15.171875 -1.140625 15.679688 -1.375 16.015625 -1.84375 C 16.347656 -2.320312 16.515625 -3.125 16.515625 -4.25 C 16.515625 -5.375 16.347656 -6.171875 16.015625 -6.640625 C 15.679688 -7.117188 15.171875 -7.359375 14.484375 -7.359375 C 13.785156 -7.359375 13.269531 -7.125 12.9375 -6.65625 C 12.601562 -6.1875 12.4375 -5.382812 12.4375 -4.25 C 12.4375 -3.125 12.601562 -2.320312 12.9375 -1.84375 C 13.269531 -1.375 13.785156 -1.140625 14.484375 -1.140625 Z M 14.484375 -1.140625 "/></g></g></g><g fill="#000000" fill-opacity="1"><g transform="translate(758.872956, 384.263883)"><g><path d="M 0.96875 -0.734375 C 0.96875 -1.628906 1.0625 -2.347656 1.25 -2.890625 C 1.445312 -3.429688 1.78125 -3.9375 2.25 -4.40625 C 2.726562 -4.875 3.484375 -5.484375 4.515625 -6.234375 L 6.28125 -7.53125 C 6.9375 -8.007812 7.46875 -8.445312 7.875 -8.84375 C 8.289062 -9.25 8.617188 -9.6875 8.859375 -10.15625 C 9.097656 -10.632812 9.21875 -11.171875 9.21875 -11.765625 C 9.21875 -12.722656 8.960938 -13.441406 8.453125 -13.921875 C 7.941406 -14.410156 7.148438 -14.65625 6.078125 -14.65625 C 5.222656 -14.65625 4.460938 -14.453125 3.796875 -14.046875 C 3.140625 -13.648438 2.613281 -13.09375 2.21875 -12.375 L 1.96875 -12.328125 L 0.828125 -13.515625 C 1.367188 -14.398438 2.082031 -15.09375 2.96875 -15.59375 C 3.851562 -16.09375 4.890625 -16.34375 6.078125 -16.34375 C 7.222656 -16.34375 8.171875 -16.148438 8.921875 -15.765625 C 9.679688 -15.378906 10.238281 -14.84375 10.59375 -14.15625 C 10.957031 -13.46875 11.140625 -12.671875 11.140625 -11.765625 C 11.140625 -11.046875 10.988281 -10.375 10.6875 -9.75 C 10.382812 -9.125 9.957031 -8.535156 9.40625 -7.984375 C 8.863281 -7.429688 8.175781 -6.847656 7.34375 -6.234375 L 5.546875 -4.921875 C 4.878906 -4.429688 4.363281 -4.015625 4 -3.671875 C 3.644531 -3.328125 3.382812 -2.988281 3.21875 -2.65625 C 3.050781 -2.332031 2.96875 -1.96875 2.96875 -1.5625 L 11.140625 -1.5625 L 11.140625 0 L 0.96875 0 Z M 0.96875 -0.734375 "/></g></g><g transform="translate(771.264275, 384.263883)"><g><path d="M 6.640625 0.234375 C 5.128906 0.234375 3.921875 -0.0976562 3.015625 -0.765625 C 2.117188 -1.441406 1.535156 -2.390625 1.265625 -3.609375 L 2.671875 -4.25 L 2.921875 -4.21875 C 3.109375 -3.59375 3.347656 -3.078125 3.640625 -2.671875 C 3.941406 -2.273438 4.332031 -1.976562 4.8125 -1.78125 C 5.300781 -1.582031 5.910156 -1.484375 6.640625 -1.484375 C 7.722656 -1.484375 8.566406 -1.804688 9.171875 -2.453125 C 9.785156 -3.097656 10.09375 -4.046875 10.09375 -5.296875 C 10.09375 -6.554688 9.789062 -7.515625 9.1875 -8.171875 C 8.59375 -8.828125 7.769531 -9.15625 6.71875 -9.15625 C 5.914062 -9.15625 5.265625 -8.992188 4.765625 -8.671875 C 4.273438 -8.347656 3.835938 -7.851562 3.453125 -7.1875 L 1.921875 -7.3125 L 2.234375 -16.125 L 11.265625 -16.125 L 11.265625 -14.515625 L 3.890625 -14.515625 L 3.703125 -9.15625 L 3.9375 -9.125 C 4.320312 -9.675781 4.785156 -10.085938 5.328125 -10.359375 C 5.878906 -10.640625 6.535156 -10.78125 7.296875 -10.78125 C 8.265625 -10.78125 9.101562 -10.5625 9.8125 -10.125 C 10.53125 -9.695312 11.085938 -9.070312 11.484375 -8.25 C 11.878906 -7.425781 12.078125 -6.441406 12.078125 -5.296875 C 12.078125 -4.148438 11.847656 -3.160156 11.390625 -2.328125 C 10.941406 -1.492188 10.304688 -0.859375 9.484375 -0.421875 C 8.660156 0.015625 7.710938 0.234375 6.640625 0.234375 Z M 6.640625 0.234375 "/></g></g></g><g fill="#000000" fill-opacity="1"><g transform="translate(784.18476, 384.263883)"><g><path d="M 4.59375 -7.359375 C 3.863281 -7.359375 3.222656 -7.519531 2.671875 -7.84375 C 2.128906 -8.164062 1.703125 -8.660156 1.390625 -9.328125 C 1.078125 -10.003906 0.921875 -10.847656 0.921875 -11.859375 C 0.921875 -13.359375 1.25 -14.476562 1.90625 -15.21875 C 2.570312 -15.96875 3.46875 -16.34375 4.59375 -16.34375 C 5.3125 -16.34375 5.941406 -16.179688 6.484375 -15.859375 C 7.023438 -15.546875 7.445312 -15.054688 7.75 -14.390625 C 8.0625 -13.722656 8.21875 -12.878906 8.21875 -11.859375 C 8.21875 -10.847656 8.0625 -10.003906 7.75 -9.328125 C 7.445312 -8.660156 7.023438 -8.164062 6.484375 -7.84375 C 5.941406 -7.519531 5.3125 -7.359375 4.59375 -7.359375 Z M 4.953125 0 L 3.34375 0 L 3.296875 -0.234375 L 14.0625 -16.125 L 15.6875 -16.125 L 15.734375 -15.890625 Z M 4.59375 -8.75 C 5.28125 -8.75 5.785156 -8.984375 6.109375 -9.453125 C 6.441406 -9.929688 6.609375 -10.734375 6.609375 -11.859375 C 6.609375 -12.984375 6.441406 -13.78125 6.109375 -14.25 C 5.785156 -14.726562 5.28125 -14.96875 4.59375 -14.96875 C 4.113281 -14.96875 3.722656 -14.867188 3.421875 -14.671875 C 3.128906 -14.472656 2.90625 -14.144531 2.75 -13.6875 C 2.601562 -13.238281 2.53125 -12.628906 2.53125 -11.859375 C 2.53125 -11.097656 2.601562 -10.488281 2.75 -10.03125 C 2.90625 -9.570312 3.128906 -9.242188 3.421875 -9.046875 C 3.722656 -8.847656 4.113281 -8.75 4.59375 -8.75 Z M 14.484375 0.234375 C 13.367188 0.234375 12.476562 -0.132812 11.8125 -0.875 C 11.15625 -1.625 10.828125 -2.75 10.828125 -4.25 C 10.828125 -5.757812 11.15625 -6.882812 11.8125 -7.625 C 12.476562 -8.375 13.367188 -8.75 14.484375 -8.75 C 15.203125 -8.75 15.832031 -8.585938 16.375 -8.265625 C 16.925781 -7.953125 17.351562 -7.457031 17.65625 -6.78125 C 17.96875 -6.113281 18.125 -5.269531 18.125 -4.25 C 18.125 -3.238281 17.96875 -2.398438 17.65625 -1.734375 C 17.351562 -1.066406 16.925781 -0.570312 16.375 -0.25 C 15.832031 0.0703125 15.203125 0.234375 14.484375 0.234375 Z M 14.484375 -1.140625 C 15.171875 -1.140625 15.679688 -1.375 16.015625 -1.84375 C 16.347656 -2.320312 16.515625 -3.125 16.515625 -4.25 C 16.515625 -5.375 16.347656 -6.171875 16.015625 -6.640625 C 15.679688 -7.117188 15.171875 -7.359375 14.484375 -7.359375 C 13.785156 -7.359375 13.269531 -7.125 12.9375 -6.65625 C 12.601562 -6.1875 12.4375 -5.382812 12.4375 -4.25 C 12.4375 -3.125 12.601562 -2.320312 12.9375 -1.84375 C 13.269531 -1.375 13.785156 -1.140625 14.484375 -1.140625 Z M 14.484375 -1.140625 "/></g></g></g><g fill="#000000" fill-opacity="1"><g transform="translate(758.872977, 498.563887)"><g><path d="M 1.140625 0 L 1.140625 -1.5625 L 5.546875 -1.5625 L 5.546875 -13.890625 L 5.296875 -13.953125 C 4.578125 -13.597656 3.945312 -13.328125 3.40625 -13.140625 C 2.875 -12.953125 2.191406 -12.769531 1.359375 -12.59375 L 1.359375 -14.34375 C 2.191406 -14.519531 3.007812 -14.757812 3.8125 -15.0625 C 4.625 -15.363281 5.363281 -15.71875 6.03125 -16.125 L 7.390625 -16.125 L 7.390625 -1.5625 L 11.328125 -1.5625 L 11.328125 0 Z M 1.140625 0 "/></g></g><g transform="translate(770.88947, 498.563887)"><g><path d="M 6.640625 0.234375 C 5.128906 0.234375 3.921875 -0.0976562 3.015625 -0.765625 C 2.117188 -1.441406 1.535156 -2.390625 1.265625 -3.609375 L 2.671875 -4.25 L 2.921875 -4.21875 C 3.109375 -3.59375 3.347656 -3.078125 3.640625 -2.671875 C 3.941406 -2.273438 4.332031 -1.976562 4.8125 -1.78125 C 5.300781 -1.582031 5.910156 -1.484375 6.640625 -1.484375 C 7.722656 -1.484375 8.566406 -1.804688 9.171875 -2.453125 C 9.785156 -3.097656 10.09375 -4.046875 10.09375 -5.296875 C 10.09375 -6.554688 9.789062 -7.515625 9.1875 -8.171875 C 8.59375 -8.828125 7.769531 -9.15625 6.71875 -9.15625 C 5.914062 -9.15625 5.265625 -8.992188 4.765625 -8.671875 C 4.273438 -8.347656 3.835938 -7.851562 3.453125 -7.1875 L 1.921875 -7.3125 L 2.234375 -16.125 L 11.265625 -16.125 L 11.265625 -14.515625 L 3.890625 -14.515625 L 3.703125 -9.15625 L 3.9375 -9.125 C 4.320312 -9.675781 4.785156 -10.085938 5.328125 -10.359375 C 5.878906 -10.640625 6.535156 -10.78125 7.296875 -10.78125 C 8.265625 -10.78125 9.101562 -10.5625 9.8125 -10.125 C 10.53125 -9.695312 11.085938 -9.070312 11.484375 -8.25 C 11.878906 -7.425781 12.078125 -6.441406 12.078125 -5.296875 C 12.078125 -4.148438 11.847656 -3.160156 11.390625 -2.328125 C 10.941406 -1.492188 10.304688 -0.859375 9.484375 -0.421875 C 8.660156 0.015625 7.710938 0.234375 6.640625 0.234375 Z M 6.640625 0.234375 "/></g></g></g><g fill="#000000" fill-opacity="1"><g transform="translate(783.809955, 498.563887)"><g><path d="M 4.59375 -7.359375 C 3.863281 -7.359375 3.222656 -7.519531 2.671875 -7.84375 C 2.128906 -8.164062 1.703125 -8.660156 1.390625 -9.328125 C 1.078125 -10.003906 0.921875 -10.847656 0.921875 -11.859375 C 0.921875 -13.359375 1.25 -14.476562 1.90625 -15.21875 C 2.570312 -15.96875 3.46875 -16.34375 4.59375 -16.34375 C 5.3125 -16.34375 5.941406 -16.179688 6.484375 -15.859375 C 7.023438 -15.546875 7.445312 -15.054688 7.75 -14.390625 C 8.0625 -13.722656 8.21875 -12.878906 8.21875 -11.859375 C 8.21875 -10.847656 8.0625 -10.003906 7.75 -9.328125 C 7.445312 -8.660156 7.023438 -8.164062 6.484375 -7.84375 C 5.941406 -7.519531 5.3125 -7.359375 4.59375 -7.359375 Z M 4.953125 0 L 3.34375 0 L 3.296875 -0.234375 L 14.0625 -16.125 L 15.6875 -16.125 L 15.734375 -15.890625 Z M 4.59375 -8.75 C 5.28125 -8.75 5.785156 -8.984375 6.109375 -9.453125 C 6.441406 -9.929688 6.609375 -10.734375 6.609375 -11.859375 C 6.609375 -12.984375 6.441406 -13.78125 6.109375 -14.25 C 5.785156 -14.726562 5.28125 -14.96875 4.59375 -14.96875 C 4.113281 -14.96875 3.722656 -14.867188 3.421875 -14.671875 C 3.128906 -14.472656 2.90625 -14.144531 2.75 -13.6875 C 2.601562 -13.238281 2.53125 -12.628906 2.53125 -11.859375 C 2.53125 -11.097656 2.601562 -10.488281 2.75 -10.03125 C 2.90625 -9.570312 3.128906 -9.242188 3.421875 -9.046875 C 3.722656 -8.847656 4.113281 -8.75 4.59375 -8.75 Z M 14.484375 0.234375 C 13.367188 0.234375 12.476562 -0.132812 11.8125 -0.875 C 11.15625 -1.625 10.828125 -2.75 10.828125 -4.25 C 10.828125 -5.757812 11.15625 -6.882812 11.8125 -7.625 C 12.476562 -8.375 13.367188 -8.75 14.484375 -8.75 C 15.203125 -8.75 15.832031 -8.585938 16.375 -8.265625 C 16.925781 -7.953125 17.351562 -7.457031 17.65625 -6.78125 C 17.96875 -6.113281 18.125 -5.269531 18.125 -4.25 C 18.125 -3.238281 17.96875 -2.398438 17.65625 -1.734375 C 17.351562 -1.066406 16.925781 -0.570312 16.375 -0.25 C 15.832031 0.0703125 15.203125 0.234375 14.484375 0.234375 Z M 14.484375 -1.140625 C 15.171875 -1.140625 15.679688 -1.375 16.015625 -1.84375 C 16.347656 -2.320312 16.515625 -3.125 16.515625 -4.25 C 16.515625 -5.375 16.347656 -6.171875 16.015625 -6.640625 C 15.679688 -7.117188 15.171875 -7.359375 14.484375 -7.359375 C 13.785156 -7.359375 13.269531 -7.125 12.9375 -6.65625 C 12.601562 -6.1875 12.4375 -5.382812 12.4375 -4.25 C 12.4375 -3.125 12.601562 -2.320312 12.9375 -1.84375 C 13.269531 -1.375 13.785156 -1.140625 14.484375 -1.140625 Z M 14.484375 -1.140625 "/></g></g></g><g fill="#000000" fill-opacity="1"><g transform="translate(758.872953, 612.863881)"><g><path d="M 6.8125 0.234375 C 5.632812 0.234375 4.628906 0.046875 3.796875 -0.328125 C 2.960938 -0.710938 2.328125 -1.253906 1.890625 -1.953125 C 1.460938 -2.660156 1.25 -3.488281 1.25 -4.4375 C 1.25 -5.457031 1.5 -6.3125 2 -7 C 2.507812 -7.6875 3.257812 -8.222656 4.25 -8.609375 L 4.25 -8.84375 C 3.550781 -9.257812 3.015625 -9.742188 2.640625 -10.296875 C 2.265625 -10.859375 2.078125 -11.515625 2.078125 -12.265625 C 2.078125 -13.085938 2.269531 -13.804688 2.65625 -14.421875 C 3.039062 -15.035156 3.59375 -15.507812 4.3125 -15.84375 C 5.03125 -16.175781 5.863281 -16.34375 6.8125 -16.34375 C 7.757812 -16.34375 8.59375 -16.175781 9.3125 -15.84375 C 10.03125 -15.507812 10.582031 -15.035156 10.96875 -14.421875 C 11.363281 -13.804688 11.5625 -13.085938 11.5625 -12.265625 C 11.5625 -11.515625 11.367188 -10.859375 10.984375 -10.296875 C 10.609375 -9.742188 10.070312 -9.257812 9.375 -8.84375 L 9.375 -8.609375 C 10.375 -8.222656 11.125 -7.6875 11.625 -7 C 12.132812 -6.3125 12.390625 -5.457031 12.390625 -4.4375 C 12.390625 -3.476562 12.171875 -2.648438 11.734375 -1.953125 C 11.304688 -1.253906 10.671875 -0.710938 9.828125 -0.328125 C 8.992188 0.046875 7.988281 0.234375 6.8125 0.234375 Z M 6.8125 -9.34375 C 7.382812 -9.34375 7.890625 -9.453125 8.328125 -9.671875 C 8.765625 -9.890625 9.101562 -10.203125 9.34375 -10.609375 C 9.59375 -11.015625 9.71875 -11.492188 9.71875 -12.046875 C 9.71875 -12.609375 9.59375 -13.09375 9.34375 -13.5 C 9.101562 -13.914062 8.757812 -14.234375 8.3125 -14.453125 C 7.875 -14.671875 7.375 -14.78125 6.8125 -14.78125 C 5.925781 -14.78125 5.21875 -14.535156 4.6875 -14.046875 C 4.164062 -13.554688 3.90625 -12.890625 3.90625 -12.046875 C 3.90625 -11.210938 4.164062 -10.550781 4.6875 -10.0625 C 5.21875 -9.582031 5.925781 -9.34375 6.8125 -9.34375 Z M 6.8125 -1.4375 C 7.976562 -1.4375 8.867188 -1.710938 9.484375 -2.265625 C 10.097656 -2.816406 10.40625 -3.582031 10.40625 -4.5625 C 10.40625 -5.539062 10.097656 -6.304688 9.484375 -6.859375 C 8.867188 -7.410156 7.976562 -7.6875 6.8125 -7.6875 C 5.65625 -7.6875 4.765625 -7.410156 4.140625 -6.859375 C 3.523438 -6.304688 3.21875 -5.539062 3.21875 -4.5625 C 3.21875 -3.582031 3.523438 -2.816406 4.140625 -2.265625 C 4.765625 -1.710938 5.65625 -1.4375 6.8125 -1.4375 Z M 6.8125 -1.4375 "/></g></g></g><g fill="#000000" fill-opacity="1"><g transform="translate(772.278508, 612.863881)"><g><path d="M 4.59375 -7.359375 C 3.863281 -7.359375 3.222656 -7.519531 2.671875 -7.84375 C 2.128906 -8.164062 1.703125 -8.660156 1.390625 -9.328125 C 1.078125 -10.003906 0.921875 -10.847656 0.921875 -11.859375 C 0.921875 -13.359375 1.25 -14.476562 1.90625 -15.21875 C 2.570312 -15.96875 3.46875 -16.34375 4.59375 -16.34375 C 5.3125 -16.34375 5.941406 -16.179688 6.484375 -15.859375 C 7.023438 -15.546875 7.445312 -15.054688 7.75 -14.390625 C 8.0625 -13.722656 8.21875 -12.878906 8.21875 -11.859375 C 8.21875 -10.847656 8.0625 -10.003906 7.75 -9.328125 C 7.445312 -8.660156 7.023438 -8.164062 6.484375 -7.84375 C 5.941406 -7.519531 5.3125 -7.359375 4.59375 -7.359375 Z M 4.953125 0 L 3.34375 0 L 3.296875 -0.234375 L 14.0625 -16.125 L 15.6875 -16.125 L 15.734375 -15.890625 Z M 4.59375 -8.75 C 5.28125 -8.75 5.785156 -8.984375 6.109375 -9.453125 C 6.441406 -9.929688 6.609375 -10.734375 6.609375 -11.859375 C 6.609375 -12.984375 6.441406 -13.78125 6.109375 -14.25 C 5.785156 -14.726562 5.28125 -14.96875 4.59375 -14.96875 C 4.113281 -14.96875 3.722656 -14.867188 3.421875 -14.671875 C 3.128906 -14.472656 2.90625 -14.144531 2.75 -13.6875 C 2.601562 -13.238281 2.53125 -12.628906 2.53125 -11.859375 C 2.53125 -11.097656 2.601562 -10.488281 2.75 -10.03125 C 2.90625 -9.570312 3.128906 -9.242188 3.421875 -9.046875 C 3.722656 -8.847656 4.113281 -8.75 4.59375 -8.75 Z M 14.484375 0.234375 C 13.367188 0.234375 12.476562 -0.132812 11.8125 -0.875 C 11.15625 -1.625 10.828125 -2.75 10.828125 -4.25 C 10.828125 -5.757812 11.15625 -6.882812 11.8125 -7.625 C 12.476562 -8.375 13.367188 -8.75 14.484375 -8.75 C 15.203125 -8.75 15.832031 -8.585938 16.375 -8.265625 C 16.925781 -7.953125 17.351562 -7.457031 17.65625 -6.78125 C 17.96875 -6.113281 18.125 -5.269531 18.125 -4.25 C 18.125 -3.238281 17.96875 -2.398438 17.65625 -1.734375 C 17.351562 -1.066406 16.925781 -0.570312 16.375 -0.25 C 15.832031 0.0703125 15.203125 0.234375 14.484375 0.234375 Z M 14.484375 -1.140625 C 15.171875 -1.140625 15.679688 -1.375 16.015625 -1.84375 C 16.347656 -2.320312 16.515625 -3.125 16.515625 -4.25 C 16.515625 -5.375 16.347656 -6.171875 16.015625 -6.640625 C 15.679688 -7.117188 15.171875 -7.359375 14.484375 -7.359375 C 13.785156 -7.359375 13.269531 -7.125 12.9375 -6.65625 C 12.601562 -6.1875 12.4375 -5.382812 12.4375 -4.25 C 12.4375 -3.125 12.601562 -2.320312 12.9375 -1.84375 C 13.269531 -1.375 13.785156 -1.140625 14.484375 -1.140625 Z M 14.484375 -1.140625 "/></g></g></g><path fill="#e86c6c" d="M 171.25 33.25 L 742.75 33.25 L 699.886719 147.550781 L 214.113281 147.550781 " fill-opacity="1" fill-rule="nonzero"/><path fill="#d45c5c" d="M 214.113281 147.550781 L 699.886719 147.550781 L 591.300781 261.851562 L 322.699219 261.851562 " fill-opacity="1" fill-rule="nonzero"/><path fill="#ad4949" d="M 322.699219 261.851562 L 591.300781 261.851562 L 528.4375 376.148438 L 385.5625 376.148438 " fill-opacity="1" fill-rule="nonzero"/><path fill="#923e3e" d="M 385.5625 376.148438 L 528.4375 376.148438 L 499.863281 490.449219 L 414.136719 490.449219 " fill-opacity="1" fill-rule="nonzero"/><path fill="#6d3636" d="M 414.136719 490.449219 L 499.863281 490.449219 L 479.859375 604.75 L 434.140625 604.75 " fill-opacity="1" fill-rule="nonzero"/></g></g></svg>